<svg width="200" height="200" viewBox="0 0 200 200" fill="none" xmlns="http://www.w3.org/2000/svg">
<path d="M198.234 93.8645C198.148 92.9333 198.092 91.9718 198.041 91.0429C197.975 89.3636 197.82 87.6889 197.576 86.0261C196.849 81.6983 195.639 77.1448 193.778 71.6879C192.407 67.7 191.162 64.1056 189.803 60.5135C189.477 59.6521 189.166 58.7489 188.872 57.8759C187.979 55.2848 187.057 52.6076 185.524 50.3331C184.218 48.4009 182.987 46.3592 181.801 44.3851C179.669 40.8535 177.465 37.2032 174.717 33.9324C172.06 30.7686 169.844 28.7269 167.308 27.0997C165.183 25.7378 163.585 24.3922 162.293 22.8697C158.867 18.8157 154.624 15.5307 149.841 13.2294C144.612 10.7175 139.018 8.10782 133.17 6.27568C132.514 6.06848 131.846 5.84267 131.202 5.62384C129.368 5.00226 127.478 4.36206 125.461 4.04312C122.962 3.64969 120.023 3.15615 117.16 2.49966C113.806 1.74114 110.387 1.30152 106.949 1.18666C104.48 1.08889 102.004 1.26349 99.6099 1.4311C98.3045 1.52422 96.9548 1.61967 95.633 1.6639C93.4898 1.74306 91.4025 1.85247 89.4013 2.31807C86.1271 3.07933 82.7599 3.67995 79.5044 4.26195L78.6341 4.41793C77.936 4.54364 77.2006 4.65073 76.4979 4.76946C74.7727 5.0098 73.0626 5.34869 71.3761 5.78447C69.6331 6.26404 67.9391 6.90657 66.3008 7.52582C65.2583 7.92158 64.1809 8.32898 63.1128 8.68982C58.7682 10.1402 54.2329 12.2098 48.8411 15.2082C42.6566 18.6442 36.8471 22.7162 31.5071 27.3581C29.3034 29.281 27.2254 31.6858 25.159 34.7099C23.9233 36.5188 22.7505 38.4021 21.6149 40.2249C20.6841 41.7242 19.7137 43.2793 18.7224 44.7715C15.1258 50.2199 12.0529 55.9966 9.54461 62.0244L9.01172 63.3071C7.67834 66.4732 6.29841 69.751 5.15118 73.0614C3.52226 77.7896 2.79158 82.5597 2.08416 87.8559C1.77932 90.1234 1.69322 92.4071 1.61875 94.6071C1.55825 96.2158 1.49542 97.8826 1.34882 99.5076C1.00209 103.321 1.18593 107.479 1.90963 112.221C2.01668 112.919 2.11441 113.618 2.21447 114.316C2.56353 116.774 2.92422 119.314 3.59673 121.766C5.36872 128.379 7.726 134.821 10.6406 141.016C14.0148 148.088 18.1919 154.735 21.843 160.41C24.2165 164.124 26.8348 167.675 29.6804 171.04C32.2244 174.009 35.2654 176.513 38.6674 178.438C40.1148 179.277 41.5692 180.166 42.9724 181.027C44.5245 181.977 46.1302 182.959 47.7428 183.884C49.0738 184.647 50.4142 185.467 51.6987 186.258C55.1776 188.391 58.7776 190.595 62.7894 192.022C64.1251 192.5 65.4654 193.068 66.7639 193.617C69.2166 194.655 71.7554 195.731 74.4734 196.287C75.5694 196.52 76.684 196.683 77.7615 196.851C78.4014 196.951 79.0413 197.049 79.6789 197.158C80.7906 197.33 81.9108 197.443 83.0345 197.496C84.0995 197.547 85.1612 197.651 86.2156 197.81C89.0801 198.296 91.9936 198.385 94.8139 198.473C96.4615 198.525 98.1648 198.578 99.8263 198.706C100.92 198.795 102.028 198.836 103.168 198.836C106.607 198.805 110.037 198.472 113.419 197.842C114.743 197.61 116.113 197.456 117.437 197.307C119.532 197.074 121.712 196.827 123.825 196.262C125.161 195.906 126.487 195.465 127.767 195.039C128.679 194.737 129.629 194.423 130.559 194.146C135.08 192.822 139.457 191.051 143.626 188.859C146.185 187.494 148.713 185.979 151.151 184.512C153.979 182.815 156.904 181.06 159.882 179.542C161.292 178.823 162.907 177.912 164.239 176.516C167.778 172.826 171.918 168.414 175.874 163.672C178.899 160.031 182.057 156.097 184.432 151.566C185.098 150.302 185.708 148.989 186.294 147.72C187.113 145.878 188.025 144.078 189.028 142.329C192.407 136.674 196.382 124.122 196.382 124.08C197.164 121.665 197.664 118.998 197.959 115.699C198.057 114.598 198.192 113.483 198.32 112.402C198.592 110.133 198.872 107.781 198.837 105.418C198.774 101.305 198.578 97.5288 198.234 93.8645ZM162.498 107.893C162.414 108.591 162.326 109.329 162.265 110.056C162.139 111.825 161.811 113.574 161.288 115.268C161.23 115.452 158.756 123.283 156.634 126.822C155.966 127.984 155.359 129.18 154.814 130.405C154.437 131.213 154.048 132.051 153.63 132.845C152.143 135.675 150.139 138.166 148.224 140.476C145.694 143.516 143.028 146.352 140.754 148.724C140.013 149.441 139.159 150.029 138.225 150.465C136.265 151.462 134.359 152.607 132.514 153.724C130.948 154.656 129.331 155.638 127.697 156.506C125.065 157.89 122.301 159.008 119.448 159.845C118.831 160.029 118.215 160.234 117.619 160.431C116.804 160.701 115.964 160.981 115.131 161.204C113.828 161.514 112.503 161.727 111.168 161.84C110.293 161.938 109.39 162.04 108.504 162.196C105.246 162.771 102.53 162.943 99.9846 162.741C98.8862 162.655 97.7716 162.62 96.6918 162.587C94.907 162.531 93.0593 162.473 91.2792 162.173C90.562 162.063 89.8396 161.991 89.115 161.956C88.4262 161.925 87.7395 161.856 87.0579 161.751C86.6391 161.679 86.2202 161.614 85.799 161.549C85.1149 161.444 84.4028 161.335 83.7256 161.193C82.0711 160.855 80.4818 160.182 78.9436 159.53C78.0896 159.17 77.2076 158.797 76.314 158.478C73.8265 157.591 71.5483 156.197 69.3446 154.847C68.5022 154.332 67.6296 153.797 66.7546 153.296C65.7261 152.707 64.6952 152.076 63.6992 151.466C62.7847 150.905 61.8376 150.326 60.8928 149.778C58.7999 148.595 56.9289 147.055 55.3638 145.23C53.554 143.093 51.8895 140.838 50.3816 138.478C48.0383 134.837 45.3599 130.563 43.2051 126.058C41.3466 122.119 39.8413 118.022 38.7069 113.815C38.3217 112.271 38.0325 110.705 37.8413 109.125C37.7761 108.659 37.711 108.212 37.6412 107.756C37.1874 104.776 37.071 102.168 37.2874 99.7986C37.3852 98.7184 37.4271 97.6265 37.4666 96.5719C37.5201 95.1751 37.5737 93.7201 37.7645 92.307C38.2136 88.9408 38.6697 85.912 39.6959 82.9508C40.4289 80.8439 41.3132 78.7418 42.1672 76.7094L42.5209 75.8713C44.1155 72.0371 46.0697 68.3626 48.3571 64.8971C49.0064 63.9194 49.637 62.9067 50.2443 61.9313C50.9727 60.7673 51.7243 59.5544 52.5109 58.4043C53.6199 56.7272 54.9383 55.1986 56.4342 53.8554C59.8305 50.9039 63.5248 48.3144 67.4574 46.1288C70.8758 44.2175 73.7497 42.9045 76.4956 41.9896C77.2053 41.7568 77.9127 41.4844 78.5899 41.2237C79.6254 40.8326 80.6958 40.4252 81.7733 40.1295C82.8203 39.8621 83.8816 39.6538 84.952 39.5056C85.4174 39.4334 85.8828 39.3589 86.3482 39.2728L86.9113 39.1727C89.0289 38.7956 91.221 38.4044 93.3642 37.9039C94.6241 37.6516 95.905 37.519 97.1898 37.5082C98.0625 37.4756 98.9444 37.4127 99.7961 37.3545C101.018 37.2684 102.272 37.1799 103.519 37.1799C103.824 37.1799 104.127 37.1799 104.427 37.1962C106.583 37.2679 108.727 37.5438 110.831 38.0203C112.713 38.451 114.636 38.7723 116.269 39.0307C117.473 39.2549 118.656 39.5828 119.804 40.0108C120.227 40.1528 120.665 40.3018 121.1 40.4391C124.812 41.6031 128.388 43.27 131.735 44.8786C134.691 46.3006 137.314 48.3306 139.432 50.836C140.44 51.9891 141.617 52.9821 142.923 53.7809C144.463 54.7703 145.825 56.0274 147.47 57.9853C149.192 60.0339 150.595 62.3596 151.952 64.6061C152.727 65.8935 153.532 67.2251 154.391 68.4986C155.303 69.8511 155.875 71.5133 156.429 73.122C156.627 73.6947 156.829 74.286 157.048 74.8587C157.921 77.161 158.721 79.4751 159.608 82.0452C160.799 85.5163 161.567 88.4053 162.023 91.143C162.175 92.1793 162.272 93.2229 162.312 94.2695C162.347 94.8795 162.384 95.5104 162.442 96.132C162.658 98.4716 162.786 100.888 162.826 103.514C162.815 104.979 162.705 106.442 162.498 107.893Z" fill="#FEE77B"/>
<path d="M163.476 94.2031C163.434 93.112 163.332 92.0239 163.171 90.9439C162.705 88.1503 161.924 85.1961 160.709 81.6598C159.822 79.0781 159.015 76.7524 158.149 74.443C157.947 73.9122 157.756 73.3535 157.57 72.8134L157.542 72.7389C156.965 71.0604 156.367 69.3237 155.368 67.8501C154.517 66.586 153.691 65.2171 152.962 64.0089C151.585 61.7251 150.17 59.3529 148.376 57.2414C146.651 55.1881 145.213 53.8635 143.566 52.8042C142.36 52.0656 141.274 51.1489 140.343 50.0851C138.118 47.4564 135.365 45.3258 132.263 43.8321C128.88 42.2025 125.261 40.5216 121.473 39.3297C121.068 39.204 120.663 39.0666 120.27 38.934L120.184 38.906C118.979 38.4586 117.738 38.1166 116.474 37.884C114.866 37.6303 112.984 37.3137 111.122 36.8876C108.948 36.3956 106.732 36.1111 104.504 36.0379C104.206 36.0239 103.894 36.0193 103.55 36.0193C102.256 36.0193 100.99 36.1101 99.7477 36.1962C98.9495 36.2521 98.042 36.3173 97.1879 36.3475C95.8194 36.3561 94.4549 36.4964 93.1133 36.7666C91.0004 37.2601 88.8269 37.6466 86.721 38.0237L86.1578 38.1238C85.6924 38.2053 85.227 38.2775 84.7802 38.3566C83.6674 38.5119 82.5643 38.7295 81.4758 39.0084C80.3542 39.3181 79.2652 39.7301 78.218 40.1282H78.1947C77.5222 40.382 76.8264 40.645 76.1376 40.8755C73.3219 41.8067 70.3852 43.157 66.8947 45.0962C62.8908 47.3214 59.1294 49.9577 55.6714 52.9625C54.1007 54.3703 52.7166 55.9733 51.5526 57.7326C50.7521 58.8966 49.9935 60.1211 49.2605 61.2991L49.2279 61.3503C48.6345 62.3048 48.0202 63.2895 47.3919 64.237C45.0623 67.7652 43.0731 71.5069 41.451 75.4115L41.0996 76.2495C40.2363 78.2959 39.3473 80.412 38.6004 82.5608C37.5392 85.6244 37.0715 88.7137 36.6131 92.1428C36.4153 93.6141 36.3594 95.0924 36.3059 96.5195C36.2687 97.5578 36.2268 98.6287 36.1314 99.6832C35.8987 102.156 36.0267 104.851 36.4944 107.922C36.5596 108.341 36.6177 108.76 36.6782 109.177L36.6922 109.279C36.889 110.907 37.1882 112.522 37.5881 114.112C38.7395 118.387 40.269 122.55 42.1584 126.553C44.3435 131.132 47.0451 135.43 49.4047 139.101C50.9413 141.504 52.6361 143.802 54.4777 145.98C56.129 147.909 58.104 149.534 60.3139 150.783C61.2726 151.339 62.2406 151.933 63.0947 152.457L63.1482 152.489C64.1348 153.095 65.1541 153.719 66.1733 154.305C67.039 154.801 67.9023 155.327 68.733 155.839C70.9856 157.218 73.315 158.633 75.9189 159.564C76.7799 159.871 77.6456 160.237 78.4903 160.593C80.0796 161.266 81.7225 161.962 83.4887 162.323C84.1868 162.47 84.9129 162.581 85.618 162.691C86.0322 162.754 86.4441 162.816 86.8536 162.889C87.5683 162.999 88.2883 163.072 89.0108 163.105H89.041C89.7243 163.138 90.4055 163.205 91.0818 163.308C92.9434 163.622 94.8283 163.68 96.6527 163.736C97.6603 163.769 98.8052 163.803 99.8896 163.89C100.599 163.945 101.318 163.973 102.058 163.973C104.287 163.953 106.509 163.737 108.7 163.329C109.563 163.177 110.443 163.079 111.292 162.984C112.689 162.862 114.074 162.636 115.437 162.307C116.298 162.074 117.149 161.794 117.996 161.513C118.55 161.329 119.178 161.119 119.79 160.938C122.718 160.08 125.554 158.932 128.254 157.511C129.899 156.636 131.512 155.665 133.08 154.717L133.124 154.692C134.944 153.598 136.824 152.466 138.763 151.479C139.813 150.987 140.773 150.32 141.602 149.507C143.896 147.116 146.581 144.26 149.127 141.199C151.087 138.843 153.13 136.296 154.67 133.365C155.101 132.543 155.496 131.696 155.878 130.874C156.407 129.686 156.996 128.525 157.642 127.396C159.657 124.025 161.949 117.011 162.387 115.639V115.604C162.937 113.828 163.282 111.994 163.415 110.138C163.48 109.419 163.571 108.669 163.648 108.011C163.867 106.516 163.983 105.009 163.995 103.499C163.953 100.84 163.827 98.3959 163.604 96.0259C163.545 95.4183 163.511 94.7991 163.476 94.2031ZM161.346 107.754C161.265 108.43 161.172 109.195 161.114 109.952C160.993 111.633 160.681 113.296 160.183 114.906L160.169 114.95C159.743 116.28 157.528 123.07 155.643 126.223C154.951 127.419 154.321 128.651 153.756 129.912C153.386 130.709 153.002 131.53 152.592 132.301C151.156 135.034 149.199 137.469 147.319 139.732C144.82 142.735 142.169 145.552 139.905 147.917C139.253 148.537 138.504 149.047 137.688 149.426C135.679 150.45 133.762 151.602 131.907 152.715L131.865 152.741C130.325 153.672 128.733 154.622 127.141 155.469C124.578 156.819 121.886 157.911 119.106 158.728C118.459 158.919 117.812 159.136 117.224 159.331C116.432 159.594 115.616 159.867 114.822 160.079C113.571 160.375 112.3 160.58 111.02 160.691C110.175 160.786 109.216 160.893 108.283 161.059C105.118 161.613 102.505 161.783 100.059 161.59C98.9193 161.499 97.7464 161.464 96.7109 161.431C94.9656 161.378 93.1575 161.322 91.4565 161.033C90.6993 160.916 89.9365 160.839 89.1713 160.8H89.1481C88.5075 160.772 87.869 160.709 87.2352 160.612C86.8117 160.54 86.3859 160.474 85.9507 160.407C85.2829 160.302 84.5941 160.195 83.9402 160.06C82.402 159.748 80.8662 159.096 79.3769 158.465C78.5089 158.1 77.6107 157.718 76.6868 157.39C74.3086 156.542 72.084 155.181 69.9384 153.863C69.0914 153.344 68.2141 152.806 67.3182 152.294C66.3222 151.723 65.317 151.109 64.3466 150.513L64.2931 150.48C63.4297 149.952 62.4501 149.351 61.4634 148.779C59.4905 147.657 57.7275 146.2 56.2532 144.474C54.4794 142.374 52.8469 140.158 51.3664 137.842C49.0394 134.231 46.3889 130.006 44.262 125.55C42.4336 121.672 40.9539 117.64 39.8407 113.5C39.4674 112.002 39.1876 110.483 39.0029 108.951L38.989 108.849C38.9285 108.425 38.868 107.997 38.8028 107.573C38.3607 104.688 38.249 102.177 38.4561 99.8904C38.5585 98.773 38.6004 97.6695 38.6399 96.6033C38.6911 95.2298 38.7446 93.8097 38.9261 92.4478C39.3683 89.1444 39.8151 86.1785 40.8064 83.3197C41.5278 81.2431 42.4027 79.1619 43.2498 77.1482L43.6035 76.3077C45.1695 72.5414 47.0894 68.9324 49.3373 65.5291C49.9842 64.5536 50.6078 63.5526 51.1989 62.5842L51.2315 62.5329C51.9528 61.3689 52.6975 60.1793 53.4677 59.0409C54.5199 57.4452 55.771 55.9901 57.191 54.7108C60.5263 51.8126 64.1543 49.2699 68.0163 47.1239C71.3765 45.2615 74.1876 43.9694 76.859 43.0778C77.592 42.845 78.3111 42.561 79.0045 42.2979H79.0278C80.0308 41.9185 81.0686 41.525 82.0855 41.2457C83.0929 40.9901 84.1137 40.7911 85.1432 40.6497C85.6086 40.5752 86.088 40.5007 86.5604 40.4169L87.1235 40.3168C89.2574 39.9373 91.4635 39.5439 93.6392 39.0364C94.8268 38.8026 96.0335 38.6794 97.2438 38.6686C98.1467 38.636 99.0728 38.5708 99.8896 38.5126C101.083 38.4288 102.319 38.3426 103.529 38.3426C103.841 38.3426 104.122 38.3426 104.392 38.3589C106.475 38.4276 108.547 38.6934 110.58 39.1528C112.507 39.5928 114.45 39.9187 116.097 40.1794C117.236 40.3948 118.355 40.7063 119.441 41.1106L119.511 41.1339C119.921 41.2736 120.342 41.4156 120.761 41.5483C124.403 42.6913 127.935 44.3419 131.232 45.9273C134.042 47.2787 136.534 49.2089 138.546 51.5913C139.627 52.8291 140.887 53.8972 142.286 54.7597C143.724 55.6909 145.006 56.8712 146.57 58.7336C148.238 60.7171 149.614 62.9985 150.945 65.2055C151.689 66.4393 152.532 67.8338 153.416 69.1491C154.242 70.3713 154.789 71.9614 155.322 73.5002L155.345 73.5747C155.538 74.1311 155.736 74.7061 155.95 75.2695C156.816 77.5532 157.616 79.8603 158.496 82.4234C159.659 85.8339 160.42 88.6648 160.865 91.3327C161.01 92.3274 161.102 93.329 161.142 94.3335C161.174 94.9225 161.214 95.5906 161.274 96.2401C161.488 98.5495 161.614 100.936 161.654 103.531C161.646 104.944 161.543 106.355 161.346 107.754Z" fill="#141414"/>
<path d="M199.394 93.7569C199.308 92.8257 199.252 91.8386 199.201 90.9633C199.133 89.2486 198.972 87.5389 198.719 85.8416C197.989 81.4534 196.764 76.8369 194.868 71.3149C193.486 67.2968 192.231 63.679 190.882 60.1149C190.568 59.2861 190.265 58.4131 189.974 57.5657L189.956 57.5098C189.039 54.8489 188.094 52.0972 186.465 49.697C185.192 47.809 183.982 45.8046 182.814 43.877L182.756 43.7816C180.606 40.2221 178.381 36.5392 175.582 33.2078C172.843 29.9486 170.548 27.8371 167.902 26.1446C165.878 24.8433 164.365 23.5722 163.146 22.1358C159.613 17.9587 155.239 14.5739 150.31 12.2022C145.056 9.6577 139.417 7.03171 133.509 5.17164C132.885 4.97608 132.259 4.76423 131.564 4.52678H131.54C129.679 3.89356 127.736 3.23939 125.63 2.89717C123.154 2.51073 120.245 2.0265 117.399 1.38164C113.977 0.603625 110.488 0.150757 106.981 0.0290732C104.44 -0.071031 101.936 0.105897 99.5134 0.27817H99.4412C98.1684 0.366634 96.8536 0.459754 95.5737 0.51097C93.3724 0.59245 91.2199 0.706523 89.1209 1.1954C85.884 1.94735 82.547 2.54565 79.3194 3.12066L78.4072 3.28362C77.758 3.40002 77.0832 3.51642 76.4316 3.60954L76.2943 3.6305C74.5357 3.87577 72.7923 4.22009 71.0725 4.6618C69.283 5.15534 67.561 5.80485 65.8948 6.43574H65.8716C64.8477 6.82452 63.7772 7.22494 62.751 7.57181C58.346 9.06406 53.7361 11.1593 48.2839 14.1857C42.0273 17.6601 36.1507 21.779 30.7497 26.4752C28.4693 28.4633 26.3284 30.9403 24.2038 34.0482C22.9542 35.878 21.7744 37.773 20.6342 39.6028L20.5946 39.668C19.6638 41.1416 18.733 42.6642 17.7579 44.1215C14.1213 49.6309 11.0141 55.4723 8.47777 61.5675L7.93324 62.8619C6.5952 66.042 5.21295 69.3268 4.04478 72.6884C2.37165 77.5074 1.64329 82.3473 0.924237 87.7087C0.612415 90.0367 0.526314 92.3484 0.442541 94.588C0.382039 96.1803 0.319209 97.8262 0.174934 99.4186C-0.181101 103.325 0.005061 107.567 0.745056 112.411C0.849772 113.11 0.947507 113.808 1.04757 114.506C1.40128 116.997 1.76895 119.572 2.46007 122.103C4.25649 128.777 6.64336 135.277 9.59241 141.528C12.9945 148.658 17.1948 155.344 20.8669 161.052C23.2673 164.804 25.9151 168.392 28.7927 171.792C31.4226 174.861 34.5659 177.449 38.0822 179.441C39.5319 180.284 41.0375 181.204 42.3639 182.018C43.9184 182.966 45.5473 183.96 47.1762 184.894C48.5026 185.653 49.829 186.465 51.1112 187.252C54.6413 189.415 58.2924 191.649 62.4206 193.118C63.6911 193.572 64.9803 194.117 66.2346 194.648L66.3323 194.688C68.8385 195.749 71.4308 196.848 74.2628 197.425C75.3635 197.658 76.4688 197.823 77.5393 197.991L77.7068 198.017C78.3049 198.11 78.9052 198.203 79.5033 198.305C80.6496 198.484 81.8047 198.602 82.9636 198.657H83.0008C84.0175 198.705 85.0311 198.805 86.0376 198.957C88.972 199.455 91.9156 199.546 94.7639 199.635H94.8012C96.4301 199.686 98.1218 199.737 99.7531 199.867C100.872 199.956 102.027 200 103.185 200C106.692 199.967 110.19 199.629 113.638 198.99C114.904 198.757 116.233 198.615 117.52 198.471H117.585C119.726 198.238 121.939 197.982 124.143 197.395C125.506 197.029 126.842 196.585 128.152 196.149L128.194 196.136C129.083 195.84 130.002 195.535 130.898 195.267C135.492 193.922 139.941 192.122 144.178 189.894C146.738 188.525 149.258 187.017 151.688 185.559L151.757 185.517C154.562 183.832 157.461 182.091 160.419 180.584C161.915 179.821 163.642 178.836 165.073 177.325C168.626 173.621 172.791 169.191 176.759 164.421C179.828 160.729 183.026 156.739 185.453 152.122C186.151 150.805 186.784 149.433 187.345 148.225L187.359 148.195C188.157 146.399 189.046 144.645 190.023 142.941C191.466 140.529 193.16 136.683 195.061 131.515C195.084 131.454 197.072 125.981 197.472 124.447H197.486C198.296 121.947 198.812 119.2 199.115 115.801C199.206 114.758 199.334 113.687 199.457 112.653L199.471 112.542C199.748 110.241 200.034 107.86 199.997 105.392C199.939 101.253 199.741 97.4514 199.394 93.7569ZM197.165 112.269L197.151 112.383C197.025 113.433 196.897 114.52 196.802 115.601C196.516 118.82 196.029 121.404 195.278 123.749L195.219 123.923C194.784 125.292 191.126 136.571 188.031 141.751C187.012 143.524 186.085 145.349 185.253 147.217L185.239 147.247C184.69 148.432 184.075 149.776 183.398 151.042C181.071 155.465 177.964 159.341 174.974 162.936C171.055 167.65 166.923 172.043 163.397 175.719C162.194 176.974 160.677 177.835 159.355 178.513C156.33 180.056 153.391 181.818 150.552 183.525L150.485 183.564C148.078 185.008 145.598 186.502 143.078 187.841C138.977 189.997 134.672 191.739 130.225 193.039C129.295 193.316 128.364 193.628 127.454 193.929L127.393 193.95C126.135 194.369 124.834 194.802 123.538 195.146C121.501 195.691 119.375 195.928 117.317 196.159H117.25C115.931 196.31 114.565 196.464 113.229 196.699C109.913 197.315 106.551 197.641 103.178 197.674C102.08 197.674 100.989 197.632 99.9206 197.549C98.2335 197.416 96.5162 197.362 94.85 197.316H94.8221C92.0506 197.23 89.186 197.139 86.4099 196.669C85.4701 196.521 84.5233 196.422 83.5732 196.373L82.9496 196.333C81.923 196.277 80.9 196.166 79.8849 196.003C79.2752 195.9 78.6632 195.805 78.0512 195.709L77.8837 195.682C76.8412 195.521 75.7637 195.353 74.7166 195.139C72.1126 194.606 69.6297 193.554 67.2259 192.536L67.1282 192.495C65.8483 191.954 64.5219 191.393 63.1885 190.918C59.2884 189.522 55.742 187.359 52.3166 185.259C51.0181 184.465 49.6778 183.643 48.3211 182.866C46.7225 181.951 45.1261 180.973 43.581 180.028C42.2429 179.209 40.7257 178.277 39.2527 177.423C35.9663 175.563 33.0278 173.147 30.5682 170.281C27.756 166.955 25.1688 163.445 22.8239 159.774C19.1914 154.127 15.0353 147.513 11.6937 140.508C8.80746 134.386 6.47123 128.019 4.71264 121.483C4.06107 119.093 3.70503 116.595 3.36063 114.166C3.26057 113.468 3.16051 112.756 3.05347 112.055C2.33441 107.413 2.15291 103.348 2.49731 99.6234C2.64624 97.9706 2.71139 96.2921 2.7719 94.6601C2.85334 92.4858 2.93944 90.2369 3.2373 88.0137C3.93541 82.778 4.64981 78.0684 6.2508 73.4473C7.38406 70.1625 8.75468 66.9103 10.0788 63.7722L10.6233 62.4755C13.1039 56.5161 16.1425 50.8048 19.6987 45.4182C20.6853 43.9329 21.6441 42.3918 22.5702 40.9065L22.6121 40.8413C23.7384 39.0301 24.9042 37.1584 26.1283 35.3705C28.1388 32.4256 30.1494 30.0929 32.2786 28.2375C37.5579 23.6491 43.301 19.624 49.4148 16.2273C54.7391 13.2545 59.2116 11.2151 63.4887 9.7904C64.5684 9.42956 65.6505 9.01983 66.6953 8.6264H66.7233C68.3359 8.01646 70.002 7.38557 71.6891 6.91997C73.3264 6.50185 74.9858 6.17619 76.6597 5.94453L76.7946 5.92358C77.4578 5.81882 78.1443 5.7094 78.8168 5.58835L79.729 5.42539C82.9868 4.84339 86.354 4.24276 89.6421 3.47685C91.5387 3.03453 93.5678 2.92744 95.6528 2.85062C96.9699 2.80406 98.3057 2.70861 99.5972 2.61781H99.6693C102.029 2.45253 104.47 2.28025 106.883 2.38501C110.251 2.49733 113.602 2.92759 116.889 3.67007C119.81 4.34054 122.763 4.83407 125.267 5.22984C127.175 5.53015 129.013 6.16104 130.791 6.75468H130.814C131.512 6.98748 132.162 7.22028 132.811 7.41583C138.582 9.22935 144.134 11.8158 149.333 14.3091C153.968 16.5398 158.08 19.7241 161.401 23.6537C162.776 25.267 164.451 26.6801 166.676 28.1095C169.105 29.6692 171.242 31.6434 173.82 34.7117C176.503 37.9057 178.681 41.5071 180.785 44.9922L180.841 45.0876C182.025 47.0501 183.251 49.0801 184.564 51.0147C186.014 53.1635 186.91 55.7662 187.778 58.2851L187.798 58.3409C188.094 59.2046 188.403 60.0962 188.729 60.9576C190.067 64.4892 191.315 68.0883 192.685 72.0901C194.547 77.4841 195.734 81.9818 196.443 86.2397C196.685 87.8599 196.841 89.4918 196.909 91.1285C196.96 92.0132 197.018 93.0142 197.107 93.9943C197.449 97.6283 197.644 101.376 197.705 105.453C197.709 107.744 197.432 110.044 197.165 112.269Z" fill="#141414"/>
<path d="M56.6916 159.328L52.7357 156.641C52.5952 156.542 52.4354 156.473 52.2666 156.439C52.0979 156.405 51.9239 156.408 51.756 156.446C51.5884 156.478 51.429 156.544 51.2872 156.639C51.1453 156.734 51.0239 156.857 50.9299 157L43.7161 167.604C43.6186 167.743 43.5501 167.901 43.5144 168.068C43.4788 168.234 43.4769 168.406 43.5088 168.573C43.5407 168.741 43.6057 168.9 43.7001 169.042C43.7944 169.183 43.9162 169.305 44.0582 169.399C44.2736 169.55 44.5303 169.631 44.7935 169.631C44.8716 169.631 44.9494 169.624 45.0262 169.61C45.1963 169.584 45.3589 169.521 45.5036 169.428C45.6482 169.335 45.7718 169.212 45.8663 169.068L48.1933 165.648L51.0556 167.594C52.1958 168.372 53.2802 168.819 54.2762 168.926C55.1919 169.056 56.1254 168.901 56.9499 168.481C57.6883 168.076 58.3201 167.502 58.7934 166.805C59.2667 166.108 59.568 165.309 59.6725 164.473C59.7592 163.557 59.5635 162.636 59.1117 161.835C58.6463 160.946 57.8319 160.103 56.6916 159.328ZM56.6404 165.339C56.4598 165.619 56.2208 165.858 55.9397 166.039C55.6587 166.219 55.3421 166.337 55.0115 166.384C54.3134 166.493 53.4152 166.17 52.3168 165.425L49.6105 163.583L52.4239 159.453L55.1302 161.295C56.2262 162.04 56.8592 162.764 57.0127 163.448C57.0892 163.772 57.0955 164.108 57.0312 164.434C56.967 164.76 56.8338 165.068 56.6404 165.339Z" fill="#141414"/>
<path d="M70.7982 180.467L64.7595 178.062L69.018 167.37C69.0838 167.21 69.1164 167.038 69.114 166.865C69.1116 166.692 69.0742 166.522 69.004 166.364C68.9367 166.205 68.8386 166.062 68.7153 165.942C68.5921 165.822 68.4463 165.727 68.2863 165.664C68.1263 165.601 67.9553 165.57 67.7833 165.573C67.6113 165.577 67.4417 165.615 67.2843 165.684C67.1285 165.753 66.9877 165.852 66.8703 165.975C66.7529 166.099 66.6611 166.244 66.6002 166.403L61.995 177.967C61.8321 178.378 61.8386 178.836 62.013 179.243C62.1875 179.649 62.5157 179.969 62.9258 180.134L69.8324 182.888C69.99 182.952 70.1582 182.985 70.3281 182.986C70.499 182.985 70.6683 182.951 70.8261 182.886C70.9857 182.822 71.1302 182.726 71.2505 182.603C71.3707 182.481 71.4639 182.334 71.5242 182.173C71.6526 181.85 71.6476 181.488 71.5102 181.169C71.3728 180.849 71.1142 180.596 70.7912 180.467H70.7982Z" fill="#141414"/>
<path d="M89.233 172.665C89.1525 172.356 88.9984 172.072 88.7838 171.836C88.5462 171.582 88.2281 171.417 87.8833 171.37L87.6762 171.338C87.3353 171.276 86.9835 171.333 86.6802 171.501C86.4012 171.66 86.1655 171.886 85.9937 172.157L78.7613 183.797C78.6554 183.957 78.5818 184.136 78.5449 184.323C78.5152 184.489 78.5189 184.659 78.5557 184.823C78.5924 184.988 78.6616 185.143 78.759 185.28C78.8583 185.422 78.9862 185.542 79.1345 185.631C79.2828 185.721 79.4482 185.778 79.62 185.799C79.874 185.841 80.1346 185.807 80.3693 185.702C80.6085 185.593 80.8113 185.418 80.9534 185.196L82.6824 182.377L89.2586 183.411L90.0451 186.638C90.1125 186.886 90.2498 187.11 90.4407 187.282C90.6314 187.456 90.8696 187.569 91.1248 187.606C91.2017 187.619 91.2796 187.625 91.3575 187.625C91.6273 187.627 91.8902 187.539 92.1045 187.375C92.2391 187.275 92.3522 187.148 92.4373 187.003C92.5224 186.858 92.5778 186.697 92.6002 186.53C92.6237 186.339 92.6087 186.145 92.556 185.96L89.233 172.665ZM88.6256 180.843L84.0716 180.128L87.2084 175.007L88.6256 180.843Z" fill="#141414"/>
<path d="M111.552 180.405C111.004 179.852 110.328 179.442 109.583 179.213C108.674 178.949 107.748 178.746 106.812 178.604C106.133 178.507 105.459 178.375 104.794 178.208C104.37 178.102 103.973 177.907 103.631 177.635C103.493 177.519 103.381 177.375 103.303 177.212C103.225 177.05 103.182 176.872 103.177 176.692C103.151 176.393 103.208 176.093 103.342 175.824C103.476 175.555 103.681 175.329 103.936 175.17C104.538 174.741 105.367 174.485 106.395 174.408C107.496 174.326 108.602 174.428 109.669 174.709C109.818 174.763 109.976 174.788 110.135 174.783C110.301 174.774 110.463 174.728 110.608 174.647C110.754 174.566 110.879 174.454 110.975 174.318C111.161 174.074 111.25 173.769 111.226 173.463C111.219 173.207 111.127 172.959 110.965 172.76C110.803 172.561 110.58 172.421 110.33 172.362C108.922 171.973 107.455 171.839 106 171.966C104.938 172.018 103.9 172.302 102.96 172.8C102.181 173.219 101.536 173.85 101.099 174.62C100.698 175.354 100.521 176.189 100.589 177.023C100.664 178.015 101.006 178.804 101.611 179.369C102.188 179.906 102.879 180.304 103.633 180.533C104.566 180.805 105.514 181.023 106.472 181.188C107.326 181.346 107.992 181.488 108.45 181.611C108.842 181.709 109.211 181.883 109.537 182.123C109.657 182.212 109.757 182.325 109.828 182.457C109.899 182.588 109.94 182.733 109.949 182.882C109.986 183.39 110.1 184.938 106.791 185.18C105.423 185.29 104.048 185.108 102.756 184.647C102.582 184.584 102.396 184.559 102.211 184.573C102.047 184.582 101.887 184.626 101.742 184.702C101.596 184.778 101.468 184.884 101.366 185.013C101.187 185.235 101.091 185.513 101.093 185.799C101.095 186.085 101.196 186.361 101.378 186.582C101.534 186.778 101.743 186.926 101.981 187.008C103.321 187.472 104.73 187.708 106.149 187.706C106.484 187.706 106.823 187.692 107.163 187.669C108.171 187.612 109.157 187.351 110.06 186.901C110.841 186.513 111.501 185.919 111.968 185.182C112.403 184.477 112.602 183.651 112.534 182.824C112.464 181.802 112.131 180.985 111.552 180.405Z" fill="#141414"/>
<path d="M127.578 168.066C127.435 167.985 127.276 167.933 127.113 167.915C126.949 167.896 126.783 167.912 126.626 167.959L116.601 170.839C116.442 170.881 116.294 170.956 116.166 171.059C116.038 171.161 115.932 171.289 115.856 171.435C115.702 171.725 115.668 172.064 115.763 172.378C115.805 172.535 115.878 172.682 115.978 172.81C116.078 172.938 116.203 173.044 116.345 173.123C116.487 173.202 116.644 173.251 116.805 173.268C116.967 173.284 117.13 173.268 117.285 173.221L121.055 172.138L124.269 183.343C124.313 183.507 124.39 183.661 124.496 183.795C124.601 183.928 124.733 184.039 124.883 184.12C125.068 184.227 125.279 184.283 125.493 184.283C125.619 184.282 125.746 184.264 125.867 184.227C126.032 184.183 126.186 184.106 126.321 184.001C126.455 183.897 126.568 183.766 126.651 183.617C126.739 183.469 126.794 183.304 126.815 183.133C126.836 182.962 126.821 182.789 126.772 182.623L123.559 171.419L127.31 170.343C127.467 170.301 127.614 170.228 127.743 170.128C127.871 170.029 127.979 169.905 128.059 169.763C128.142 169.622 128.195 169.465 128.214 169.303C128.233 169.14 128.219 168.975 128.171 168.818C128.128 168.659 128.054 168.511 127.952 168.381C127.85 168.252 127.722 168.145 127.578 168.066Z" fill="#141414"/>
<path d="M135.957 165.04C135.802 164.729 135.531 164.49 135.202 164.377C134.873 164.264 134.513 164.286 134.2 164.438C134.044 164.511 133.905 164.616 133.792 164.745C133.679 164.875 133.594 165.027 133.544 165.192C133.489 165.354 133.468 165.525 133.48 165.696C133.493 165.867 133.539 166.033 133.616 166.186L139.287 177.803C139.359 177.957 139.461 178.095 139.588 178.208C139.715 178.321 139.863 178.407 140.024 178.461C140.35 178.569 140.705 178.545 141.014 178.395C141.323 178.245 141.561 177.981 141.679 177.658C141.74 177.497 141.767 177.324 141.757 177.152C141.748 176.979 141.702 176.811 141.623 176.657L135.957 165.04Z" fill="#141414"/>
<path d="M159.039 163.06C158.884 163.037 158.725 163.046 158.573 163.086C158.421 163.126 158.279 163.196 158.155 163.293C158.004 163.402 157.882 163.546 157.797 163.712C157.528 164.278 157.202 164.815 156.824 165.316C156.418 165.827 155.942 166.279 155.411 166.659C154.62 167.285 153.675 167.687 152.675 167.823C151.8 167.923 150.914 167.761 150.131 167.357C149.295 166.896 148.567 166.26 147.998 165.493C147.429 164.726 147.031 163.845 146.832 162.911C146.677 162.047 146.78 161.156 147.13 160.35C147.55 159.432 148.209 158.643 149.038 158.066C149.556 157.676 150.125 157.36 150.729 157.126C151.319 156.91 151.929 156.754 152.549 156.66C152.732 156.624 152.904 156.544 153.049 156.427C153.175 156.338 153.281 156.226 153.362 156.095C153.444 155.965 153.498 155.82 153.523 155.669C153.549 155.517 153.543 155.362 153.508 155.213C153.473 155.063 153.409 154.922 153.319 154.798C153.193 154.613 153.016 154.467 152.81 154.378C152.604 154.289 152.378 154.26 152.156 154.295C151.324 154.396 150.505 154.589 149.715 154.87C148.881 155.188 148.097 155.625 147.388 156.167C146.277 156.967 145.388 158.036 144.805 159.274C144.25 160.478 144.051 161.815 144.232 163.127C144.475 164.553 145.05 165.902 145.912 167.063C146.774 168.225 147.897 169.166 149.191 169.811C150.394 170.369 151.732 170.567 153.045 170.381C154.399 170.18 155.68 169.638 156.768 168.805C157.494 168.281 158.14 167.653 158.686 166.943C159.182 166.27 159.602 165.544 159.937 164.778C160.038 164.575 160.078 164.348 160.053 164.123C160.028 163.898 159.94 163.685 159.798 163.509C159.708 163.387 159.595 163.284 159.464 163.207C159.334 163.13 159.189 163.08 159.039 163.06Z" fill="#141414"/>
<path d="M41.0795 43.0533C40.4254 42.5212 39.6514 42.1568 38.8246 41.9918C37.9184 41.8328 36.9852 41.9554 36.1508 42.3433C35.22 42.7367 34.3241 43.484 33.4631 44.5572L30.4729 48.282C30.3629 48.4144 30.2818 48.5683 30.2349 48.7339C30.188 48.8995 30.1763 49.0731 30.2006 49.2435C30.2204 49.4131 30.2738 49.5771 30.3577 49.7258C30.4416 49.8745 30.5543 50.005 30.6893 50.1095L40.6839 58.1365C40.9087 58.3238 41.1918 58.4267 41.4844 58.4275C41.5347 58.4309 41.5853 58.4309 41.6356 58.4275C41.8049 58.4105 41.9689 58.3592 42.1177 58.2767C42.2666 58.1943 42.3971 58.0824 42.5013 57.9479C42.7198 57.6813 42.8235 57.3389 42.7898 56.9958C42.7774 56.8245 42.7296 56.6577 42.6495 56.5059C42.5694 56.354 42.4587 56.2204 42.3244 56.1135L39.1015 53.527L41.268 50.8242C42.1313 49.7487 42.6642 48.7034 42.848 47.7187C43.0465 46.8204 42.9653 45.8829 42.6153 45.0321C42.2725 44.257 41.7452 43.5776 41.0795 43.0533ZM40.3604 46.7781C40.414 47.4765 40.0207 48.3542 39.1969 49.3878L37.1468 51.9486L33.249 48.8175L35.2992 46.2567C36.1276 45.2207 36.9001 44.648 37.5936 44.5502C37.9227 44.5075 38.257 44.5319 38.5764 44.6218C38.8958 44.7118 39.1937 44.8654 39.4522 45.0736C39.7107 45.2817 39.9244 45.54 40.0805 45.833C40.2366 46.1259 40.3318 46.4474 40.3604 46.7781Z" fill="#141414"/>
<path d="M63.0845 38.0869C63.1127 37.9193 63.1067 37.7476 63.0667 37.5824C63.0267 37.4171 62.9536 37.2617 62.8518 37.1255L62.2817 36.3479C61.665 35.5195 60.9034 34.8096 60.0338 34.2527C59.38 33.7974 58.581 33.6001 57.7905 33.6987C58.0709 33.1132 58.2066 32.4689 58.1861 31.82C58.1575 30.9321 57.8597 30.0738 57.3321 29.3593C56.9687 28.832 56.4882 28.396 55.9282 28.0854C55.3683 27.7748 54.7441 27.5981 54.1045 27.569C52.8014 27.4945 51.3307 28.0346 49.7367 29.1986L45.797 32.0784C45.6561 32.1774 45.5374 32.3047 45.4484 32.4522C45.3595 32.5997 45.3022 32.7642 45.2804 32.9351C45.2557 33.1041 45.2648 33.2763 45.3071 33.4417C45.3495 33.6072 45.4242 33.7626 45.5271 33.8989L53.0876 44.2538C53.1851 44.3936 53.3101 44.512 53.4549 44.6016C53.5998 44.6913 53.7615 44.7504 53.93 44.7753C53.9986 44.7853 54.0678 44.7907 54.1371 44.7916C54.4096 44.7904 54.6742 44.7005 54.8911 44.5355C55.0304 44.4369 55.1488 44.3117 55.2395 44.167C55.3302 44.0224 55.3913 43.8612 55.4193 43.6928C55.4503 43.5229 55.4457 43.3485 55.4056 43.1806C55.3656 43.0126 55.291 42.8549 55.1866 42.7174L52.5291 39.0787L55.7497 36.7274C56.4478 36.2176 57.0878 36.0011 57.6463 36.0849C58.1972 36.1525 58.7148 36.3854 59.1309 36.753C59.5939 37.1742 60.0119 37.6423 60.3782 38.1498L60.7482 38.6573C60.8446 38.7987 60.9688 38.9189 61.1132 39.0106C61.2577 39.1022 61.4193 39.1634 61.5882 39.1904C61.7614 39.2155 61.9378 39.205 62.1067 39.1593C62.2756 39.1137 62.4333 39.0339 62.5702 38.925C62.708 38.8272 62.8245 38.7025 62.9129 38.5585C63.0012 38.4145 63.0596 38.2541 63.0845 38.0869ZM55.5961 32.9304C55.3332 33.6591 54.7375 34.3668 53.8299 35.0256L51.0515 37.0556L48.3242 33.3308L51.0189 31.3637C52.1359 30.5465 53.0434 30.1298 53.7206 30.1368C54.0378 30.1385 54.3495 30.2194 54.6275 30.3723C54.9055 30.5252 55.1409 30.7451 55.3122 31.0121C55.5233 31.2791 55.6606 31.5967 55.7104 31.9333C55.7602 32.27 55.7208 32.6138 55.5961 32.9304Z" fill="#141414"/>
<path d="M69.3811 33.6229C69.4392 33.7832 69.5294 33.9299 69.6463 34.054C69.7631 34.1781 69.9041 34.277 70.0606 34.3446C70.222 34.4156 70.3962 34.4529 70.5725 34.454C70.7367 34.4533 70.8994 34.4217 71.0519 34.3609L78.8823 31.3344C79.0353 31.2786 79.1757 31.1931 79.2955 31.0829C79.4153 30.9726 79.5121 30.8397 79.5804 30.6919C79.6806 30.4661 79.7115 30.2156 79.6692 29.9721C79.6269 29.7287 79.5133 29.5034 79.3428 29.3246C79.1723 29.1458 78.9527 29.0217 78.7116 28.968C78.4705 28.9142 78.219 28.9333 77.9888 29.0227L71.3823 31.5835L69.9535 27.8983L75.8549 25.5936C76.0078 25.5378 76.1482 25.4523 76.268 25.342C76.3878 25.2317 76.4847 25.0989 76.553 24.9511C76.6531 24.7252 76.684 24.4747 76.6417 24.2313C76.5994 23.9879 76.4858 23.7625 76.3153 23.5837C76.1449 23.4049 75.9252 23.2808 75.6841 23.2271C75.4431 23.1734 75.1915 23.1924 74.9613 23.2819L69.0506 25.5773L67.6288 21.9107L74.2353 19.3499C74.3883 19.2936 74.5287 19.2076 74.6485 19.097C74.7683 18.9863 74.8651 18.8531 74.9334 18.705C75.003 18.5562 75.0413 18.3947 75.0457 18.2304C75.0501 18.0662 75.0206 17.9028 74.959 17.7505C74.9 17.5971 74.8113 17.4569 74.698 17.338C74.5847 17.219 74.4489 17.1237 74.2986 17.0575C74.1482 16.9913 73.9863 16.9555 73.8221 16.9522C73.6578 16.9488 73.4946 16.9781 73.3417 17.0381L65.5112 20.0646C65.3496 20.1244 65.2024 20.2175 65.0789 20.3378C64.9555 20.4581 64.8586 20.6029 64.7945 20.763C64.7264 20.9195 64.6903 21.0881 64.6883 21.2588C64.6863 21.4295 64.7185 21.5989 64.7829 21.757L69.3811 33.6229Z" fill="#141414"/>
<path d="M98.0599 24.9665C97.9356 24.8696 97.7929 24.799 97.6405 24.759C97.4881 24.719 97.3292 24.7104 97.1733 24.7337C96.9873 24.7522 96.8085 24.8153 96.6521 24.9176C96.1355 25.2715 95.5843 25.5718 95.0068 25.8138C94.3987 26.0521 93.7604 26.2049 93.1103 26.2678C92.1118 26.412 91.0929 26.2858 90.1596 25.9023C89.351 25.5516 88.6649 24.9681 88.1886 24.2261C87.6963 23.408 87.386 22.4934 87.2788 21.5445C87.1715 20.5957 87.27 19.6348 87.5673 18.7274C87.8658 17.8982 88.4035 17.1763 89.1125 16.6531C89.9359 16.0712 90.9002 15.7207 91.9049 15.6381C92.5526 15.5536 93.209 15.5599 93.855 15.6568C94.4732 15.7647 95.0789 15.9347 95.6631 16.1643C95.8373 16.227 96.0239 16.2477 96.2076 16.2248C96.3667 16.2121 96.5214 16.1661 96.6617 16.0899C96.8019 16.0138 96.9247 15.909 97.0221 15.7825C97.1138 15.6666 97.1816 15.5337 97.2216 15.3915C97.2615 15.2492 97.2728 15.1004 97.2548 14.9537C97.2397 14.7301 97.1618 14.5154 97.03 14.3342C96.8983 14.1529 96.7181 14.0126 96.5101 13.9294C95.7391 13.5982 94.9336 13.3538 94.1086 13.2007C93.2267 13.0561 92.3286 13.0388 91.4418 13.1495C90.0796 13.2862 88.7745 13.7668 87.6488 14.5463C86.5653 15.3098 85.7224 16.3671 85.2194 17.5937C84.6831 18.9414 84.5028 20.4046 84.6958 21.8423C84.8278 23.2865 85.3304 24.6722 86.1548 25.8651C86.9183 26.9491 87.9761 27.7917 89.2032 28.2932C90.1448 28.6709 91.1511 28.8607 92.1655 28.8519C93.4088 28.8499 94.6404 28.6129 95.7957 28.1535C96.5634 27.8203 97.2916 27.4025 97.9668 26.908C98.1543 26.783 98.3023 26.6071 98.3934 26.4009C98.4845 26.1948 98.5149 25.9669 98.4811 25.744C98.4671 25.5926 98.4225 25.4457 98.3501 25.3121C98.2777 25.1784 98.179 25.0608 98.0599 24.9665Z" fill="#141414"/>
<path d="M106.632 28.6823H106.769C107.066 28.683 107.355 28.581 107.586 28.3936C107.72 28.2869 107.831 28.1534 107.911 28.0015C107.992 27.8496 108.039 27.6826 108.051 27.5113L109.261 14.6514C109.294 14.3047 109.187 13.9594 108.965 13.6913C108.743 13.4232 108.423 13.2544 108.077 13.222C107.905 13.2025 107.732 13.2193 107.567 13.2715C107.403 13.3236 107.252 13.4099 107.123 13.5246C106.992 13.6345 106.885 13.7694 106.807 13.9213C106.729 14.0731 106.682 14.239 106.669 14.4093L105.466 27.2808C105.45 27.4491 105.467 27.6189 105.517 27.7803C105.567 27.9418 105.649 28.0918 105.757 28.2217C105.865 28.3515 105.998 28.4587 106.147 28.5369C106.297 28.6152 106.461 28.663 106.629 28.6776L106.632 28.6823Z" fill="#141414"/>
<path d="M130.5 19.2838C129.533 18.2655 128.329 17.5021 126.996 17.0615C125.663 16.6208 124.242 16.5165 122.858 16.7579C121.566 17.0268 120.377 17.6564 119.428 18.5738C118.421 19.5646 117.664 20.7817 117.221 22.124C116.778 23.4663 116.662 24.8949 116.883 26.2911C117.1 27.5901 117.681 28.8009 118.558 29.7831C119.508 30.8243 120.72 31.5919 122.067 32.0064C122.925 32.3035 123.826 32.4607 124.734 32.472C125.227 32.4728 125.72 32.4213 126.202 32.3183C127.495 32.0393 128.683 31.4029 129.632 30.4815C130.643 29.5001 131.401 28.2891 131.843 26.9516C132.285 25.6141 132.397 24.1895 132.171 22.7991C131.955 21.4937 131.376 20.2754 130.5 19.2838ZM129.374 26.1352C129.087 27.0519 128.59 27.8889 127.922 28.5796C127.302 29.2082 126.516 29.6475 125.655 29.846C124.716 30.0211 123.747 29.9557 122.839 29.6557C121.932 29.3557 121.114 28.831 120.464 28.1303C119.895 27.4586 119.528 26.6393 119.405 25.7673C119.295 24.8147 119.393 23.8493 119.694 22.9387C119.994 22.028 120.49 21.1938 121.146 20.4944C121.763 19.8658 122.545 19.4257 123.403 19.2256C123.738 19.1458 124.082 19.106 124.427 19.1069C125.038 19.1141 125.645 19.2186 126.223 19.4165C127.14 19.693 127.961 20.2194 128.594 20.9367C129.169 21.6069 129.54 22.4277 129.663 23.302C129.788 24.256 129.689 25.2261 129.374 26.1352Z" fill="#141414"/>
<path d="M146.292 42.071C147.392 41.6277 148.331 40.8584 148.982 39.8664L153.729 33.0895C153.928 32.8038 154.006 32.4507 153.945 32.1077C153.885 31.7646 153.691 31.4597 153.405 31.2597C153.266 31.159 153.107 31.0884 152.939 31.0523C152.77 31.0162 152.597 31.0155 152.428 31.0502C152.09 31.1135 151.79 31.3086 151.595 31.5926L146.813 38.423C146.438 38.9972 145.902 39.4482 145.272 39.7197C144.699 39.9528 144.071 40.0189 143.462 39.9106C142.829 39.7952 142.229 39.5442 141.703 39.1749C141.176 38.8056 140.735 38.3268 140.411 37.7711C140.101 37.2355 139.947 36.6231 139.969 36.0042C140.012 35.3187 140.255 34.6608 140.667 34.1115L145.449 27.2811C145.548 27.1401 145.619 26.9809 145.656 26.8127C145.693 26.6445 145.697 26.4705 145.668 26.3008C145.638 26.131 145.575 25.9688 145.482 25.8235C145.39 25.6781 145.269 25.5524 145.128 25.4537C144.989 25.3524 144.83 25.2815 144.662 25.2454C144.493 25.2093 144.319 25.2089 144.151 25.2441C143.983 25.2749 143.823 25.3387 143.68 25.4318C143.537 25.5249 143.414 25.6455 143.318 25.7866L138.564 32.5774C137.881 33.4782 137.483 34.5625 137.421 35.6912C137.359 36.8199 137.635 37.9415 138.215 38.9119C138.741 39.8076 139.455 40.579 140.307 41.1733C141.16 41.7675 142.13 42.1706 143.153 42.355C143.502 42.4199 143.856 42.4527 144.211 42.4528C144.922 42.4527 145.627 42.3233 146.292 42.071Z" fill="#141414"/>
<path d="M168.326 47.4602C167.817 46.0901 167.07 44.8211 166.118 43.7121C165.454 42.8813 164.617 42.2059 163.665 41.7333C162.873 41.3407 161.985 41.1793 161.105 41.2677C160.276 41.3718 159.495 41.7166 158.86 42.2595C158.158 42.7974 157.689 43.5852 157.552 44.4594C157.451 45.243 157.531 46.0393 157.785 46.7874C158.11 47.7035 158.487 48.6005 158.913 49.4739C159.283 50.2585 159.556 50.8707 159.725 51.3363C159.874 51.7119 159.948 52.1128 159.944 52.5166C159.943 52.6662 159.909 52.8137 159.844 52.9482C159.779 53.0828 159.684 53.201 159.567 53.2942C159.352 53.4999 159.086 53.6446 158.796 53.7133C158.507 53.782 158.204 53.7724 157.92 53.6853C157.289 53.4967 156.596 52.9543 155.86 52.0743C154.972 51.0282 154.316 49.8055 153.936 48.4869C153.885 48.3084 153.797 48.1426 153.678 48.0003C153.574 47.8727 153.445 47.7683 153.299 47.6941C153.153 47.6198 152.992 47.5774 152.828 47.5696C152.542 47.5555 152.26 47.6404 152.029 47.81C151.798 47.9796 151.632 48.2235 151.56 48.5008C151.489 48.7417 151.489 48.998 151.56 49.2388C152.068 50.9246 152.918 52.4874 154.057 53.8296C154.691 54.6143 155.478 55.2615 156.37 55.7316C157.049 56.0893 157.804 56.2808 158.571 56.2903C158.674 56.2903 158.776 56.2903 158.878 56.2787C159.706 56.2213 160.492 55.8988 161.122 55.3591C161.911 54.698 162.378 53.9507 162.518 53.1406C162.646 52.3729 162.584 51.5854 162.336 50.8475C162.018 49.9548 161.642 49.0838 161.21 48.2401C160.892 47.635 160.606 47.0133 160.354 46.3777C160.193 45.9733 160.121 45.5389 160.144 45.1043C160.158 44.9245 160.209 44.7495 160.295 44.591C160.38 44.4325 160.499 44.294 160.642 44.1847C160.869 43.9878 161.146 43.858 161.443 43.8098C161.739 43.7617 162.043 43.7972 162.32 43.9123C163.018 44.1451 163.716 44.6736 164.375 45.4651C165.085 46.3098 165.649 47.2674 166.043 48.2983C166.087 48.4526 166.16 48.5971 166.257 48.7243C166.362 48.8538 166.493 48.9585 166.643 49.0305C166.793 49.1026 166.957 49.1404 167.123 49.141C167.427 49.1458 167.723 49.0409 167.956 48.8454C168.164 48.6889 168.313 48.4676 168.38 48.2166C168.447 47.9655 168.428 47.6993 168.326 47.4602Z" fill="#141414"/>
<path d="M91.9689 112.364C83.8592 108.663 81.0109 106.4 78.5001 109.957C78.3046 110.232 78.8026 112.602 78.8026 112.602C78.8026 112.602 95.25 119.444 103.574 121.322C110.115 122.801 124.785 121.516 124.785 121.516L137.085 121.478C137.085 121.478 142.94 120.273 145.507 118.201C146.929 117.053 150.294 118.187 151.578 113.71C152.134 111.766 122.749 105.932 118.332 106.533C113.915 107.133 102.71 105.173 100.798 105.178C98.8848 105.182 91.7548 106.481 91.5989 108.09C91.443 109.699 92.6205 112.66 91.9689 112.364Z" fill="#AEADAD"/>
<path d="M96.1184 105.581C94.8641 106.156 75.7034 106.323 73.3135 106.221C70.9237 106.118 73.1181 109.305 74.3002 109.519C75.0169 109.65 105.292 108.588 110.369 108.802C115.505 109.035 125.853 110.579 129.055 110.458C133.325 110.297 138.812 115.125 142.433 114.671C145.226 114.322 151.932 113.812 152.723 111.906C153.366 110.355 153.954 100.184 153.745 96.4151C153.535 92.6461 147.776 86.0811 147.024 82.0467C145.812 75.5446 142.938 76.0847 139.408 76.1033C137.062 76.1173 129.311 74.923 128.206 74.8485C127.1 74.774 122.651 74.1827 121.988 74.4527C121.325 74.7228 117.965 71.7057 115.165 70.2903C110.606 67.9786 103.802 65.4015 100.57 66.775C97.7194 67.9879 89.3817 70.4602 87.1733 70.2437C84.965 70.0272 82.3913 70.4765 78.9985 70.2693C75.6057 70.0621 65.155 70.3112 65.155 70.3112C64.1637 70.3345 65.7833 74.2036 65.8973 74.9509C66.0113 75.6982 75.48 75.6912 81.002 75.4165C86.5241 75.1418 97.0585 79.011 98.6153 79.6605C96.6397 83.9813 98.1639 85.5364 98.1034 89.7501C98.0429 93.9638 97.4983 93.8637 97.368 95.1697C97.2307 96.5665 99.0691 97.4977 99.0714 98.3846C99.0737 99.2716 97.375 105.003 96.1184 105.581Z" fill="white"/>
<path d="M89.6537 77.5078C89.6537 77.5078 90.4658 80.7391 90.773 82.2174C91.0802 83.6957 90.6031 87.0713 90.2448 90.0371C89.8864 93.003 90.0121 94.0204 90.2308 94.6093C90.4496 95.1983 90.6962 99 90.6962 99.9638C90.6962 100.928 91.9272 102.215 92.1041 104.285C92.2809 106.354 94.0797 105.516 95.2409 105.449C96.4021 105.381 97.3655 104.052 98.4592 100.804C99.5529 97.5566 97.9496 97.0794 97.2957 95.9503C96.8698 95.2007 96.6651 95.2193 97.5423 92.8424C98.4196 90.4655 97.5423 89.2666 97.3934 87.4181C97.2445 85.5697 98.1637 79.6263 98.1637 79.6263L89.6537 77.5078Z" fill="#AEADAD"/>
<path d="M154.548 102.272C154.397 100.854 154.448 99.421 154.7 98.0168C154.974 96.2498 154.113 94.6063 153.352 93.1513L153.331 93.114C153.127 92.7229 152.933 92.3528 152.773 91.9989C152.47 91.3331 152.165 90.7814 151.896 90.2925C151.408 89.4691 151.009 88.5967 150.704 87.6898C150.545 87.2098 150.36 86.7388 150.15 86.279C150.094 86.1509 150.039 86.0252 149.985 85.8949C149.603 84.8846 148.995 83.9752 148.207 83.2363C147.942 82.9849 147.93 82.34 147.921 81.7673V81.6486C147.9 80.5637 147.793 79.288 147.188 78.0472C146.257 76.1289 144.761 75.186 142.625 75.1674C141.764 75.1674 141.047 75.1674 140.344 75.186C139.274 75.2047 138.264 75.221 136.93 75.1604H136.898C136.404 75.1527 135.915 75.0622 135.45 74.8927C133.214 73.88 131.404 73.908 129.47 73.9382C128.262 73.9913 127.052 73.9298 125.856 73.7543C125.803 73.7543 125.591 73.7217 125 73.6565C124.053 73.5518 121.837 73.3097 121.602 73.2422C119.594 72.5438 117.923 71.2633 116.152 69.9038L115.717 69.5709C113.732 68.0507 111.373 67.2289 109.33 66.6236C106.142 65.6808 102.791 65.4945 99.0906 66.0533C96.5612 66.4374 94.141 67.1847 91.8001 67.9157L91.7489 67.932C90.7575 68.2393 89.729 68.5559 88.7237 68.8376C87.6126 69.1497 86.4662 69.3186 85.3123 69.3404C83.6508 69.3684 81.9544 69.2752 80.3138 69.1868C78.189 69.0341 76.0574 68.996 73.9285 69.0727L72.9604 69.1216C72.495 69.1472 72.1995 69.1588 71.9552 69.1681C71.5828 69.1821 71.3129 69.1914 70.6334 69.2403H70.5845L70.538 69.2566C70.4938 69.2729 70.4519 69.2845 70.4077 69.2962C70.1401 67.8598 69.5257 65.1384 69.2442 64.2677C69.2079 64.1602 69.2035 64.0445 69.2316 63.9346C69.2597 63.8247 69.319 63.7253 69.4024 63.6484C69.6199 63.4204 69.8125 63.1699 69.9772 62.9012C70.0633 62.7731 70.1447 62.6497 70.2285 62.5426C71.2384 61.2273 70.4449 59.5698 69.8888 58.0077C69.6126 57.2321 69.1422 56.5405 68.5225 55.9988C67.9028 55.4571 67.1546 55.0835 66.3494 54.9138C63.899 54.3457 61.4626 55.2653 60.1292 57.2534C59.5242 58.159 59.6987 59.2439 59.85 60.203C59.8686 60.3101 59.8849 60.4172 59.8988 60.5219C60.2525 62.8988 61.9606 64.2467 63.7524 65.3456C64.5366 65.8275 64.6692 66.2186 64.6972 66.5096C64.7204 66.7424 64.9299 68.4604 65.0602 69.5173C64.9647 69.5015 64.8711 69.4757 64.7809 69.4405L64.6785 69.4033L64.5738 69.4289C64.4822 69.4516 64.3938 69.4861 64.3109 69.5313C64.1747 69.6077 64.0603 69.7179 63.9788 69.8511C63.8973 69.9844 63.8514 70.1364 63.8455 70.2926C63.8258 70.8796 63.9045 71.4658 64.0782 72.0269C64.1809 72.3756 64.2541 72.7322 64.2969 73.0932C64.3784 73.7729 64.6623 75.3932 65.5372 75.782C65.8077 75.899 66.0881 75.9917 66.375 76.059C66.9265 78.2077 67.3669 80.3834 67.6944 82.5775L67.7642 82.9918C67.8712 83.632 67.9783 84.2746 68.0946 84.9124C68.453 86.9176 68.816 88.9236 69.1837 90.9303C69.2558 91.3284 69.3233 91.7265 69.3908 92.1246C69.5513 93.0861 69.7189 94.0801 69.9679 95.0463C70.8266 98.3753 71.5293 101.797 72.1646 105.001C72.2005 105.196 72.2262 105.394 72.2414 105.592C71.7364 105.825 71.4572 106.151 71.4176 106.57C70.9918 108.628 72.0855 109.692 73.1001 110.255C73.1025 110.293 73.1095 110.331 73.121 110.367C73.3537 111.182 73.5585 112.015 73.7377 112.928C73.8377 113.424 73.982 113.908 74.1193 114.373L74.1728 114.55C74.319 115.008 74.4355 115.474 74.5219 115.947C75.1129 119.562 76.0507 123.11 76.9629 126.437C77.6327 129.029 78.1471 131.658 78.5034 134.31C78.7361 135.821 79.013 137.337 79.2876 138.815C79.4241 139.54 79.5583 140.265 79.6902 140.989C79.7972 141.597 79.9043 142.202 80.0137 142.81L80.0811 143.182C80.5977 146.088 81.133 149.093 81.6472 152.052C82.1336 154.846 82.9364 157.772 83.581 160.116V160.147C83.9207 160.191 84.2791 160.221 84.6421 160.249L85.2239 160.871L88.27 161.648L88.9471 160.717C89.1496 160.771 89.3474 160.829 89.5382 160.899C89.5772 160.833 89.6023 160.761 89.612 160.686C89.6216 160.61 89.6155 160.534 89.594 160.461C88.6516 157.232 87.4997 152.562 87.0902 149.133C86.9893 148.281 86.8854 147.427 86.7783 146.572C86.4722 143.941 86.0209 141.329 85.4263 138.748L85.2402 137.984C84.7748 136.108 84.3094 134.168 83.9533 132.236C83.8323 131.587 83.7206 130.914 83.6252 130.264C83.3716 128.651 83.1086 126.982 82.5618 125.376C82.4803 125.143 82.4058 124.894 82.3291 124.654C81.9497 123.371 81.6961 122.03 81.4494 120.729L81.3447 120.17C81.1423 119.109 80.9049 118.04 80.6769 117.004C80.5605 116.48 80.4442 115.956 80.3325 115.43C80.2743 115.16 80.1556 114.546 79.9997 113.701H80.016C80.1882 113.756 80.4255 113.831 80.5349 113.88C80.7687 113.983 81.008 114.073 81.2516 114.15C81.3633 114.185 81.4843 114.222 81.5867 114.264C82.0219 114.425 82.4617 114.567 82.8503 114.69C83.3157 114.841 83.7392 114.976 84.1441 115.132C84.7001 115.356 85.2438 115.61 85.7731 115.891C86.4038 116.232 87.056 116.531 87.7254 116.788C88.0931 116.918 88.4592 117.044 88.8238 117.167L88.9052 117.195C90.1432 117.616 91.3114 118.012 92.4307 118.641C92.6634 118.771 92.9077 118.901 93.1567 119.029C95.1721 120.027 97.2928 120.795 99.4792 121.32C100.468 121.576 101.467 121.786 102.444 121.935C104.217 122.235 106.019 122.323 107.812 122.195C109.639 122.044 111.959 122.112 114.216 122.177C116.12 122.233 117.914 122.286 119.487 122.216C120.15 122.186 120.913 122.216 121.719 122.235H121.751C122.7 122.285 123.651 122.285 124.6 122.235C125.026 122.19 125.455 122.19 125.882 122.235C126.77 122.315 127.664 122.321 128.553 122.254C129.172 122.221 129.97 122.254 130.757 122.268C131.62 122.293 132.511 122.319 133.256 122.268C133.739 122.242 134.224 122.251 134.706 122.293H134.731C135.059 122.319 135.36 122.337 135.695 122.337H135.723C136.063 122.336 136.402 122.314 136.74 122.272C137.63 122.159 138.513 121.998 139.385 121.788L140.288 121.574L140.754 121.46C141.168 121.327 141.571 121.162 141.959 120.966L142.127 120.889L142.329 120.799C142.941 120.531 143.539 120.23 144.119 119.898C144.484 119.695 144.861 119.486 145.282 119.274C145.426 119.204 145.573 119.136 145.717 119.078C146.233 118.869 146.773 118.726 147.325 118.652C148.391 118.523 149.405 118.114 150.262 117.467C150.644 117.168 150.984 116.82 151.274 116.431C152.068 115.421 152.717 114.304 153.201 113.114L153.257 112.97L153.271 112.923C154.304 110.218 154.8 107.92 154.783 105.902C154.799 104.688 154.721 103.474 154.548 102.272ZM65.2975 60.9363H64.6576C64.127 60.9363 63.9595 60.9037 63.7431 60.6407C63.5267 60.3776 63.5616 59.8096 63.7431 59.465C63.8238 59.2651 63.9496 59.0867 64.1108 58.9435C64.352 58.7552 64.6029 58.5796 64.8624 58.4174C64.9108 58.382 64.9679 58.3603 65.0276 58.3546H65.0811C65.159 58.3557 65.2367 58.3619 65.3138 58.3732C65.8662 58.4018 66.3891 58.6311 66.7845 59.018C66.8284 59.0615 66.8682 59.1091 66.9032 59.16C66.9274 59.2646 66.9399 59.3716 66.9404 59.479C66.9321 59.7649 66.8499 60.0439 66.7019 60.2886C66.5539 60.5334 66.345 60.7357 66.0957 60.8758C65.8315 60.9155 65.5647 60.9358 65.2975 60.9363ZM72.6277 78.6059C72.5602 78.401 72.4881 78.1938 72.4182 77.989C72.3577 77.8213 72.2996 77.6514 72.2437 77.4838C72.1183 77.1207 72.0202 76.7487 71.9505 76.371C73.3328 76.4315 74.729 76.4478 76.0949 76.4641C78.4336 76.4897 80.8491 76.5177 83.1901 76.7714C84.5505 76.9542 85.8976 77.2256 87.2228 77.5839L87.6463 77.6886L88.3607 77.8842C88.3758 77.8896 88.39 77.8975 88.4026 77.9075C88.4199 77.9575 88.4254 78.0109 88.4189 78.0635C88.4003 78.8387 88.6888 79.4859 88.9448 80.0609C89.0876 80.3513 89.203 80.6545 89.2892 80.9665L89.3055 81.041C89.6196 82.6822 89.5382 84.3002 89.4311 86.0229L89.3986 86.6398C89.352 87.5035 89.2333 88.3905 89.1193 89.2495C88.9145 90.7883 88.7005 92.3784 88.8564 94.0103C88.8889 94.3525 88.9378 94.6924 89.0006 95.023C89.2226 95.9743 89.3273 96.9492 89.3125 97.926C89.3028 98.0989 89.3028 98.2722 89.3125 98.4451C89.3553 99.17 89.4526 99.8906 89.6033 100.601C89.8565 101.736 90.2213 102.843 90.6924 103.907C90.806 104.171 90.8843 104.449 90.9251 104.733C90.9251 104.808 90.9414 104.884 90.9484 104.966C89.5196 104.994 88.0931 105.117 86.7108 105.238C84.0441 105.471 81.2842 105.704 78.6384 105.227C78.4266 105.189 78.2102 105.157 77.9915 105.131C77.8472 104.347 77.6913 103.562 77.5261 102.803C77.4051 102.212 77.2934 101.621 77.17 101.027C77.0056 100.164 76.8373 99.2995 76.6651 98.4335C76.1205 95.6702 75.5551 92.8114 75.1548 89.9828C74.9757 88.7327 74.6894 87.4989 74.4148 86.3069C74.2915 85.7761 74.1658 85.2244 74.0495 84.6773C73.9494 84.2117 73.854 83.7252 73.7586 83.2503C73.4742 81.681 73.0965 80.1302 72.6277 78.6059ZM97.0219 88.5628C97.1742 89.3701 97.2621 90.1882 97.2849 91.0095C97.3649 91.8432 97.1748 92.6807 96.7427 93.398C96.1237 94.4084 95.8281 95.2232 96.2633 96.159C96.2993 96.2366 96.3472 96.3081 96.4052 96.3709C96.4311 96.4534 96.4688 96.5318 96.5169 96.6037C96.714 96.8778 96.9302 97.1376 97.1639 97.3812C97.2057 97.4278 97.2523 97.472 97.2988 97.5163L97.3803 97.6001C98.5112 98.8013 98.5252 98.8782 97.8666 100.375L97.464 101.29C96.9986 102.331 96.5332 103.404 96.0562 104.449C96.0352 104.496 95.9189 104.545 95.5559 104.661C94.8833 104.861 94.1864 104.968 93.4848 104.978C93.2335 104.978 92.9775 104.978 92.7402 104.978C92.7402 104.798 92.7192 104.635 92.6983 104.482C92.6366 104.041 92.5177 103.609 92.3446 103.199C91.9253 102.243 91.601 101.248 91.3765 100.228C91.2444 99.6063 91.1588 98.9752 91.1206 98.3404C91.1206 98.2473 91.1206 98.1076 91.1206 98.0168C91.1439 96.8942 91.029 95.773 90.7785 94.6784C90.725 94.4061 90.6854 94.1244 90.6575 93.8427C90.5225 92.4179 90.7133 90.9979 90.9135 89.494C91.0275 88.6419 91.1462 87.6781 91.2067 86.7376L91.2416 86.109C91.3416 84.2816 91.4394 82.5565 91.081 80.6918L91.0577 80.5824C90.9457 80.1463 90.7898 79.7228 90.5923 79.3182C90.4458 79.021 90.3319 78.7088 90.2526 78.387L91.0857 78.6012C92.1933 78.8852 93.3359 79.1786 94.4808 79.4021C95.3255 79.565 96.4122 79.7838 97.5315 80.0679C97.1952 81.1054 96.9537 82.1713 96.8101 83.2526C96.5797 85.0219 96.6513 86.8175 97.0219 88.5628ZM149.883 115.353C149.696 115.605 149.481 115.835 149.243 116.038C148.605 116.528 147.844 116.833 147.044 116.918C146.359 117.014 145.689 117.194 145.049 117.456C144.868 117.53 144.689 117.612 144.514 117.688C144.049 117.921 143.653 118.135 143.253 118.357C142.725 118.659 142.182 118.933 141.624 119.176L141.338 119.304L141.189 119.372C140.577 119.653 140.384 119.73 140.33 119.744L139.99 119.826C139.616 119.919 139.292 119.998 138.976 120.058C138.164 120.255 137.341 120.406 136.512 120.51C136.247 120.544 135.98 120.562 135.713 120.564C135.425 120.564 135.16 120.545 134.878 120.526H134.852C134.284 120.477 133.714 120.468 133.144 120.498C132.481 120.538 131.629 120.515 130.803 120.498C129.977 120.482 129.151 120.449 128.455 120.487C127.647 120.55 126.834 120.544 126.026 120.47C125.504 120.419 124.978 120.419 124.455 120.47C123.659 120.533 122.656 120.501 121.77 120.47C120.965 120.445 120.141 120.422 119.403 120.454C117.907 120.519 116.145 120.468 114.265 120.412C111.971 120.345 109.599 120.275 107.659 120.438C106.009 120.554 104.35 120.476 102.718 120.205C101.788 120.058 100.857 119.863 99.926 119.623C97.8682 119.132 95.8723 118.41 93.9758 117.472C93.7431 117.356 93.5244 117.239 93.308 117.113C92.0811 116.469 90.7973 115.94 89.473 115.533C89.0937 115.405 88.7121 115.274 88.3305 115.137C87.733 114.908 87.1508 114.64 86.5875 114.336C86.0045 114.022 85.4039 113.741 84.7887 113.496C84.3466 113.326 83.8975 113.181 83.4646 113.042L83.3716 113.011C82.9876 112.888 82.592 112.762 82.2197 112.625C82.094 112.576 81.9637 112.534 81.8148 112.483C81.6362 112.428 81.4607 112.363 81.2889 112.29C81.0491 112.188 80.8036 112.101 80.5535 112.029C80.3627 111.969 80.144 111.901 80.0416 111.854C79.9134 111.797 79.7821 111.746 79.6483 111.703H79.6344C79.5413 111.184 79.4528 110.693 79.383 110.29H80.1277H80.1719C80.8188 110.29 81.4867 110.304 82.1545 110.274C82.5199 110.257 82.8526 110.232 83.1668 110.197C83.5703 110.169 83.9749 110.162 84.3792 110.176C84.4748 110.255 84.5786 110.324 84.6887 110.381C84.9214 110.53 85.3868 110.83 85.9871 111.163C86.8249 111.629 88.021 112.19 88.9564 112.285H88.9844C89.0216 112.285 89.0588 112.285 89.1054 112.301C89.9943 112.42 90.7762 112.562 91.3765 113.058L91.4091 113.081C91.4297 113.098 91.4515 113.112 91.4743 113.126C91.4964 113.141 91.5198 113.154 91.5441 113.165L91.5976 113.193L91.6418 113.209L91.7349 113.237H91.7884C91.8429 113.248 91.8982 113.253 91.9536 113.254C92.0324 113.252 92.1106 113.24 92.1863 113.219C92.2086 113.214 92.2304 113.207 92.2515 113.198C92.3074 113.178 92.3611 113.153 92.4121 113.123L92.4679 113.088C92.5189 113.052 92.5664 113.01 92.6099 112.965L92.6471 112.925C92.692 112.871 92.7296 112.81 92.7588 112.746C92.7688 112.732 92.7767 112.716 92.7821 112.7L92.8053 112.641C92.8053 112.63 92.8053 112.62 92.8053 112.609C93.0613 111.91 92.9031 111.163 92.7634 110.502C92.7216 110.299 92.6773 110.09 92.6518 109.911V109.89L93.3824 109.873C94.3365 109.85 95.2906 109.829 96.247 109.799C97.3267 109.764 98.4251 109.71 99.4862 109.659H99.6235C102.013 109.54 104.485 109.426 106.889 109.515C109.681 109.622 112.646 109.801 115.529 110.381C118.787 111.033 121.493 111.342 124.06 111.356C125.811 111.339 127.562 111.417 129.305 111.589C130.777 111.791 132.233 112.099 133.661 112.509C134.5 112.752 135.321 113.052 136.118 113.407C136.949 113.752 137.98 114.18 139.409 114.681C139.495 114.711 139.618 114.762 139.767 114.825L139.797 114.839C140.495 115.125 141.526 115.561 142.432 115.561C143.798 115.583 145.157 115.341 146.432 114.848L146.49 114.827C147.556 114.362 148.817 114.362 149.941 114.345C150.174 114.345 150.369 114.345 150.562 114.345C150.354 114.693 150.127 115.03 149.883 115.353ZM90.8925 110.174C90.9251 110.406 90.9763 110.66 91.0252 110.893C91.0368 110.947 91.0508 111.084 91.0647 111.228C90.5269 110.989 89.9582 110.827 89.3753 110.746C89.3032 110.746 89.2287 110.728 89.1589 110.721C88.5317 110.601 87.9277 110.381 87.3694 110.071C87.3707 110.056 87.3707 110.042 87.3694 110.027C88.1094 109.836 88.9332 109.873 89.8128 109.913C90.1525 109.927 90.5109 109.943 90.8553 109.943C90.8553 110.011 90.8692 110.078 90.8785 110.148L90.8925 110.174ZM151.567 112.427C151.482 112.457 151.394 112.478 151.304 112.49C150.858 112.538 150.409 112.556 149.959 112.546C148.733 112.546 147.207 112.56 145.815 113.172C144.736 113.586 143.587 113.787 142.432 113.763C141.91 113.763 141 113.382 140.498 113.172C140.305 113.091 140.153 113.028 140.032 112.981C138.683 112.516 137.705 112.111 136.865 111.759H136.837C135.965 111.371 135.067 111.044 134.15 110.781C132.64 110.35 131.102 110.027 129.547 109.815C127.737 109.631 125.918 109.548 124.099 109.566C121.347 109.521 118.607 109.209 115.915 108.635C112.911 108.032 109.848 107.846 106.989 107.734C106.36 107.708 105.732 107.699 105.101 107.699C103.24 107.699 101.359 107.79 99.5281 107.881H99.4909C98.4158 107.934 97.3081 107.988 96.233 108.023C95.3325 108.05 94.4342 108.071 93.5337 108.092L92.9403 108.106C92.4982 108.106 92.0584 108.125 91.6185 108.139H91.2043C90.7948 108.151 90.3782 108.139 89.9384 108.111H89.9105C88.861 108.064 87.7766 108.016 86.6922 108.355C86.3055 108.469 85.8979 108.492 85.5008 108.423L85.3123 108.404C85.1308 108.39 84.933 108.374 84.7073 108.372H84.5514C84.0307 108.355 83.5095 108.365 82.9899 108.402C82.706 108.435 82.4152 108.458 82.0987 108.472C81.4657 108.5 80.8095 108.49 80.1556 108.472C79.383 108.472 78.5849 108.453 77.782 108.507C77.2075 108.562 76.6399 108.675 76.088 108.844H76.0554L75.8809 108.891L75.6807 108.944C75.4648 109.003 75.2457 109.05 75.0245 109.084L74.8942 109.04C73.3491 108.528 73.0489 107.976 73.1536 107.177C73.2048 107.161 73.263 107.145 73.3235 107.131L73.4282 107.11L73.7842 107.07C74.8534 106.921 75.9323 106.853 77.0118 106.866C77.452 106.879 77.8907 106.925 78.3242 107.003C81.2074 107.527 84.086 107.278 86.8737 107.035C88.3374 106.91 89.8547 106.777 91.3323 106.768C91.6069 106.768 91.8815 106.768 92.1817 106.768C92.6308 106.768 93.0962 106.768 93.5639 106.768C94.4315 106.754 95.2929 106.62 96.1237 106.37C96.6403 106.207 97.3454 105.981 97.7037 105.194C98.2064 104.098 98.6974 102.98 99.1744 101.891L99.5258 101.094C100.468 98.9503 100.315 98.068 98.7067 96.3569C98.6694 96.3173 98.6322 96.2778 98.5927 96.2405L98.5577 96.2079L98.4903 96.1381C98.3174 95.9608 98.158 95.7709 98.0132 95.5701C97.9899 95.5398 97.9667 95.5095 97.9411 95.4816C97.9312 95.4507 97.9196 95.4203 97.9062 95.3908C97.8573 95.2884 97.7922 95.158 98.2878 94.3385C98.9181 93.3142 99.2043 92.1151 99.1046 90.9164C99.0806 89.9978 98.9802 89.0829 98.8044 88.181C98.4762 86.6354 98.4124 85.0453 98.6159 83.4784C98.7459 82.4856 98.9695 81.5074 99.2838 80.5567H99.3117L99.3978 80.5847C99.7608 80.7011 99.8818 80.7407 100.443 81.339C100.527 81.4291 100.629 81.501 100.742 81.5503C100.856 81.5995 100.978 81.625 101.101 81.6253C101.277 81.6246 101.449 81.5725 101.596 81.4754C101.743 81.3783 101.858 81.2404 101.927 81.0786C101.997 80.9169 102.018 80.7383 101.987 80.565C101.956 80.3916 101.876 80.231 101.755 80.1028C100.917 79.2042 100.538 79.0529 99.9447 78.8643L99.8562 78.834C99.5444 78.7339 99.2279 78.6408 98.9254 78.5547C97.4594 78.138 95.9724 77.833 94.8415 77.6118C93.7105 77.3907 92.6261 77.1113 91.5487 76.8343L91.4999 76.8226L90.2665 76.5083L89.3125 76.2499L88.9634 76.1545C88.8306 76.1037 88.6945 76.0617 88.5562 76.0288L87.6626 75.8099C86.2646 75.4348 84.8436 75.1509 83.4088 74.9602C80.9817 74.6972 78.522 74.6692 76.1322 74.6413C75.5388 74.6413 74.7778 74.6017 74.0379 74.5714C72.9651 74.5249 71.9435 74.4807 71.3711 74.5086C71.1128 74.5202 70.9941 74.5295 70.9057 74.5365C70.7754 74.5365 70.7311 74.5482 70.3216 74.5482H69.8236H69.1464C68.8742 74.5482 68.5949 74.5482 68.3157 74.5179C67.6752 74.4799 67.0416 74.365 66.4285 74.1757C66.268 73.754 66.1578 73.3149 66.1004 72.8673C66.046 72.4128 65.9542 71.9635 65.8258 71.5241L65.7676 71.3076C66.1783 71.3675 66.5946 71.3784 67.0079 71.3402C67.6153 71.275 68.2226 71.2191 68.816 71.1726C70.2308 71.0608 71.6666 70.9863 73.0558 70.9141L74.0239 70.8629C76.0885 70.7902 78.1556 70.8283 80.2161 70.977C81.8869 71.0678 83.6112 71.1609 85.3356 71.1353C86.6429 71.1095 87.9417 70.9178 89.2008 70.5649C90.2456 70.2739 91.2951 69.9504 92.3027 69.6337L92.3516 69.6198C94.6251 68.9214 96.9754 68.1904 99.3606 67.8295C102.802 67.3104 105.9 67.4803 108.829 68.3464C110.714 68.9027 112.881 69.6524 114.633 70.9956L115.066 71.3262C116.299 72.2737 119.143 73.9662 120.841 74.9765C121.507 75.37 122.135 75.7448 122.21 75.8006C122.541 76.0996 122.893 76.3757 123.261 76.6271L123.531 76.8226C124.117 77.2709 124.679 77.7488 125.216 78.2543C126.059 79.0179 126.931 79.8071 127.776 80.2704L127.836 80.303L129.465 81.197C129.598 81.2695 129.747 81.3064 129.898 81.304C130.059 81.3049 130.218 81.262 130.357 81.18C130.496 81.0981 130.61 80.98 130.687 80.8384C130.801 80.6279 130.827 80.3806 130.759 80.151C130.691 79.9213 130.534 79.7281 130.324 79.6139L129.039 78.9155L128.644 78.6967C127.869 78.2706 127.029 77.5117 126.214 76.7761C125.668 76.2825 125.104 75.775 124.558 75.3653L124.755 75.4025C124.909 75.4305 125.09 75.4607 125.274 75.4887L125.57 75.5352C126.879 75.7319 128.204 75.8021 129.526 75.7448C131.313 75.7168 132.858 75.6935 134.729 76.5386C135.408 76.809 136.13 76.9541 136.861 76.967C138.257 77.0298 139.29 77.0112 140.398 76.9926C141.096 76.9809 141.794 76.9693 142.629 76.9763C144.072 76.9763 144.956 77.5466 145.589 78.8387C146.041 79.7699 146.12 80.7965 146.138 81.6835V81.7999C146.152 82.6333 146.173 83.7764 146.992 84.5516C147.595 85.1181 148.057 85.8171 148.342 86.5933C148.403 86.7353 148.463 86.8726 148.528 87.0216C148.713 87.42 148.873 87.8289 149.01 88.2462C149.353 89.2711 149.802 90.2573 150.35 91.1887C150.616 91.666 150.888 92.1595 151.153 92.7462C151.346 93.1699 151.577 93.6052 151.777 93.9893C152.44 95.2511 153.122 96.5502 152.94 97.7351C152.66 99.3086 152.606 100.914 152.782 102.503C152.951 103.649 153.029 104.806 153.015 105.965C153.013 107.783 152.545 109.899 151.567 112.427Z" fill="#141414"/>
</svg>
