<svg width="180" height="148" viewBox="0 0 180 148" fill="none" xmlns="http://www.w3.org/2000/svg">
<path d="M178.421 56.5982C178.356 56.5982 178.293 56.5801 178.24 56.5464L90.9061 0.836524C90.6403 0.667778 90.3245 0.577597 90.0011 0.578102C89.6777 0.578608 89.3622 0.669774 89.0971 0.839349L2.39175 56.5458C2.32317 56.5899 2.2383 56.6072 2.15579 56.5939C2.07328 56.5806 1.9999 56.5379 1.9518 56.4751C1.9037 56.4123 1.88481 56.3345 1.89929 56.2589C1.91377 56.1834 1.96043 56.1162 2.02901 56.0721L88.7344 0.365652C89.1056 0.128282 89.5473 0.000684247 90.0001 2.74425e-06C90.4528 -0.000678759 90.8949 0.125588 91.267 0.361839L178.601 56.0715C178.657 56.1067 178.698 56.1572 178.72 56.2155C178.741 56.2738 178.742 56.3369 178.722 56.3956C178.702 56.4544 178.662 56.5057 178.608 56.5422C178.553 56.5786 178.488 56.5982 178.421 56.5982L178.421 56.5982Z" fill="#3F3D56"/>
<path d="M7.34668 58.573L90.0873 2.40625L173.456 62.5695L94.3505 105.523L51.4031 96.5559L7.34668 58.573Z" fill="#E6E6E6"/>
<path d="M55.0283 132.053H14.1524C13.9014 132.053 13.6528 132.008 13.4208 131.92C13.1888 131.833 12.978 131.704 12.8004 131.541C12.6228 131.379 12.482 131.186 12.3858 130.974C12.2897 130.761 12.2402 130.534 12.2402 130.304C12.2402 130.074 12.2897 129.846 12.3858 129.634C12.482 129.421 12.6228 129.228 12.8004 129.066C12.978 128.904 13.1888 128.775 13.4208 128.687C13.6528 128.599 13.9014 128.554 14.1524 128.554H55.0283C55.2793 128.554 55.5279 128.599 55.7598 128.687C55.9918 128.775 56.2026 128.904 56.3802 129.066C56.5578 129.228 56.6987 129.421 56.7948 129.634C56.891 129.846 56.9404 130.074 56.9404 130.304C56.9404 130.534 56.891 130.761 56.7948 130.974C56.6987 131.186 56.5578 131.379 56.3802 131.541C56.2026 131.704 55.9918 131.833 55.7598 131.92C55.5279 132.008 55.2793 132.053 55.0283 132.053Z" fill="#FECE4E"/>
<path d="M28.8177 124.532H14.1524C13.9014 124.533 13.6528 124.488 13.4208 124.4C13.1888 124.312 12.978 124.183 12.8004 124.021C12.6228 123.858 12.482 123.665 12.3858 123.453C12.2897 123.241 12.2402 123.013 12.2402 122.783C12.2402 122.553 12.2897 122.326 12.3858 122.113C12.482 121.901 12.6228 121.708 12.8004 121.546C12.978 121.383 13.1888 121.254 13.4208 121.167C13.6528 121.079 13.9014 121.034 14.1524 121.034H28.8177C29.0687 121.034 29.3173 121.079 29.5493 121.167C29.7813 121.254 29.9921 121.383 30.1697 121.546C30.3473 121.708 30.4882 121.901 30.5843 122.113C30.6804 122.326 30.7299 122.553 30.7299 122.783C30.7299 123.013 30.6804 123.241 30.5843 123.453C30.4882 123.665 30.3473 123.858 30.1697 124.021C29.9921 124.183 29.7813 124.312 29.5493 124.4C29.3173 124.488 29.0687 124.533 28.8177 124.532Z" fill="#FECE4E"/>
<path d="M91.2511 89.8571C90.9404 89.8574 90.6327 89.8022 90.3451 89.6945L39.3164 70.3009V9.59565C39.3171 9.05885 39.5502 8.54422 39.9646 8.16464C40.379 7.78507 40.9409 7.57155 41.5269 7.57092H139.422C140.008 7.57155 140.57 7.78507 140.984 8.16464C141.398 8.54422 141.631 9.05885 141.632 9.59565V70.3433L141.536 70.3809L92.1846 89.6851C91.8891 89.7988 91.5717 89.8573 91.2511 89.8571Z" fill="white"/>
<path d="M91.2508 90.0016C90.9195 90.0019 90.5913 89.9431 90.2846 89.8284L39.1582 70.3975V9.59562C39.1589 9.02047 39.4087 8.46907 39.8527 8.06238C40.2967 7.65569 40.8987 7.42692 41.5266 7.42627H139.421C140.049 7.42692 140.651 7.65569 141.095 8.06238C141.539 8.46907 141.789 9.02047 141.79 9.59562V70.4387L92.2463 89.818C91.9312 89.9394 91.5927 90.0018 91.2508 90.0016ZM39.7898 70.0111L90.5255 89.2936C90.9987 89.4694 91.5287 89.4665 91.9996 89.2855L141.158 70.0569V9.59562C141.158 9.17385 140.975 8.7695 140.649 8.47127C140.323 8.17303 139.882 8.00526 139.421 8.00476H41.5266C41.0662 8.00526 40.6247 8.17303 40.2991 8.47127C39.9735 8.7695 39.7903 9.17385 39.7898 9.59562L39.7898 70.0111Z" fill="#3F3D56"/>
<path d="M177.789 56.0197H177.726L141.474 70.1986L91.8727 89.5983C91.6789 89.673 91.4709 89.7119 91.2606 89.7129C91.0504 89.7139 90.8419 89.6769 90.6473 89.6041L39.4737 70.1581L2.33049 56.0429L2.27375 56.0197H2.21053C1.62446 56.0203 1.06258 56.2338 0.648164 56.6134C0.233751 56.993 0.00065029 57.5076 0 58.0444V145.975C0.000651124 146.512 0.233751 147.027 0.648164 147.406C1.06258 147.786 1.62446 147.999 2.21053 148H177.789C178.376 147.999 178.937 147.786 179.352 147.406C179.766 147.027 179.999 146.512 180 145.975V58.0444C179.999 57.5076 179.766 56.993 179.352 56.6134C178.937 56.2338 178.376 56.0203 177.789 56.0197ZM179.368 145.975C179.368 146.359 179.202 146.727 178.906 146.998C178.61 147.269 178.208 147.421 177.789 147.422H2.21053C1.79181 147.421 1.3903 147.269 1.09423 146.998C0.798155 146.727 0.631746 146.359 0.631579 145.975V58.0444C0.632152 57.6704 0.790535 57.3111 1.07361 57.0416C1.35669 56.7721 1.74256 56.6132 2.15054 56.5982L39.4737 70.7828L90.4043 90.1392C90.9556 90.3447 91.5734 90.3415 92.1222 90.1305L141.474 70.8262L177.853 56.5982C178.26 56.6143 178.645 56.7736 178.927 57.043C179.209 57.3124 179.367 57.671 179.368 58.0444V145.975Z" fill="#3F3D56"/>
<path d="M90.7411 72.6433C88.8573 72.6465 87.0234 72.0886 85.5161 71.0536L85.4226 70.9893L65.7455 57.1901C64.8342 56.5506 64.0693 55.7529 63.4946 54.8426C62.9199 53.9323 62.5466 52.9273 62.3959 51.8848C62.2453 50.8424 62.3203 49.783 62.6166 48.7671C62.9129 47.7512 63.4248 46.7987 64.1231 45.964C64.8213 45.1293 65.6922 44.4287 66.686 43.9023C67.6798 43.3759 68.7771 43.034 69.9152 42.896C71.0533 42.758 72.21 42.8267 73.3191 43.0981C74.4282 43.3695 75.4681 43.8384 76.3794 44.478L89.1248 53.4295L119.244 17.4511C119.943 16.6166 120.814 15.9163 121.808 15.3902C122.802 14.8641 123.899 14.5225 125.037 14.3849C126.176 14.2473 127.332 14.3164 128.441 14.5882C129.55 14.86 130.59 15.3293 131.501 15.9691L131.314 16.202L131.506 15.9725C133.344 17.2662 134.546 19.1747 134.849 21.2794C135.153 23.3841 134.532 25.513 133.124 27.1992L97.6962 69.5184C96.8768 70.4936 95.8232 71.2827 94.617 71.8247C93.4108 72.3666 92.0846 72.6467 90.7411 72.6433Z" fill="#FECE4E"/>
</svg>
