<svg width="22" height="26" viewBox="0 0 22 26" fill="none" xmlns="http://www.w3.org/2000/svg">
<path d="M1.45562 16.6718L2.12054 16.3249L2.12054 16.3249L1.45562 16.6718ZM2.46212 11.7255L2.95043 12.2948L2.95043 12.2948L2.46212 11.7255ZM3.88898 8.09843L3.14566 8.19838L3.14566 8.19838L3.88898 8.09843ZM19.4844 11.866L19.9745 11.2983L19.9745 11.2983L19.4844 11.866ZM20.2582 17.4642L19.6394 17.0405L19.6394 17.0405L20.2582 17.4642ZM17.9231 7.96981L18.6664 8.06976L18.6664 8.06976L17.9231 7.96981ZM19.4298 11.8188L18.9397 12.3865L18.9397 12.3865L19.4298 11.8188ZM1.58421 16.9183L0.919286 17.2652L0.919286 17.2652L1.58421 16.9183ZM18.0035 7.37192L17.2602 7.27197L17.2602 7.27197L18.0035 7.37192ZM3.79024 7.36415L4.53355 7.2642L4.53355 7.2642L3.79024 7.36415ZM7.82244 23.4386L8.40615 22.9676L8.40615 22.9676L7.82244 23.4386ZM8.03289 22.505C7.7728 22.1826 7.30062 22.1321 6.97824 22.3922C6.65587 22.6523 6.60538 23.1245 6.86547 23.4468L8.03289 22.505ZM15.4981 23.4468C15.7582 23.1245 15.7077 22.6523 15.3854 22.3922C15.063 22.1321 14.5908 22.1826 14.3307 22.505L15.4981 23.4468ZM14.5412 23.4386L13.9574 22.9676L13.9574 22.9676L14.5412 23.4386ZM9.83381 1.75H11.9526V0.25H9.83381V1.75ZM16.2568 18.756H6.02839V20.256H16.2568V18.756ZM17.2602 7.27197L17.1798 7.86986L18.6664 8.06976L18.7468 7.47187L17.2602 7.27197ZM18.9397 12.3865L18.9943 12.4337L19.9745 11.2983L19.9199 11.2511L18.9397 12.3865ZM4.63229 7.99848L4.53355 7.2642L3.04693 7.4641L3.14566 8.19838L4.63229 7.99848ZM2.24913 16.5713L2.12054 16.3249L0.790696 17.0188L0.919286 17.2652L2.24913 16.5713ZM2.12054 16.3249C1.41411 14.971 1.73362 13.3386 2.95043 12.2948L1.9738 11.1563C0.247523 12.6371 -0.250645 15.0231 0.790696 17.0188L2.12054 16.3249ZM3.14566 8.19838C3.29202 9.28677 2.86762 10.3895 1.9738 11.1563L2.95043 12.2948C4.21129 11.2132 4.84959 9.61457 4.63229 7.99848L3.14566 8.19838ZM18.9943 12.4337C20.391 13.6394 20.6465 15.5694 19.6394 17.0405L20.8771 17.8879C22.328 15.7686 21.9325 12.9886 19.9745 11.2983L18.9943 12.4337ZM17.1798 7.86986C16.9517 9.56634 17.6184 11.2458 18.9397 12.3865L19.9199 11.2511C18.9636 10.4255 18.509 9.24045 18.6664 8.06976L17.1798 7.86986ZM6.02839 18.756C4.39455 18.756 2.93633 17.8883 2.24913 16.5713L0.919286 17.2652C1.88382 19.1137 3.87759 20.256 6.02839 20.256V18.756ZM16.2568 20.256C18.1105 20.256 19.8582 19.3762 20.8771 17.8879L19.6394 17.0405C18.917 18.0957 17.6462 18.756 16.2568 18.756V20.256ZM11.9526 1.75C15.23 1.75 17.6465 4.39901 17.2602 7.27197L18.7468 7.47187C19.2704 3.57795 16.0111 0.25 11.9526 0.25V1.75ZM9.83381 0.25C5.77978 0.25 2.52389 3.57431 3.04693 7.4641L4.53355 7.2642C4.14779 4.39537 6.56087 1.75 9.83381 1.75V0.25ZM8.40615 22.9676L8.03289 22.505L6.86547 23.4468L7.23873 23.9095L8.40615 22.9676ZM14.3307 22.505L13.9574 22.9676L15.1249 23.9095L15.4981 23.4468L14.3307 22.505ZM7.23873 23.9095C9.2186 26.3635 13.145 26.3635 15.1249 23.9095L13.9574 22.9676C12.578 24.6775 9.78564 24.6775 8.40615 22.9676L7.23873 23.9095Z" fill="#18191B"/>
</svg>
