<svg width="540" height="320" viewBox="0 0 540 320" fill="none" xmlns="http://www.w3.org/2000/svg">
<g clip-path="url(#clip0_338_4571)">
<path d="M269.008 78.9718L268.994 79.0808L268.955 79.396L264.984 112.342L240.668 122.657L240.287 122.447L226.673 114.972L219.633 83.7448L219.151 81.6011L219.298 81.5359L249.414 68.4546L268.99 78.9593L269.008 78.9718Z" fill="#FECE4E"/>
<path d="M240.287 122.447L226.673 114.972L219.151 81.6011L219.298 81.5359L238.919 91.1063L240.287 122.447Z" fill="#FECE4E"/>
<path opacity="0.2" d="M240.629 122.066L230.273 99.1227L231.603 92.6184L225.339 84.0907L224.806 84.6146L230.841 92.8302L226.333 114.878L227.014 115.065L230.027 100.326L240.008 122.44L240.629 122.066Z" fill="black"/>
<path d="M269.008 79.376L268.955 79.396L238.919 91.5111L219.633 83.7448L219.151 81.6011L219.298 81.5359L249.414 68.4546L268.99 78.9593L268.994 79.0808L269.008 79.376Z" fill="#3F3D56"/>
<path d="M239.444 92.1176L233.321 86.6573L234.72 80.5897L252.214 73.3083L264.11 74.1173L268.833 78.7694L269.183 79.9825L239.444 92.1176Z" fill="#FECE4E"/>
<path d="M219.5 81.6011L233.32 80.9939L240.807 78.0563L252.479 73.3083L254.663 69.6683L249.216 68.541L219.5 81.6011Z" fill="#FECE4E"/>
<path d="M247.035 75.0919L239.829 78.0155L240.061 78.7787L247.267 75.8551L247.035 75.0919Z" fill="#CCCCCC"/>
<path d="M152.121 27.7869L148.743 47.3143L164.508 60.984L171.827 35.5977L152.121 27.7869Z" fill="#9F616A"/>
<path d="M164.789 45.6873C173.185 45.6873 179.991 37.8187 179.991 28.1123C179.991 18.4058 173.185 10.5372 164.789 10.5372C156.394 10.5372 149.588 18.4058 149.588 28.1123C149.588 37.8187 156.394 45.6873 164.789 45.6873Z" fill="#9F616A"/>
<path d="M131.853 161.275C131.922 166.946 153.283 230.052 150.317 238.269C145.642 243.794 135.586 273.201 131.289 281.046C130.727 281.046 127.912 290.81 127.912 290.81C127.912 290.81 134.668 303.177 141.987 297.97C151.19 272.945 174.239 258.987 174.646 226.37C175.759 236.674 179.043 302.811 179.043 302.811C179.043 302.811 178.413 303.12 192.593 304.691C194.794 266.305 203.791 201 183.65 159.973C177.458 156.719 131.853 161.275 131.853 161.275Z" fill="#2F2E41"/>
<path d="M179.042 301.523C178.384 302.987 173.663 316.495 177.959 317.85C182.913 319.412 187.715 317.223 187.715 317.223C187.715 317.223 196.387 320.356 201.694 316.374C204.171 313.511 203.608 310.907 202.426 309.02C201.825 308.09 201.056 307.323 200.173 306.772C199.289 306.222 198.312 305.901 197.31 305.832C194.617 305.61 193.762 305.033 193.453 303.606C193.003 301.523 179.042 301.523 179.042 301.523Z" fill="#2F2E41"/>
<path d="M132.716 289.728C132.716 289.728 120.615 294.146 123.162 299.3C124.817 302.494 127.233 305.07 130.121 306.718C130.121 306.718 132.644 318.747 139.65 318.747C143.153 318.747 144.347 316.446 144.666 314.145C144.81 312.996 144.735 311.825 144.447 310.714C144.159 309.602 143.665 308.576 142.998 307.708C141.23 305.35 140.978 304.242 141.632 302.981C142.588 301.141 132.716 289.728 132.716 289.728Z" fill="#2F2E41"/>
<path d="M186.469 163.181C186.469 163.181 184.214 168.388 175.206 166.433C166.198 164.484 130.73 166.433 130.73 166.433C130.73 166.433 132.697 119.894 128.193 91.9028C123.689 63.9116 141.423 47.9641 141.423 47.9641L147.055 41.4535C152.686 40.8081 164.578 61.0103 164.578 61.0103C168.491 61.7685 172.144 80.9995 175.26 99.1966C175.445 100.237 175.618 101.264 175.791 102.292C177.228 110.777 179.228 120.22 180.426 128.698C180.512 129.3 180.594 129.895 180.669 130.49C182.093 141.5 184.029 152.412 186.469 163.181Z" fill="#E6E6E6"/>
<path d="M147.005 17.169C147.005 17.169 144.163 9.93994 151.553 6.654C151.553 6.654 157.806 -5.17534 170.311 2.7109C170.311 2.7109 178.838 6.654 178.838 17.169C178.838 27.6839 181.68 29.6555 181.68 29.6555C181.68 29.6555 177.447 24.6354 176.311 20.6923C175.174 16.7492 166.332 15.8546 162.922 19.7977C159.511 23.7408 150.984 23.0837 150.984 23.0837L151.553 37.5417C151.553 37.5417 148.711 28.9983 147.574 28.9983C146.437 28.9983 145.3 17.169 147.005 17.169Z" fill="#2F2E41"/>
<path opacity="0.2" d="M180.425 128.698C166.994 120.257 145.238 101.747 138.219 91.7336C128.967 78.5432 139.059 68.5173 139.059 68.5173C150.501 60.1707 164.181 88.8073 164.181 88.8073L175.26 99.1966C175.444 100.237 175.617 101.264 175.791 102.292C177.227 110.777 179.227 120.22 180.425 128.698Z" fill="black"/>
<path d="M220.52 118.971C220.52 118.971 240.487 128.343 243.773 117.808C247.06 107.273 228.009 107.454 228.009 107.454L220.53 108.679L220.52 118.971Z" fill="#9F616A"/>
<path d="M136.5 64.2304C136.5 64.2304 126.413 74.2622 135.658 87.4482C144.904 100.634 187.393 128.808 187.393 128.808L215.069 120.158L222.901 121.815L224.378 104.814L212.84 106.117L183.549 98.9061L164.872 81.3851C164.872 81.3851 147.939 55.8883 136.5 64.2304Z" fill="#E6E6E6"/>
<path opacity="0.2" d="M173.248 185.08L175.012 232.754L170.538 185.08H173.248Z" fill="black"/>
<path d="M363.78 150.977L347.759 155.269C346.52 155.601 345.217 155.361 344.129 154.601C343.04 153.84 342.25 152.619 341.928 151.196C341.741 150.371 341.718 149.507 341.861 148.671C342.004 147.834 342.309 147.045 342.752 146.364C343.196 145.683 343.768 145.127 344.424 144.737C345.081 144.348 345.805 144.135 346.542 144.115L362.017 143.699L363.78 150.977Z" fill="#FFB9B9"/>
<path d="M362.079 153.695L358.521 141.355L379.852 132.931L374.19 75.291C384.383 77.4336 389.234 86.7003 388.78 98.6664L391.539 137.999L362.079 153.695Z" fill="#3F3D56"/>
<path d="M376.817 62.583H411.667V42.5465C411.679 37.1351 409.845 31.9365 406.563 28.0787C404.96 26.1782 403.043 24.6685 400.927 23.639C398.811 22.6094 396.537 22.0809 394.241 22.0847C389.655 22.0945 385.258 24.1904 381.998 27.9193C378.739 31.6481 376.879 36.7103 376.823 42.0113C376.82 42.1948 376.817 42.3691 376.817 42.5465L376.817 62.583Z" fill="#2F2E41"/>
<path d="M426.238 298.04L415.098 296.562L401.766 192.472L374.19 296.984L362.137 297.406L375.834 168.824L373.825 139.476L407.976 127.019C432.163 146.541 431.663 215.491 426.238 298.04Z" fill="#2F2E41"/>
<path d="M391.174 58.6113C398.436 58.6113 404.323 51.8052 404.323 43.4095C404.323 35.0137 398.436 28.2076 391.174 28.2076C383.912 28.2076 378.025 35.0137 378.025 43.4095C378.025 51.8052 383.912 58.6113 391.174 58.6113Z" fill="#FFB9B9"/>
<path d="M404.323 70.8572L382.043 77.6135C385.797 69.2675 386.998 61.4764 384.965 54.3885L400.671 51.4326C399.661 58.2101 400.971 65.1759 404.323 70.8572Z" fill="#FFB9B9"/>
<path d="M411.811 132.72C399.314 141.908 384.758 152.463 374.008 142.221L368.894 113.507C364.83 109.322 366.632 96.4073 372.127 77.9996C372.475 76.8312 373.05 75.7699 373.806 74.8963C374.563 74.0227 375.481 73.3597 376.492 72.9575L384.965 69.5903C388.72 73.2411 394.875 71.0637 402.132 66.2122L410.532 68.7458L414.185 100.416C408.912 109.549 409.833 121.71 411.811 132.72Z" fill="#3F3D56"/>
<path d="M401.4 145.065L385.38 149.357C384.141 149.689 382.838 149.449 381.749 148.689C380.66 147.928 379.871 146.707 379.549 145.284C379.362 144.459 379.339 143.596 379.482 142.759C379.624 141.922 379.929 141.133 380.373 140.452C380.817 139.771 381.389 139.215 382.045 138.825C382.701 138.436 383.425 138.223 384.163 138.203L399.638 137.787L401.4 145.065Z" fill="#FFB9B9"/>
<path d="M424.302 317.94C422.431 318.928 420.863 312.809 419.285 314.602C414.871 319.618 404.281 318.493 404.281 318.493C403.925 318.361 403.597 318.147 403.315 317.864C403.033 317.58 402.804 317.234 402.641 316.845C402.478 316.456 402.386 316.034 402.369 315.602C402.352 315.171 402.41 314.74 402.541 314.336C402.698 313.852 402.955 313.42 403.288 313.075C403.622 312.731 404.022 312.486 404.456 312.361L409.151 311.004L416.522 296.016L424.556 294.841L424.759 295.225C426.312 298.118 427.313 301.362 427.696 304.739C428.079 308.115 427.834 311.548 426.978 314.806C426.31 317.281 425.401 317.36 424.302 317.94Z" fill="#2F2E41"/>
<path d="M371.34 317.94C369.469 318.928 367.902 312.809 366.324 314.602C361.909 319.618 351.319 318.493 351.319 318.493C350.964 318.361 350.635 318.147 350.353 317.864C350.071 317.58 349.842 317.234 349.68 316.845C349.517 316.456 349.424 316.034 349.407 315.602C349.39 315.171 349.449 314.74 349.58 314.336C349.737 313.852 349.993 313.42 350.327 313.075C350.66 312.731 351.061 312.486 351.495 312.361L356.189 311.004L363.561 296.016L371.594 294.841L371.797 295.225C373.35 298.118 374.352 301.362 374.734 304.739C375.117 308.115 374.873 311.548 374.017 314.806C373.349 317.281 372.439 317.36 371.34 317.94Z" fill="#2F2E41"/>
<path d="M406.588 30.7299L403.277 42.9112L374.645 42.3229C374.743 38.0609 375.99 33.9408 378.211 30.5379C380.433 27.1351 383.519 24.6195 387.037 23.3426C390.555 22.0657 394.331 22.0913 397.836 23.4157C401.341 24.7401 404.401 27.2972 406.588 30.7299H406.588Z" fill="#2F2E41"/>
<path d="M399.7 147.784L396.142 135.443L417.472 127.019L409.403 68.1301C414.332 69.1662 418.77 72.2314 421.895 76.7586C425.02 81.2857 426.62 86.9682 426.4 92.7546L429.16 132.087L399.7 147.784Z" fill="#3F3D56"/>
<path d="M348.753 114.514L326.567 120.03L322.034 94.794L330.384 81.8311L337.898 80.1761L346.247 89.9671L348.753 114.514Z" fill="#CCCCCC"/>
<path d="M338.493 115.614H325.133L323.312 105.218L321.317 93.8265L324.298 88.8636L330.027 90.9315L336.228 100.863L337.783 110.983L337.892 111.704L338.493 115.614Z" fill="#E6E6E6"/>
<path d="M360.918 109.549L345.531 111.618L348.275 89.0022L354.477 82.5204L359.844 84.0374L363.423 93.5527L360.918 109.549Z" fill="#CCCCCC"/>
<path d="M362.944 96.17L361.513 105.275L356.862 136.299L338.971 142.922L338.353 142.534L328.711 136.437L323.286 105.206L323.313 105.218L337.659 111.892L337.784 110.983L337.871 110.325L338.971 102.242L343.86 96.17L360.201 91.6207L362.944 96.17Z" fill="#E6E6E6"/>
<path d="M351.615 95.2074C353.723 95.2074 355.432 93.2317 355.432 90.7945C355.432 88.3574 353.723 86.3817 351.615 86.3817C349.507 86.3817 347.798 88.3574 347.798 90.7945C347.798 93.2317 349.507 95.2074 351.615 95.2074Z" fill="#E6E6E6"/>
<path d="M342.23 93.0721L333.523 94.8647L333.565 95.1362L342.272 93.3436L342.23 93.0721Z" fill="white"/>
<path d="M338.352 142.534L328.71 136.437L323.285 105.206L323.312 105.218L321.317 93.8265L324.298 88.8636L330.027 90.9315L336.228 100.863L337.783 110.983L337.87 110.325L337.892 111.704L337.951 115.614L338.352 142.534Z" fill="#F2F2F2"/>
<path d="M328.829 136.476L328.598 136.404L333.354 115.785L327.908 107.484L328.098 107.317L333.615 115.725L328.829 136.476Z" fill="#CCCCCC"/>
<path d="M331.514 124.704L331.299 124.824L338.864 142.981L339.078 142.861L331.514 124.704Z" fill="#CCCCCC"/>
<path opacity="0.2" d="M362.005 103.385L361.11 109.107L361.064 109.112L357.054 135.859L339.163 142.479L339.055 142.538L338.984 142.366L328.905 135.997L328.789 135.962L328.851 135.691L323.477 104.763L323.505 104.775L322.91 101.38L323.355 100.64L324.73 98.3504L330.455 100.419L336.658 110.348L336.748 110.938L337.4 115.174L337.661 116.876L338.213 120.471L338.738 116.608L338.926 115.218L339.401 111.727L344.292 105.659L346.466 105.054L347.98 104.632L350.062 104.053C349.416 103.599 348.901 102.933 348.583 102.141C348.264 101.348 348.157 100.464 348.273 99.601C348.39 98.7376 348.725 97.9336 349.238 97.291C349.75 96.6484 350.416 96.1961 351.15 95.9914C351.885 95.7867 352.656 95.8389 353.365 96.1413C354.074 96.4436 354.69 96.9826 355.134 97.6899C355.578 98.3972 355.83 99.2409 355.859 100.114C355.887 100.987 355.691 101.851 355.295 102.595L360.633 101.108L361.948 103.291L362.005 103.385Z" fill="black"/>
<path d="M338.923 126.482H325.564L321.748 104.694L324.73 99.7292L330.455 101.798L336.657 111.727L338.923 126.482Z" fill="#E6E6E6"/>
<path d="M357.293 147.168L339.401 153.787L329.143 147.305L323.716 116.071L338.089 122.759L339.401 113.106L344.291 107.038L360.632 102.488L363.376 107.038L361.945 116.14L357.293 147.168Z" fill="#E6E6E6"/>
<path d="M352.044 106.073C354.152 106.073 355.861 104.097 355.861 101.66C355.861 99.2229 354.152 97.2472 352.044 97.2472C349.936 97.2472 348.227 99.2229 348.227 101.66C348.227 104.097 349.936 106.073 352.044 106.073Z" fill="#E6E6E6"/>
<path d="M338.792 153.186L329.15 147.089L323.725 115.858L323.752 115.871L321.757 104.479L324.738 99.5161L330.467 101.584L336.668 111.516L338.223 121.636L338.31 120.978L338.332 122.356L338.391 126.267L338.792 153.186Z" fill="#F2F2F2"/>
<path d="M329.258 147.341L329.027 147.27L333.783 126.65L328.337 118.349L328.527 118.182L334.044 126.591L329.258 147.341Z" fill="#CCCCCC"/>
<path d="M331.943 135.569L331.728 135.689L339.293 153.846L339.508 153.727L331.943 135.569Z" fill="#CCCCCC"/>
<path d="M488.588 291.438L466.402 296.954L461.87 271.718L470.219 258.755L477.733 257.1L486.083 266.891L488.588 291.438Z" fill="#CCCCCC"/>
<path d="M478.329 292.538H464.969L463.148 282.142L461.153 270.75L464.134 265.788L469.863 267.855L476.064 277.787L477.619 287.907L477.728 288.628L478.329 292.538Z" fill="#E6E6E6"/>
<path d="M500.753 286.473L485.367 288.542L488.11 265.926L494.312 259.445L499.68 260.961L503.259 270.477L500.753 286.473Z" fill="#CCCCCC"/>
<path d="M502.78 273.094L501.349 282.199L496.698 313.223L478.807 319.846L478.189 319.458L468.547 313.361L463.122 282.13L463.149 282.142L477.495 288.816L477.62 287.907L477.707 287.249L478.807 279.166L483.696 273.094L500.037 268.545L502.78 273.094Z" fill="#E6E6E6"/>
<path d="M491.451 272.132C493.559 272.132 495.268 270.156 495.268 267.719C495.268 265.282 493.559 263.306 491.451 263.306C489.343 263.306 487.634 265.282 487.634 267.719C487.634 270.156 489.343 272.132 491.451 272.132Z" fill="#E6E6E6"/>
<path d="M482.066 269.996L473.359 271.789L473.401 272.06L482.108 270.268L482.066 269.996Z" fill="white"/>
<path d="M478.188 319.458L468.546 313.361L463.121 282.13L463.148 282.142L461.153 270.75L464.134 265.788L469.863 267.855L476.064 277.787L477.619 287.907L477.706 287.249L477.728 288.628L477.787 292.538L478.188 319.458Z" fill="#F2F2F2"/>
<path d="M468.665 313.4L468.434 313.329L473.19 292.709L467.744 284.408L467.934 284.241L473.45 292.649L468.665 313.4Z" fill="#CCCCCC"/>
<path d="M471.349 301.628L471.134 301.748L478.699 319.905L478.914 319.785L471.349 301.628Z" fill="#CCCCCC"/>
<path d="M532.426 317.44H517.792L515.624 284.856H534.594L532.426 317.44Z" fill="#E6E6E6"/>
<path d="M534.866 298.015H515.354V303.028H534.866V298.015Z" fill="#F2F2F2"/>
<path d="M539.879 287.195L536.759 286.133L536.719 284.812L522.855 280.091L522.202 281.175L519.082 280.113L517.124 283.365L540 291.156L539.879 287.195Z" fill="#CCCCCC"/>
<path d="M80.934 276.314L80.9199 276.423L80.8814 276.739L76.9102 309.686L52.594 320L52.2129 319.79L38.599 312.315L31.5595 281.087L31.0771 278.943L31.224 278.879L61.3407 265.798L80.9161 276.302L80.934 276.314Z" fill="#FECE4E"/>
<path d="M52.2129 319.79L38.599 312.315L31.0771 278.943L31.224 278.879L50.8449 288.449L52.2129 319.79Z" fill="#FECE4E"/>
<path opacity="0.2" d="M52.555 319.408L42.1996 296.465L43.5296 289.961L37.2657 281.433L36.7324 281.957L42.767 290.173L38.2592 312.221L38.9405 312.408L41.9535 297.669L51.9344 319.783L52.555 319.408Z" fill="black"/>
<path d="M80.934 276.719L80.8814 276.739L50.8449 288.854L31.5595 281.087L31.0771 278.943L31.224 278.879L61.3407 265.798L80.9161 276.302L80.9199 276.423L80.934 276.719Z" fill="#3F3D56"/>
<path d="M51.3695 289.461L45.2466 284L46.646 277.932L64.1396 270.651L76.0354 271.46L80.7589 276.112L81.1085 277.326L51.3695 289.461Z" fill="#FECE4E"/>
<path d="M31.4272 278.943L45.2471 278.337L52.7338 275.399L64.4063 270.651L66.5894 267.011L61.1423 265.884L31.4272 278.943Z" fill="#FECE4E"/>
<path d="M58.9613 272.435L51.7554 275.358L51.987 276.121L59.1929 273.198L58.9613 272.435Z" fill="#CCCCCC"/>
<path d="M19.5119 318.189H4.87796L2.70996 285.605H21.6799L19.5119 318.189Z" fill="#FECE4E"/>
<path d="M21.9509 298.764H2.43896V303.777H21.9509V298.764Z" fill="#E6E6E6"/>
<path d="M22.764 283.725H19.512L19.1504 282.472H4.6975L4.33599 283.725H1.084L0 287.485H23.848L22.764 283.725Z" fill="#3F3D56"/>
<path d="M438.119 317.805H109.616V319.058H438.119V317.805Z" fill="#3F3D56"/>
</g>
<defs>
<clipPath id="clip0_338_4571">
<rect width="540" height="320" fill="white"/>
</clipPath>
</defs>
</svg>
