<svg width="480" height="400" viewBox="0 0 480 400" fill="none" xmlns="http://www.w3.org/2000/svg">
<path d="M471.863 347.025C469.845 329.513 459.791 312.259 444.32 306.56C450.422 324.584 450.42 344.358 444.317 362.381C441.939 369.323 438.626 376.777 440.862 383.773C442.253 388.126 445.657 391.457 449.461 393.539C453.266 395.622 457.489 396.614 461.659 397.587L462.479 398.32C469.099 382.185 473.88 364.536 471.863 347.025Z" fill="#F0F0F0"/>
<path d="M444.167 306.891C453.176 317.788 458.776 331.473 460.17 346.002C460.522 349.124 460.416 352.286 459.855 355.372C459.219 358.36 457.854 361.109 455.901 363.334C454.118 365.448 452.068 367.387 450.793 369.932C450.158 371.245 449.787 372.688 449.705 374.167C449.623 375.646 449.832 377.126 450.317 378.512C451.443 381.998 453.662 384.84 455.922 387.537C458.431 390.532 461.081 393.6 462.148 397.57C462.277 398.052 462.961 397.807 462.832 397.327C460.976 390.419 454.764 386.495 451.802 380.273C450.419 377.369 449.839 373.999 451.135 370.934C452.268 368.254 454.381 366.252 456.203 364.128C458.137 361.988 459.557 359.369 460.338 356.5C461.042 353.454 461.261 350.302 460.986 347.177C460.469 340.131 458.93 333.217 456.424 326.688C453.603 319.219 449.618 312.326 444.643 306.308C444.335 305.935 443.861 306.521 444.167 306.891H444.167Z" fill="white"/>
<path d="M459.977 341.295C462.204 340.712 464.165 339.293 465.512 337.292C466.859 335.292 467.503 332.84 467.329 330.374C467.293 329.875 466.573 329.913 466.61 330.412C466.775 332.708 466.175 334.993 464.917 336.853C463.66 338.713 461.827 340.027 459.751 340.557C459.3 340.673 459.529 341.411 459.977 341.295Z" fill="white"/>
<path d="M456.936 362.39C452.915 359.798 449.946 355.666 448.622 350.816C448.492 350.336 447.808 350.58 447.938 351.06C449.325 356.104 452.422 360.398 456.612 363.085C457.011 363.341 457.333 362.645 456.936 362.39Z" fill="white"/>
<path d="M452.935 319.956C452.117 320.375 451.215 320.569 450.311 320.52C449.407 320.47 448.528 320.179 447.754 319.672C447.357 319.411 447.036 320.107 447.43 320.367C448.288 320.922 449.258 321.243 450.257 321.3C451.256 321.357 452.253 321.149 453.161 320.694C453.25 320.659 453.323 320.589 453.365 320.498C453.408 320.407 453.417 320.301 453.39 320.203C453.359 320.106 453.295 320.025 453.209 319.979C453.124 319.932 453.025 319.924 452.935 319.956Z" fill="white"/>
<path d="M397.163 337.838C397.406 338.009 397.649 338.179 397.892 338.357C401.151 340.669 404.229 343.264 407.098 346.115C407.323 346.332 407.548 346.555 407.767 346.778C414.611 353.727 420.201 361.987 424.252 371.138C425.861 374.781 427.211 378.551 428.29 382.415C429.78 387.751 431.002 393.666 433.951 398.031C434.254 398.49 434.583 398.928 434.936 399.344H461.588C461.648 399.311 461.709 399.284 461.77 399.252L462.834 399.304C462.791 399.101 462.743 398.891 462.7 398.687C462.676 398.569 462.646 398.451 462.621 398.333C462.603 398.254 462.585 398.175 462.573 398.103C462.567 398.077 462.56 398.05 462.555 398.031C462.542 397.959 462.524 397.893 462.512 397.827C462.244 396.652 461.969 395.477 461.685 394.302C461.685 394.296 461.685 394.296 461.679 394.289C459.496 385.342 456.602 376.514 452.558 368.44C452.436 368.197 452.315 367.948 452.181 367.705C450.339 364.076 448.226 360.616 445.863 357.36C444.563 355.581 443.181 353.874 441.722 352.246C437.944 348.048 433.577 344.517 428.782 341.783C419.223 336.335 408.157 334.248 397.941 337.576C397.679 337.661 397.424 337.746 397.163 337.838Z" fill="#F0F0F0"/>
<path d="M397.222 338.203C410.494 341.049 422.598 348.336 431.814 359.03C433.836 361.294 435.515 363.888 436.788 366.716C437.947 369.515 438.39 372.597 438.071 375.643C437.827 378.49 437.272 381.371 437.673 384.231C437.899 385.693 438.408 387.086 439.167 388.32C439.926 389.553 440.918 390.6 442.078 391.391C444.922 393.443 448.279 394.269 451.587 394.954C455.261 395.715 459.088 396.442 462.154 398.919C462.526 399.219 462.935 398.58 462.564 398.28C457.23 393.97 450.081 394.875 444.246 391.832C441.523 390.412 439.18 388.098 438.505 384.809C437.915 381.933 438.485 378.961 438.755 376.082C439.106 373.115 438.779 370.101 437.802 367.303C436.666 364.413 435.083 361.754 433.12 359.438C428.779 354.148 423.693 349.628 418.051 346.043C411.632 341.914 404.607 339 397.278 337.428C396.824 337.33 396.772 338.107 397.222 338.203H397.222Z" fill="white"/>
<path d="M429.034 355.398C430.486 353.485 431.261 351.077 431.221 348.604C431.18 346.132 430.327 343.755 428.813 341.899C428.505 341.525 427.952 342.023 428.26 342.398C429.673 344.123 430.467 346.337 430.501 348.64C430.534 350.943 429.804 353.182 428.442 354.955C428.146 355.341 428.74 355.781 429.034 355.398Z" fill="white"/>
<path d="M438.371 374.218C433.715 374.762 429.04 373.391 425.278 370.379C424.906 370.081 424.496 370.721 424.868 371.019C428.788 374.145 433.655 375.56 438.499 374.983C438.961 374.927 438.83 374.162 438.371 374.218Z" fill="white"/>
<path d="M411.51 342.936C411.091 343.803 410.479 344.544 409.729 345.092C408.98 345.64 408.116 345.978 407.215 346.077C406.753 346.126 406.884 346.891 407.343 346.842C408.338 346.728 409.292 346.353 410.122 345.75C410.951 345.146 411.631 344.332 412.102 343.379C412.154 343.294 412.173 343.19 412.156 343.089C412.139 342.989 412.087 342.899 412.011 342.838C411.932 342.78 411.836 342.758 411.742 342.776C411.648 342.794 411.565 342.852 411.51 342.936Z" fill="white"/>
<path d="M266.763 21.3999C266.121 22.2649 265.662 23.2714 265.418 24.3486C265.175 25.4258 265.154 26.5475 265.356 27.6346C265.558 28.7217 265.978 29.7478 266.587 30.6406C267.196 31.5335 267.979 32.2713 268.88 32.8022L264.772 59.3856L276.63 53.7046L278.714 29.3314C279.439 27.6371 279.564 25.7143 279.064 23.9272C278.565 22.1402 277.475 20.6132 276.002 19.6355C274.529 18.6579 272.775 18.2975 271.072 18.6226C269.369 18.9478 267.836 19.936 266.763 21.3999Z" fill="#9E616A"/>
<path d="M373.445 389.174L363.749 389.173L359.136 348.8L373.447 348.801L373.445 389.174Z" fill="#9E616A"/>
<path d="M375.918 399.32L344.653 399.319V398.892C344.653 395.408 345.935 392.067 348.217 389.603C350.499 387.14 353.595 385.756 356.822 385.756H356.823L375.918 385.756L375.918 399.32Z" fill="#2F2E41"/>
<path d="M308.381 389.174L298.685 389.173L294.072 348.8L308.383 348.801L308.381 389.174Z" fill="#9E616A"/>
<path d="M310.854 399.32L279.589 399.319V398.892C279.59 395.408 280.872 392.067 283.154 389.603C285.436 387.14 288.531 385.756 291.759 385.756H291.759L310.855 385.756L310.854 399.32Z" fill="#2F2E41"/>
<path d="M304.339 200.78L300.715 205.925C300.715 205.925 300.387 208.328 294.89 227.906L291.874 375.056H310.116L334.5 257.319L359.807 377.418L375.62 378.426L374.876 241.919C374.876 241.919 376.874 213.836 369.794 208.621C362.714 203.405 304.339 200.78 304.339 200.78Z" fill="#2F2E41"/>
<path d="M328.803 77.1237C339.375 77.1237 347.946 67.8721 347.946 56.4596C347.946 45.0472 339.375 35.7956 328.803 35.7956C318.231 35.7956 309.661 45.0472 309.661 56.4596C309.661 67.8721 318.231 77.1237 328.803 77.1237Z" fill="#9E616A"/>
<path d="M348.061 59.6948L347.744 59.0124C347.256 57.957 343.208 49.1827 342.7 46.9266L337.606 47.5734L324.34 47.5756L326.184 44.591L321.31 45.2772C319.529 45.5109 317.826 46.2039 316.344 47.2977C315.436 47.9494 314.668 48.8044 314.092 49.8048C312.351 53.0227 309.692 58.2862 309.665 58.3391L309.411 58.8426L307.201 54.8295C307.172 54.6737 304.433 39.2522 313.599 34.0221C314.072 32.9856 318.1 24.8324 327.621 25.3827C328.668 24.0947 330.142 23.3036 331.725 23.1804C333.9 23.058 336.157 24.291 338.424 26.8606C341.435 30.2734 345.558 34.9471 348.052 40.1365L348.74 41.1961C349.718 42.7126 350.202 44.5362 350.117 46.3814C350.647 49.3262 350.458 52.3692 349.57 55.2118L348.061 59.6948Z" fill="#2F2E41"/>
<path d="M343.389 81.0119L353.981 87.3317L374.788 93.6208L368.577 152.399L369.707 210.298C369.707 210.298 334.487 236.343 300.715 205.926V133.048L302.713 93.6208C302.713 93.6208 310.795 91.1424 314.864 95.4176L322.582 84.5954L343.389 81.0119Z" fill="#E4E4E4"/>
<path d="M307.38 99.0364L302.713 93.621L276.995 90.4762L279.408 47.8365L265.387 37.0385L255.085 97.0672L302.672 133.048L307.38 99.0364Z" fill="#E4E4E4"/>
<path d="M359.511 229.431C359.319 228.341 359.351 227.22 359.604 226.146C359.858 225.071 360.326 224.07 360.976 223.212C361.627 222.353 362.444 221.66 363.369 221.179C364.295 220.699 365.307 220.444 366.334 220.431L374.252 194.872L382.258 205.892L373.512 228.474C373.417 230.338 372.692 232.099 371.474 233.425C370.257 234.75 368.631 235.547 366.905 235.665C365.179 235.783 363.474 235.214 362.111 234.065C360.748 232.916 359.823 231.267 359.511 229.431Z" fill="#9E616A"/>
<path d="M366.971 100.349L374.788 93.6208C374.788 93.6208 382.781 98.38 385.213 106.913C387.645 115.447 391.902 164.021 391.902 164.021L380.348 226.38L367.428 216.707L373.66 167.303L362.714 131.2L366.971 100.349Z" fill="#E4E4E4"/>
<path d="M268.977 0H71.8389V51.7134H268.977V0Z" fill="#E6E6E6"/>
<path d="M77.0117 46.1295H263.805V5.58392H77.0117V46.1295Z" fill="white"/>
<path d="M112.59 41.3035C120.492 41.3035 126.899 34.3877 126.899 25.8567C126.899 17.3256 120.492 10.4099 112.59 10.4099C104.687 10.4099 98.2803 17.3256 98.2803 25.8567C98.2803 34.3877 104.687 41.3035 112.59 41.3035Z" fill="#FECE4E"/>
<path d="M242.536 19.8123H146.808V23.1703H242.536V19.8123Z" fill="#FECE4E"/>
<path d="M242.536 28.5431H146.808V31.9011H242.536V28.5431Z" fill="#FECE4E"/>
<path d="M0 78.5996L166.802 91.7335V139.011L0 135.667V78.5996Z" fill="#E6E6E6"/>
<path d="M5.25439 129.645L163.16 133.814V96.5742L5.25439 85.1418V129.645Z" fill="white"/>
<path d="M39.9118 92.758C41.7348 92.885 43.5102 93.4399 45.114 94.384C46.7227 95.3333 48.1497 96.6036 49.3193 98.1276C50.5348 99.7042 51.4869 101.497 52.1329 103.426C52.8145 105.456 53.1623 107.598 53.1606 109.757C53.1677 111.883 52.8196 113.993 52.1329 115.986C51.4959 117.836 50.5414 119.541 49.3193 121.009C48.1459 122.421 46.714 123.554 45.114 124.338C43.4805 125.129 41.7015 125.51 39.9118 125.449C38.0801 125.387 36.2837 124.888 34.6508 123.99C32.9968 123.077 31.5227 121.826 30.3104 120.307C29.0384 118.718 28.0397 116.897 27.3617 114.93C26.6421 112.851 26.2744 110.65 26.276 108.431C26.268 106.245 26.6361 104.077 27.3617 102.036C28.031 100.152 29.0327 98.4254 30.3111 96.9526C31.5288 95.5491 33.0081 94.44 34.6516 93.6984C36.3155 92.9556 38.1149 92.6339 39.9118 92.758Z" fill="#E6E6E6"/>
<path d="M70.979 104.456L147.832 108.779V111.922L70.979 107.891V104.456Z" fill="#E6E6E6"/>
<path d="M70.979 113.388L147.832 116.949V120.091L70.979 116.823V113.388Z" fill="#E6E6E6"/>
<path d="M0 174.641L166.802 171.298V218.575L0 231.709V174.641Z" fill="#E6E6E6"/>
<path d="M5.25439 225.166L163.16 213.734V176.498L5.25439 180.667V225.166Z" fill="white"/>
<path d="M26.2875 201.124C26.3685 198.907 26.8184 196.723 27.6156 194.678C28.3643 192.751 29.4286 190.985 30.7575 189.465C32.0222 188.013 33.5387 186.843 35.2209 186.022C36.8847 185.213 38.6941 184.814 40.5183 184.853C42.3086 184.893 44.0671 185.371 45.6612 186.251C47.2287 187.125 48.6133 188.336 49.7292 189.81C50.8931 191.346 51.7815 193.103 52.349 194.99C52.96 197.018 53.2296 199.148 53.145 201.279C53.0683 203.436 52.6427 205.561 51.8877 207.56C51.1735 209.454 50.1568 211.199 48.8839 212.714C47.6613 214.175 46.1899 215.37 44.5498 216.232C42.912 217.09 41.1192 217.548 39.2989 217.573C37.4965 217.596 35.713 217.174 34.0852 216.338C32.4722 215.502 31.0395 214.31 29.8799 212.84C28.6605 211.294 27.727 209.51 27.13 207.585C26.4836 205.506 26.198 203.315 26.2875 201.124Z" fill="#E6E6E6"/>
<path d="M70.979 193.486L147.832 190.217V193.36L70.979 196.921V193.486Z" fill="#E6E6E6"/>
<path d="M70.979 202.417L147.832 198.387V201.529L70.979 205.853V202.417Z" fill="#E6E6E6"/>
<path d="M479.392 400H247.717C247.556 400 247.401 399.931 247.287 399.808C247.173 399.685 247.109 399.518 247.109 399.344C247.109 399.169 247.173 399.003 247.287 398.879C247.401 398.756 247.556 398.687 247.717 398.687H479.392C479.553 398.687 479.708 398.756 479.822 398.879C479.936 399.003 480 399.169 480 399.344C480 399.518 479.936 399.685 479.822 399.808C479.708 399.931 479.553 400 479.392 400Z" fill="#CACACA"/>
</svg>
