<svg width="480" height="394" viewBox="0 0 480 394" fill="none" xmlns="http://www.w3.org/2000/svg">
<g clip-path="url(#clip0_338_4947)">
<path d="M310.366 89.3198C319.455 89.3198 326.823 80.3496 326.823 69.2844C326.823 58.2192 319.455 49.249 310.366 49.249C301.277 49.249 293.909 58.2192 293.909 69.2844C293.909 80.3496 301.277 89.3198 310.366 89.3198Z" fill="#F2F2F2"/>
<path d="M373.707 209.779L92.0625 0L4.63221e-05 183.188L281.644 392.967L373.707 209.779Z" fill="#F2F2F2"/>
<path d="M348.681 267.885C346.11 260.685 342.15 254.361 334.229 249.039C330.136 246.222 325.739 244.114 321.166 242.778C324.243 241.038 327.073 238.713 329.549 235.891C333.19 231.929 335.95 226.911 337.572 221.303C339.066 215.604 339.676 209.617 339.372 203.647C338.807 193.128 337.109 182.923 332.584 175.597C328.058 168.272 321.681 162.637 313.246 158.692C306.766 155.687 300.132 153.809 289.846 153.12V113.112L269.274 128.764V153.183H252.817V127.512L231.731 113.112V153.183H186.936L201.336 183.236C205.785 183.242 208.799 183.743 210.336 184.676C211.772 185.424 212.952 186.75 213.679 188.432C214.348 189.998 214.656 193.692 214.656 199.389V307.831C214.656 313.466 214.348 317.097 213.679 318.725C213.011 320.353 212.651 321.793 211.056 322.669C209.462 323.546 209.411 323.483 204.988 323.483H204.936L186.936 353.536H231.679V393.607H252.765V353.536H269.223V393.607H289.795V353.286C303.166 352.472 312.681 350.343 320.344 346.837C330.269 342.329 337.881 335.755 343.332 327.115C348.784 318.475 350.995 305.264 351.458 295.058C351.818 285.98 350.995 274.271 348.681 267.885ZM252.765 186.992H252.771V186.16H267.15C275.24 186.16 302.199 182.879 302.647 209.682C303.099 236.486 267.15 235.39 267.15 235.39H252.771V233.324H252.765V186.992ZM252.765 263.377H269.223C272.566 263.377 284.065 263.997 288.252 264.229C289.958 264.304 291.648 264.671 293.271 265.318C293.863 265.562 294.423 265.838 295.03 266.145C297.567 267.143 299.96 268.617 302.122 270.515C303.532 271.648 304.772 273.067 305.789 274.71C306.23 275.451 306.635 276.222 307.003 277.02C307.976 279.026 308.699 281.197 309.147 283.463C309.638 285.651 309.892 287.907 309.903 290.175C309.903 295.052 309.163 299.09 307.337 302.509C304.863 307.555 300.806 311.13 296.239 313.654C284.43 320.19 269.223 319.727 269.223 319.727H252.765V263.377Z" fill="#3F3D56"/>
<path opacity="0.3" d="M314.82 70.1274C314.664 69.6582 314.377 69.2709 314.01 69.0337C313.781 68.8706 313.534 68.7482 313.277 68.6703C313.451 68.5687 313.609 68.4337 313.747 68.2706C313.953 68.0383 314.107 67.7473 314.197 67.424C314.281 67.0925 314.315 66.7455 314.298 66.3993C314.296 65.8244 314.165 65.2611 313.917 64.7714C313.641 64.3239 313.265 63.9832 312.833 63.7903C312.414 63.5925 311.971 63.4831 311.522 63.4669V61.145L310.368 62.0534V63.4706H309.446V61.9808L308.264 61.145V63.4706H305.752L306.56 65.2147C306.731 65.2004 306.903 65.2289 307.064 65.2983C307.145 65.3426 307.212 65.4196 307.252 65.5163C307.301 65.7226 307.319 65.9379 307.306 66.1522V72.4457C307.319 72.6587 307.3 72.8728 307.252 73.0779C307.214 73.1724 307.194 73.256 307.105 73.3068C307.015 73.3577 307.012 73.3541 306.764 73.3541H306.761L305.752 75.0982H308.261V77.4238H309.443V75.0982H310.365V77.4238H311.519V75.0837C312.102 75.0711 312.68 74.9447 313.231 74.7094C313.742 74.4871 314.19 74.0896 314.52 73.5648C314.808 73.0065 314.965 72.3634 314.975 71.7044C315.006 71.1715 314.953 70.6364 314.82 70.1274ZM309.443 65.4328H309.443V65.3844H310.249C310.703 65.3844 312.214 65.194 312.239 66.7496C312.264 68.3052 310.249 68.2416 310.249 68.2416H309.443V68.1217H309.443V65.4328ZM309.443 69.8658H310.365C310.553 69.8658 311.197 69.9018 311.432 69.9152C311.528 69.9197 311.623 69.941 311.714 69.9785C311.747 69.9927 311.778 70.0086 311.812 70.0264C311.955 70.0847 312.089 70.1703 312.21 70.2801C312.289 70.3463 312.359 70.4287 312.415 70.5235C312.503 70.6777 312.566 70.8497 312.604 71.0315C312.631 71.1587 312.645 71.2895 312.646 71.421C312.655 71.6715 312.605 71.92 312.502 72.1369C312.354 72.425 312.137 72.6508 311.88 72.7836C311.399 73.0231 310.884 73.143 310.365 73.1361H309.443V69.8658Z" fill="#FECE4E"/>
<path d="M410.473 297.897C413.804 297.897 416.505 294.609 416.505 290.553C416.505 286.497 413.804 283.209 410.473 283.209C407.141 283.209 404.44 286.497 404.44 290.553C404.44 294.609 407.141 297.897 410.473 297.897Z" fill="#FF6584"/>
<path d="M458.027 370.494V286.878" stroke="#3F3D56" stroke-width="2" stroke-miterlimit="10"/>
<path d="M458.026 298.703C463.391 298.703 467.739 293.409 467.739 286.878C467.739 280.348 463.391 275.054 458.026 275.054C452.662 275.054 448.313 280.348 448.313 286.878C448.313 293.409 452.662 298.703 458.026 298.703Z" fill="#3F3D56"/>
<path d="M438.898 333.696C424.868 359.888 428.712 393.202 428.712 393.202C428.712 393.202 455.303 384.049 469.333 357.856C483.362 331.664 479.518 298.35 479.518 298.35C479.518 298.35 452.927 307.503 438.898 333.696Z" fill="#3F3D56"/>
<path d="M428.637 392.898C428.637 392.898 428.296 392.831 427.667 392.677C427.166 392.553 426.476 392.376 425.633 392.132C418.097 389.969 398.062 382.658 384.964 363.434C368.57 339.362 369.261 305.731 369.261 305.731C369.261 305.731 394.327 310.69 410.845 332.307C411.56 333.236 412.257 334.199 412.934 335.195C427.199 356.14 428.528 384.321 428.634 391.288C428.648 392.332 428.637 392.898 428.637 392.898Z" fill="#FECE4E"/>
<path d="M418.527 333.696C432.556 359.888 428.712 393.202 428.712 393.202C428.712 393.202 402.121 384.049 388.092 357.856C374.062 331.664 377.906 298.35 377.906 298.35C377.906 298.35 404.497 307.503 418.527 333.696Z" stroke="#3F3D56" stroke-width="2" stroke-miterlimit="10"/>
<path opacity="0.1" d="M428.633 391.288C428.263 391.832 427.936 392.296 427.667 392.677C427.071 393.504 426.733 393.937 426.733 393.937C426.733 393.937 426.323 393.309 425.632 392.133C421.843 385.701 409.653 362.832 410.594 336.416C410.644 335.032 410.728 333.662 410.844 332.307C411.56 333.236 412.256 334.199 412.934 335.195C427.198 356.14 428.528 384.321 428.633 391.288Z" fill="black"/>
<path d="M449.436 338.326C448.327 369.567 429.278 393.937 429.278 393.937C429.278 393.937 412.027 367.657 413.136 336.417C414.245 305.176 433.294 280.806 433.294 280.806C433.294 280.806 450.545 307.086 449.436 338.326Z" fill="#FECE4E"/>
<path d="M429.278 393.053L433.466 282.08" stroke="#3F3D56" stroke-width="2" stroke-miterlimit="10"/>
<path d="M29.5571 393.174H464.659" stroke="#3F3D56" stroke-width="2" stroke-miterlimit="10"/>
<path d="M121.967 257.839C134.104 257.839 143.943 245.861 143.943 231.086C143.943 216.31 134.104 204.333 121.967 204.333C109.831 204.333 99.9917 216.31 99.9917 231.086C99.9917 245.861 109.831 257.839 121.967 257.839Z" fill="#FECE4E"/>
<path d="M84.6148 320.803C96.7516 320.803 106.59 308.825 106.59 294.05C106.59 279.274 96.7516 267.296 84.6148 267.296C72.478 267.296 62.6392 279.274 62.6392 294.05C62.6392 308.825 72.478 320.803 84.6148 320.803Z" fill="#FECE4E"/>
<path d="M38.6416 371.087C50.7784 371.087 60.6172 359.109 60.6172 344.333C60.6172 329.558 50.7784 317.58 38.6416 317.58C26.5048 317.58 16.666 329.558 16.666 344.333C16.666 359.109 26.5048 371.087 38.6416 371.087Z" fill="#FECE4E"/>
<path d="M38.6221 392.716V344.186" stroke="#3F3D56" stroke-width="2" stroke-miterlimit="10"/>
<path d="M38.622 351.049C41.7354 351.049 44.2592 347.976 44.2592 344.186C44.2592 340.396 41.7354 337.323 38.622 337.323C35.5087 337.323 32.9849 340.396 32.9849 344.186C32.9849 347.976 35.5087 351.049 38.622 351.049Z" fill="#3F3D56"/>
<path d="M38.6223 374.096C38.6223 374.096 37.817 353.009 21.3081 355.46L38.6223 374.096Z" fill="#3F3D56"/>
<path d="M121.981 393.056V231.184" stroke="#3F3D56" stroke-width="2" stroke-miterlimit="10"/>
<path d="M121.981 237.97C125.094 237.97 127.618 234.898 127.618 231.107C127.618 227.317 125.094 224.245 121.981 224.245C118.868 224.245 116.344 227.317 116.344 231.107C116.344 234.898 118.868 237.97 121.981 237.97Z" fill="#3F3D56"/>
<path d="M104.667 355.085C107.78 355.085 110.304 352.013 110.304 348.223C110.304 344.432 107.78 341.36 104.667 341.36C101.554 341.36 99.0298 344.432 99.0298 348.223C99.0298 352.013 101.554 355.085 104.667 355.085Z" fill="#3F3D56"/>
<path d="M121.981 266.163C121.981 266.163 121.176 245.077 104.667 247.528L121.981 266.163Z" fill="#3F3D56"/>
<path d="M121.981 325.94C121.981 325.94 121.176 304.854 104.667 307.305L121.981 325.94Z" fill="#3F3D56"/>
<path d="M121.981 391.17C121.981 391.17 125.605 350.183 104.667 348.223" stroke="#3F3D56" stroke-width="2" stroke-miterlimit="10"/>
<path d="M139.297 355.085C142.411 355.085 144.935 352.013 144.935 348.223C144.935 344.432 142.411 341.36 139.297 341.36C136.184 341.36 133.66 344.432 133.66 348.223C133.66 352.013 136.184 355.085 139.297 355.085Z" fill="#3F3D56"/>
<path d="M121.983 391.17C121.983 391.17 118.359 350.183 139.297 348.223" stroke="#3F3D56" stroke-width="2" stroke-miterlimit="10"/>
<path d="M139.642 290.71C142.755 290.71 145.279 287.638 145.279 283.847C145.279 280.057 142.755 276.985 139.642 276.985C136.528 276.985 134.004 280.057 134.004 283.847C134.004 287.638 136.528 290.71 139.642 290.71Z" fill="#3F3D56"/>
<path d="M122.327 324.608C122.327 324.608 118.703 285.808 139.641 283.847" stroke="#3F3D56" stroke-width="2" stroke-miterlimit="10"/>
<path d="M84.6348 392.828V294.02" stroke="#3F3D56" stroke-width="2" stroke-miterlimit="10"/>
<path d="M84.6347 300.883C87.7481 300.883 90.2719 297.81 90.2719 294.02C90.2719 290.23 87.7481 287.157 84.6347 287.157C81.5214 287.157 78.9976 290.23 78.9976 294.02C78.9976 297.81 81.5214 300.883 84.6347 300.883Z" fill="#3F3D56"/>
<path d="M84.6345 321.969C84.6345 321.969 83.8292 300.883 67.3203 303.333L84.6345 321.969Z" fill="#3F3D56"/>
<path d="M84.6345 390.941C84.6345 390.941 88.2584 350.392 67.3203 348.432" stroke="#3F3D56" stroke-width="2" stroke-miterlimit="10"/>
<path d="M67.3208 355.294C70.4341 355.294 72.958 352.222 72.958 348.432C72.958 344.641 70.4341 341.569 67.3208 341.569C64.2074 341.569 61.6836 344.641 61.6836 348.432C61.6836 352.222 64.2074 355.294 67.3208 355.294Z" fill="#3F3D56"/>
<path d="M394.196 242.716C399.308 242.716 403.453 237.67 403.453 231.446C403.453 225.221 399.308 220.176 394.196 220.176C389.083 220.176 384.938 225.221 384.938 231.446C384.938 237.67 389.083 242.716 394.196 242.716Z" fill="#F2F2F2"/>
<path opacity="0.1" d="M296.238 313.653C284.43 320.19 269.222 319.727 269.222 319.727H252.765V315.901C259.472 313.622 268.744 312.213 278.994 312.213C284.763 312.189 290.526 312.67 296.238 313.653Z" fill="black"/>
<path opacity="0.1" d="M316.023 324.735C316.023 331.654 299.442 337.258 278.994 337.258C258.546 337.258 241.965 331.654 241.965 324.735C241.965 321.286 246.089 318.161 252.765 315.901V319.727H269.222C269.222 319.727 284.43 320.19 296.238 313.653C308 315.745 316.023 319.921 316.023 324.735Z" fill="black"/>
<path d="M283.724 246.766H267.969V265.981H283.724V246.766Z" fill="#2F2E41"/>
<path d="M273.827 260.355C273.827 260.355 275.132 265.911 272.849 266.308C271.433 266.577 270.091 267.258 268.937 268.293L273.175 275.04H281L285.89 269.087C285.89 269.087 279.37 263.133 280.674 259.561C281.978 255.989 273.827 260.355 273.827 260.355Z" fill="#FFB9B9"/>
<path opacity="0.1" d="M273.827 260.355C273.827 260.355 275.132 265.911 272.849 266.308C271.433 266.577 270.091 267.258 268.937 268.293L273.175 275.04H281L285.89 269.087C285.89 269.087 279.37 263.133 280.674 259.561C281.978 255.989 273.827 260.355 273.827 260.355Z" fill="black"/>
<path d="M275.784 329.417L283.283 332.592L288.498 332.989L288.172 327.432L277.414 323.558L275.784 329.417Z" fill="#FFB9B9"/>
<path d="M285.401 328.226C285.401 328.226 285.401 333.783 286.053 333.783C286.706 333.783 295.508 332.592 298.116 333.783C300.725 334.973 304.637 330.607 302.681 328.226C300.725 325.845 297.534 322.272 295.543 323.066C293.552 323.86 285.401 325.845 285.401 325.845L285.401 328.226Z" fill="#2F2E41"/>
<path d="M261.438 323.066C261.438 323.066 257.526 332.592 260.134 333.386C262.742 334.18 265.676 332.989 266.002 332.592C266.328 332.195 270.893 330.607 271.545 331.401C272.197 332.195 272.197 328.226 272.197 328.226L261.438 323.066Z" fill="#2F2E41"/>
<path d="M264.699 309.968C264.699 309.968 258.504 320.288 263.069 323.066C267.633 325.845 289.477 325.845 291.107 323.066C292.737 320.288 293.389 311.556 291.107 310.762C288.825 309.968 264.699 309.968 264.699 309.968Z" fill="#2F2E41"/>
<path opacity="0.2" d="M264.699 309.968C264.699 309.968 258.504 320.288 263.069 323.066C267.633 325.845 289.477 325.845 291.107 323.066C292.737 320.288 293.389 311.556 291.107 310.762C288.825 309.968 264.699 309.968 264.699 309.968Z" fill="black"/>
<path d="M276.436 263.133C280.577 263.133 283.934 259.046 283.934 254.004C283.934 248.962 280.577 244.875 276.436 244.875C272.294 244.875 268.937 248.962 268.937 254.004C268.937 259.046 272.294 263.133 276.436 263.133Z" fill="#FFB9B9"/>
<path d="M264.699 268.293L271.219 266.705C271.219 266.705 272.849 273.056 278.066 271.865C283.282 270.674 284.586 266.705 284.586 266.705C284.586 266.705 288.499 268.69 288.825 268.69C289.151 268.69 293.389 270.674 293.389 271.865C293.389 273.056 288.499 284.963 288.499 284.963L289.151 306.396L265.025 305.602L266.655 284.566L264.699 268.293Z" fill="#FECE4E"/>
<path d="M261.113 278.613C261.113 278.613 259.156 299.649 260.46 301.236C261.765 302.824 266.981 307.19 266.981 307.19V302.427L264.373 296.473L266.981 282.582L261.113 278.613Z" fill="#FFB9B9"/>
<path d="M294.856 278.017C294.856 278.017 293.715 299.649 293.715 300.442C293.715 301.236 290.781 304.015 289.803 304.015C288.825 304.015 288.173 302.03 288.173 302.03L290.455 298.855L288.825 282.582L294.856 278.017Z" fill="#FFB9B9"/>
<path d="M291.759 308.381C291.759 308.381 306.43 298.458 306.756 308.381C307.082 318.303 299.258 322.272 299.258 322.272C299.258 322.272 279.044 329.651 278.229 326.954C277.414 324.257 275.784 319.891 277.088 319.494C278.392 319.097 280.022 318.303 280.674 319.097C281.326 319.891 289.477 313.143 289.477 313.143L291.759 308.381Z" fill="#2F2E41"/>
<path opacity="0.2" d="M298.605 307.19C298.605 307.19 295.671 308.778 294.693 309.968C293.715 311.159 289.477 313.144 289.477 313.144" stroke="black" stroke-width="2" stroke-miterlimit="10"/>
<path d="M266.655 269.087L264.699 268.293C264.699 268.293 257.526 277.422 259.808 279.803C262.09 282.184 263.395 282.978 264.047 283.772C264.699 284.566 267.959 284.963 267.959 284.963L266.655 269.087Z" fill="#FECE4E"/>
<path d="M290.455 271.071L293.389 271.865C293.389 271.865 295.671 277.819 296.323 278.613C296.975 279.406 295.345 279.009 294.367 280.597C293.389 282.185 292.411 284.963 290.455 284.963C288.499 284.963 285.891 280.994 285.891 280.994L290.455 271.071Z" fill="#FECE4E"/>
<path d="M265.351 311.953C265.351 311.953 252.962 301.236 248.723 309.174C244.485 317.113 266.981 327.829 270.241 329.417C273.501 331.004 276.436 332.592 276.436 332.592C276.436 332.592 279.37 323.86 279.37 322.272C279.37 320.685 277.088 320.685 276.436 320.685C275.784 320.685 272.849 319.891 272.197 318.7C271.545 317.509 265.351 311.953 265.351 311.953Z" fill="#2F2E41"/>
<path opacity="0.2" d="M258.504 309.174C258.504 309.174 261.764 312.35 264.698 313.143C267.633 313.937 268.611 315.922 268.611 315.922" stroke="black" stroke-width="2" stroke-miterlimit="10"/>
<path d="M263.101 294.251L263.362 311.056C263.37 311.611 263.559 312.14 263.886 312.526C264.213 312.913 264.653 313.126 265.109 313.12L290.798 312.769C291.235 312.763 291.655 312.555 291.972 312.187C292.288 311.819 292.478 311.318 292.503 310.786L293.283 294.332C293.297 294.046 293.262 293.76 293.182 293.491C293.101 293.222 292.976 292.975 292.815 292.767C292.653 292.559 292.458 292.393 292.242 292.279C292.026 292.166 291.793 292.107 291.558 292.107H264.829C264.599 292.107 264.372 292.163 264.16 292.271C263.949 292.38 263.757 292.538 263.596 292.738C263.435 292.937 263.308 293.174 263.223 293.434C263.139 293.694 263.097 293.971 263.101 294.251Z" fill="#575A89"/>
<path d="M260.131 268.393C260.83 266.513 261.77 264.749 262.218 262.759C262.755 260.374 262.546 257.85 262.482 255.378C262.38 253.192 262.533 250.999 262.937 248.865C263.347 246.72 264.267 244.771 265.582 243.259C268.998 239.546 275.251 239.28 279.423 240.825C281.068 241.435 282.82 242.595 283.228 244.628C283.289 244.935 283.317 245.252 283.386 245.556C283.727 247.07 284.999 248.028 285.458 249.495C286.052 251.393 285.137 253.456 285.017 255.482C284.877 257.846 285.832 260.08 286.773 262.155C287.333 263.389 287.914 264.703 287.859 266.111C287.812 266.881 287.62 267.627 287.297 268.292C286.697 269.496 285.856 270.495 284.853 271.195C283.849 271.896 282.716 272.274 281.559 272.295C280.808 272.369 280.056 272.153 279.41 271.678C278.392 270.824 278.094 269.106 278.306 267.623C278.518 266.14 279.136 264.799 279.621 263.415C279.769 262.99 279.904 262.558 280.027 262.121C281.529 261.101 282.687 259.467 283.295 257.508C283.904 255.549 283.924 253.392 283.353 251.416C282.781 249.441 281.655 247.775 280.173 246.713C278.69 245.65 276.947 245.26 275.251 245.61C273.555 245.96 272.015 247.028 270.904 248.627C269.792 250.225 269.18 252.25 269.176 254.344C269.171 256.438 269.775 258.467 270.88 260.072C271.985 261.677 273.52 262.755 275.215 263.115C275.58 265.355 275.414 267.676 274.736 269.805C274.12 271.538 273.346 273.18 272.429 274.703C272.054 275.484 271.554 276.165 270.959 276.706C270.566 276.989 270.145 277.207 269.706 277.357C267.865 278.078 265.926 278.658 264.01 278.334C262.094 278.009 260.196 276.603 259.543 274.386C258.971 272.443 259.431 270.272 260.131 268.393Z" fill="#2F2E41"/>
<path d="M276.072 254.368C280.467 254.368 284.03 251.91 284.03 248.878C284.03 245.846 280.467 243.388 276.072 243.388C271.677 243.388 268.114 245.846 268.114 248.878C268.114 251.91 271.677 254.368 276.072 254.368Z" fill="#2F2E41"/>
<path opacity="0.3" d="M397.656 232.101C397.535 231.736 397.312 231.435 397.027 231.251C396.849 231.124 396.657 231.029 396.458 230.968C396.592 230.889 396.716 230.785 396.823 230.658C396.982 230.477 397.103 230.251 397.172 230C397.237 229.742 397.264 229.473 397.251 229.204C397.25 228.757 397.147 228.319 396.955 227.939C396.741 227.591 396.448 227.326 396.113 227.176C395.787 227.023 395.442 226.938 395.093 226.925V225.121L394.197 225.827V226.928H393.48V225.77L392.562 225.121V226.928H390.61L391.238 228.283C391.371 228.272 391.504 228.294 391.63 228.348C391.693 228.383 391.744 228.442 391.775 228.518C391.814 228.678 391.828 228.845 391.818 229.012V233.902C391.828 234.068 391.813 234.234 391.775 234.393C391.746 234.467 391.731 234.532 391.661 234.571C391.592 234.611 391.589 234.608 391.397 234.608H391.394L390.61 235.963H392.559V237.77H393.478V235.963H394.195V237.77H395.091V235.952C395.545 235.942 395.994 235.844 396.422 235.661C396.819 235.488 397.167 235.18 397.423 234.772C397.647 234.338 397.769 233.838 397.777 233.326C397.801 232.912 397.76 232.496 397.656 232.101ZM393.478 228.453H393.478V228.415H394.105C394.457 228.415 395.631 228.267 395.651 229.476C395.671 230.685 394.105 230.635 394.105 230.635H393.478V230.542H393.478V228.453ZM393.478 231.897H394.195C394.341 231.897 394.841 231.925 395.024 231.936C395.098 231.939 395.172 231.956 395.243 231.985C395.268 231.996 395.293 232.008 395.319 232.022C395.43 232.068 395.534 232.134 395.628 232.219C395.69 232.271 395.744 232.335 395.788 232.409C395.856 232.528 395.905 232.662 395.934 232.803C395.955 232.902 395.967 233.004 395.967 233.106C395.974 233.301 395.936 233.494 395.855 233.662C395.74 233.886 395.571 234.062 395.372 234.165C394.998 234.351 394.598 234.444 394.195 234.439H393.478V231.897Z" fill="#FECE4E"/>
<path d="M33.163 282.16C38.2757 282.16 42.4203 277.114 42.4203 270.89C42.4203 264.666 38.2757 259.62 33.163 259.62C28.0504 259.62 23.9058 264.666 23.9058 270.89C23.9058 277.114 28.0504 282.16 33.163 282.16Z" fill="#F2F2F2"/>
<path opacity="0.3" d="M36.6231 271.545C36.5019 271.181 36.2789 270.88 35.9935 270.695C35.8159 270.569 35.6243 270.474 35.4245 270.413C35.5591 270.334 35.6824 270.229 35.7896 270.102C35.9492 269.922 36.0693 269.696 36.1391 269.445C36.2042 269.187 36.2308 268.917 36.2175 268.648C36.2164 268.202 36.1141 267.764 35.9218 267.383C35.7073 267.036 35.4148 266.771 35.0794 266.621C34.7539 266.467 34.4091 266.382 34.0601 266.37V264.565L33.1639 265.271V266.373H32.447V265.215L31.5285 264.565V266.373H29.5771L30.2045 267.728C30.3374 267.717 30.4708 267.739 30.5965 267.793C30.6596 267.827 30.711 267.887 30.7421 267.962C30.7804 268.122 30.7948 268.29 30.7847 268.456V273.347C30.7945 273.512 30.78 273.679 30.7421 273.838C30.713 273.911 30.6973 273.976 30.6279 274.016C30.5584 274.055 30.5562 274.053 30.3635 274.053H30.3613L29.5772 275.408H31.5263V277.215H32.4448V275.408H33.1617V277.215H34.0579V275.397C34.5114 275.387 34.9606 275.289 35.3886 275.106C35.7859 274.933 36.1336 274.624 36.3901 274.216C36.6136 273.783 36.736 273.283 36.744 272.771C36.7676 272.357 36.7266 271.941 36.6231 271.545ZM32.4448 267.897H32.445V267.86H33.0715C33.4239 267.86 34.5982 267.712 34.6177 268.921C34.6375 270.129 33.0715 270.08 33.0715 270.08H32.445V269.987H32.4448L32.4448 267.897ZM32.4448 271.342H33.1617C33.3074 271.342 33.8083 271.37 33.9907 271.38C34.0651 271.384 34.1388 271.4 34.2093 271.43C34.2351 271.441 34.2595 271.453 34.286 271.467C34.3969 271.512 34.5012 271.579 34.5949 271.664C34.6566 271.715 34.7107 271.779 34.7546 271.853C34.8225 271.973 34.8721 272.107 34.9009 272.248C34.9223 272.347 34.9334 272.448 34.9338 272.55C34.9412 272.745 34.9024 272.938 34.822 273.107C34.707 273.331 34.5382 273.506 34.3386 273.609C33.9653 273.795 33.5651 273.889 33.1617 273.883H32.4448L32.4448 271.342Z" fill="#FECE4E"/>
</g>
<defs>
<clipPath id="clip0_338_4947">
<rect width="480" height="394" fill="white"/>
</clipPath>
</defs>
</svg>
