<svg width="435" height="280" viewBox="0 0 435 280" fill="none" xmlns="http://www.w3.org/2000/svg">
<path d="M382.041 131.651C381.986 130.186 381.85 128.725 381.634 127.274C380.999 123.445 379.924 119.397 378.256 114.54C377.018 110.955 375.894 107.696 374.672 104.476C374.369 103.674 374.086 102.846 373.809 102.048C373.03 99.7958 372.229 97.4655 370.955 95.5719C369.75 93.7891 368.626 91.9248 367.537 90.1257C365.641 86.9773 363.674 83.7246 361.263 80.8565C358.963 78.1155 357.057 76.3556 354.897 74.9704C353.071 73.8492 351.423 72.4593 350.01 70.8475C347.045 67.34 343.374 64.497 339.237 62.5039C334.552 60.2551 329.545 57.9215 324.348 56.2886C323.736 56.0963 323.123 55.891 322.534 55.6889C320.926 55.0909 319.269 54.6329 317.582 54.3201C315.301 53.9583 312.607 53.5085 309.971 52.9023C307.026 52.2363 304.024 51.8511 301.006 51.7518C300.582 51.7355 300.159 51.7257 299.735 51.7257C297.992 51.7257 296.236 51.8496 294.523 51.9702C293.33 52.0549 292.092 52.1429 290.871 52.1853C289.072 52.2003 287.278 52.3869 285.515 52.7426C282.514 53.4401 279.449 53.9876 276.484 54.5156L275.696 54.659C275.044 54.7764 274.376 54.8807 273.741 54.9849C272.244 55.1924 270.759 55.484 269.294 55.8584C267.786 56.2723 266.287 56.8362 264.834 57.3902C263.876 57.752 262.879 58.1268 261.902 58.4593C258.061 59.7401 254.038 61.5816 249.242 64.2476C243.734 67.3044 238.56 70.93 233.806 75.0649C231.712 76.9455 229.867 79.0856 228.314 81.4334C227.216 83.0435 226.16 84.7317 225.144 86.3679C224.29 87.7367 223.411 89.1512 222.502 90.5234C219.296 95.3796 216.56 100.529 214.328 105.904L213.833 107.08C212.634 109.925 211.396 112.868 210.373 115.818C208.936 119.964 208.298 124.201 207.666 128.914C207.402 130.895 207.34 132.922 207.252 134.888C207.196 136.364 207.138 137.893 207.001 139.402C206.698 142.729 206.861 146.373 207.496 150.545C207.594 151.18 207.685 151.823 207.776 152.461C208.045 154.667 208.452 156.854 208.995 159.009C210.581 164.899 212.689 170.636 215.292 176.153C218.306 182.472 222.059 188.44 225.336 193.54C227.45 196.842 229.78 199.999 232.311 202.992C234.503 205.548 237.124 207.703 240.055 209.361C241.381 210.13 242.704 210.938 243.981 211.724C245.378 212.577 246.818 213.461 248.258 214.285C249.486 214.989 250.705 215.736 251.887 216.459C254.973 218.35 258.162 220.302 261.645 221.54C262.896 221.987 264.13 222.518 265.323 223.017C267.476 223.926 269.705 224.871 272.018 225.344C272.975 225.539 273.972 225.693 274.924 225.842C275.51 225.934 276.096 226.025 276.683 226.126C277.637 226.271 278.599 226.367 279.563 226.413C280.578 226.459 281.591 226.559 282.596 226.713C285.088 227.136 287.672 227.215 290.174 227.293C291.685 227.338 293.246 227.391 294.783 227.511C298.344 227.791 302.136 227.55 306.71 226.749C307.952 226.53 309.216 226.387 310.437 226.25C312.312 226.085 314.172 225.782 316.002 225.344C317.168 225.018 318.344 224.643 319.481 224.262C320.318 223.985 321.182 223.698 322.042 223.44C326.038 222.271 329.908 220.707 333.594 218.77C335.875 217.551 338.155 216.189 340.338 214.859C342.918 213.308 345.586 211.704 348.333 210.296C349.639 209.687 350.834 208.864 351.871 207.861C355.057 204.54 358.79 200.571 362.328 196.314C365.019 193.081 367.818 189.59 369.899 185.63C370.486 184.516 371.03 183.349 371.554 182.215C372.319 180.499 373.17 178.824 374.105 177.195C377.063 172.245 380.526 161.278 380.621 161.02C381.352 158.648 381.811 156.201 381.989 153.726C382.08 152.706 382.201 151.686 382.315 150.698C382.606 148.668 382.758 146.621 382.771 144.571C382.716 140.891 382.54 137.511 382.234 134.236C382.142 133.398 382.093 132.515 382.041 131.651Z" fill="#B8D9E5"/>
<path d="M432.528 131.41C432.407 130.107 432.329 128.761 432.257 127.46C432.165 125.109 431.948 122.764 431.606 120.437C430.589 114.378 428.895 108.003 426.289 100.363C424.37 94.7801 422.627 89.7478 420.725 84.7189C420.268 83.513 419.832 82.2484 419.421 81.0262C418.17 77.3987 416.88 73.6506 414.733 70.4664C412.906 67.7612 411.182 64.9029 409.521 62.1391C406.537 57.1949 403.451 52.0845 399.604 47.5053C395.884 43.076 392.782 40.2177 389.231 37.9395C386.257 36.0329 384.018 34.1491 382.21 32.0176C377.413 26.3419 371.473 21.743 364.778 18.5212C357.457 15.0045 349.625 11.3509 341.438 8.78595C340.52 8.49588 339.585 8.17974 338.682 7.87337C336.115 7.00316 333.47 6.10688 330.645 5.66037C327.146 5.10957 323.032 4.41861 319.025 3.49952C314.328 2.4376 309.542 1.82213 304.729 1.66133C301.273 1.52444 297.806 1.76888 294.454 2.00354C292.626 2.13391 290.737 2.26754 288.886 2.32946C285.886 2.44028 282.964 2.59346 280.162 3.2453C275.578 4.31106 270.864 5.15194 266.306 5.96674L265.088 6.1851C264.11 6.3611 263.081 6.51102 262.097 6.67724C259.682 7.01372 257.288 7.48817 254.927 8.09826C252.486 8.76965 250.115 9.66919 247.821 10.5361C246.362 11.0902 244.853 11.6606 243.358 12.1657C237.276 14.1962 230.926 17.0937 223.378 21.2915C214.719 26.1019 206.586 31.8027 199.11 38.3013C196.025 40.9934 193.116 44.3602 190.223 48.5939C188.493 51.1263 186.851 53.763 185.261 56.3149C183.958 58.4139 182.599 60.591 181.211 62.6802C176.176 70.3078 171.874 78.3952 168.362 86.8341L167.616 88.6299C165.75 93.0625 163.818 97.6514 162.212 102.286C159.931 108.905 158.908 115.584 157.918 122.998C157.491 126.173 157.371 129.37 157.266 132.45C157.182 134.702 157.094 137.036 156.888 139.311C156.403 144.649 156.66 150.47 157.673 157.109C157.823 158.087 157.96 159.065 158.1 160.042C158.589 163.484 159.094 167.04 160.035 170.472C162.516 179.73 165.816 188.749 169.897 197.422C174.621 207.324 180.469 216.629 185.58 224.575C188.903 229.773 192.569 234.745 196.553 239.456C200.114 243.613 204.372 247.118 209.134 249.814C211.161 250.987 213.197 252.232 215.161 253.438C217.334 254.768 219.582 256.143 221.84 257.437C223.703 258.506 225.58 259.653 227.378 260.762C232.249 263.747 237.289 266.833 242.905 268.831C244.775 269.499 246.652 270.295 248.469 271.064C251.903 272.517 255.458 274.023 259.263 274.802C260.797 275.128 262.358 275.356 263.866 275.591C264.762 275.731 265.658 275.868 266.551 276.021C268.107 276.263 269.675 276.42 271.248 276.494C272.739 276.565 274.226 276.712 275.702 276.934C279.712 277.615 283.791 277.739 287.74 277.863C290.046 277.934 292.431 278.009 294.757 278.189C296.288 278.312 297.839 278.371 299.435 278.371C304.25 278.326 309.052 277.861 313.786 276.979C315.64 276.653 317.559 276.438 319.412 276.23C322.344 275.904 325.397 275.558 328.355 274.766C330.225 274.268 332.082 273.652 333.874 273.055C335.151 272.632 336.48 272.192 337.783 271.804C344.111 269.95 350.239 267.471 356.076 264.402C359.66 262.492 363.198 260.37 366.612 258.317C370.57 255.941 374.665 253.484 378.835 251.359C380.809 250.352 383.07 249.077 384.934 247.122C389.889 241.956 395.685 235.78 401.223 229.141C405.458 224.043 409.879 218.535 413.205 212.193C414.137 210.423 414.991 208.585 415.812 206.809C416.958 204.229 418.235 201.709 419.64 199.26C424.37 191.344 429.934 173.77 429.934 173.711C431.029 170.332 431.73 166.597 432.143 161.978C432.28 160.437 432.469 158.876 432.648 157.363C433.029 154.186 433.42 150.894 433.371 147.586C433.284 141.827 433.01 136.54 432.528 131.41ZM382.497 151.05C382.38 152.028 382.256 153.061 382.171 154.078C381.995 156.555 381.536 159.003 380.803 161.375C380.722 161.633 377.258 172.597 374.287 177.551C373.352 179.178 372.502 180.852 371.74 182.567C371.212 183.698 370.668 184.871 370.081 185.982C368 189.946 365.195 193.433 362.513 196.666C358.972 200.923 355.239 204.892 352.056 208.213C351.019 209.217 349.822 210.041 348.515 210.651C345.771 212.046 343.103 213.65 340.52 215.214C338.327 216.518 336.063 217.893 333.776 219.109C330.091 221.046 326.222 222.612 322.227 223.783C321.364 224.04 320.5 224.327 319.666 224.604C318.526 224.982 317.35 225.373 316.184 225.686C314.359 226.12 312.504 226.417 310.636 226.576C309.411 226.713 308.147 226.856 306.905 227.074C302.344 227.879 298.542 228.121 294.978 227.837C293.441 227.716 291.88 227.668 290.369 227.622C287.87 227.544 285.283 227.462 282.791 227.042C281.787 226.889 280.776 226.788 279.761 226.739C278.797 226.695 277.835 226.599 276.881 226.452C276.295 226.351 275.708 226.26 275.119 226.168C274.161 226.022 273.164 225.868 272.216 225.67C269.9 225.197 267.674 224.255 265.521 223.343C264.325 222.837 263.091 222.316 261.84 221.869C258.357 220.628 255.168 218.675 252.082 216.785C250.903 216.065 249.681 215.315 248.456 214.614C247.017 213.79 245.573 212.907 244.179 212.053C242.899 211.267 241.573 210.456 240.25 209.69C237.32 208.033 234.7 205.878 232.509 203.321C229.976 200.33 227.645 197.173 225.534 193.87C222.254 188.772 218.504 182.788 215.487 176.482C212.885 170.966 210.778 165.23 209.19 159.342C208.65 157.18 208.246 154.986 207.978 152.774C207.887 152.122 207.795 151.497 207.698 150.858C207.062 146.686 206.899 143.036 207.202 139.718C207.339 138.206 207.398 136.677 207.453 135.201C207.528 133.245 207.603 131.208 207.87 129.23C208.499 124.517 209.138 120.277 210.574 116.131C211.601 113.182 212.838 110.238 214.034 107.393L214.529 106.22C216.762 100.852 219.498 95.7076 222.7 90.856C223.609 89.4871 224.492 88.0694 225.342 86.7038C226.362 85.0742 227.414 83.3761 228.515 81.7661C230.068 79.4181 231.914 77.278 234.008 75.3976C238.763 71.2655 243.935 67.6402 249.44 64.5803C254.226 61.9045 258.25 60.0663 262.094 58.7854C263.087 58.4595 264.078 58.0782 265.026 57.7131C266.476 57.1656 267.974 56.5952 269.483 56.1813C270.948 55.8069 272.434 55.5153 273.933 55.3078C274.584 55.2068 275.236 55.1025 275.887 54.9819L276.676 54.8418C279.641 54.3138 282.709 53.7662 285.71 53.0655C287.474 52.7122 289.267 52.5267 291.066 52.5114C292.287 52.4658 293.522 52.3778 294.715 52.2963C296.425 52.1757 298.181 52.0519 299.927 52.0519C300.354 52.0519 300.777 52.0519 301.198 52.0747C304.216 52.175 307.218 52.5614 310.163 53.2285C312.799 53.8314 315.49 54.2812 317.777 54.643C319.463 54.9569 321.118 55.416 322.725 56.0151C323.318 56.2139 323.931 56.4225 324.54 56.6148C329.736 58.2444 334.744 60.578 339.428 62.8301C343.567 64.8208 347.24 67.6628 350.205 71.1704C351.616 72.7847 353.264 74.1749 355.092 75.2933C357.249 76.6784 359.155 78.4384 361.458 81.1794C363.869 84.0475 365.833 87.3034 367.733 90.4486C368.817 92.2509 369.945 94.1152 371.147 95.898C372.424 97.7916 373.225 100.119 374.001 102.371C374.278 103.173 374.561 104 374.867 104.802C376.089 108.025 377.21 111.265 378.451 114.863C380.119 119.723 381.194 123.767 381.832 127.6C382.046 129.051 382.18 130.512 382.236 131.977C382.285 132.831 382.337 133.715 382.419 134.585C382.722 137.86 382.901 141.243 382.956 144.92C382.941 146.971 382.788 149.019 382.497 151.05Z" fill="#FEE77B"/>
<path d="M383.866 131.884C383.807 130.357 383.665 128.834 383.439 127.322C382.788 123.411 381.693 119.275 379.992 114.324C378.751 110.709 377.621 107.453 376.409 104.22C376.125 103.477 375.858 102.695 375.598 101.939L375.558 101.835C374.75 99.4847 373.913 97.0533 372.516 94.9903C371.323 93.2205 370.167 91.3041 369.147 89.6126C367.218 86.4153 365.238 83.0942 362.726 80.1381C360.312 77.2634 358.298 75.409 355.992 73.926C354.305 72.892 352.783 71.6085 351.48 70.1193C348.366 66.439 344.511 63.4562 340.169 61.365C335.432 59.0836 330.366 56.7304 325.062 55.0617C324.495 54.8857 323.928 54.6934 323.378 54.5077L323.257 54.4685C321.571 53.8422 319.833 53.3634 318.064 53.0378C315.813 52.6825 313.177 52.2392 310.571 51.6428C307.527 50.954 304.425 50.5557 301.306 50.4532C300.889 50.4336 300.452 50.4271 299.97 50.4271C298.159 50.4271 296.386 50.5542 294.647 50.6748C293.529 50.753 292.259 50.8443 291.063 50.8867C289.147 50.8986 287.237 51.0951 285.359 51.4733C282.401 52.1643 279.358 52.7053 276.409 53.2333L275.621 53.3735C274.969 53.4875 274.318 53.5886 273.692 53.6994C272.134 53.9167 270.59 54.2214 269.066 54.6119C267.496 55.0454 265.971 55.6223 264.505 56.1796H264.473C263.531 56.5349 262.557 56.9032 261.593 57.2258C257.651 58.5295 253.539 60.4199 248.653 63.1348C243.047 66.25 237.781 69.9409 232.94 74.1476C230.741 76.1185 228.803 78.3628 227.174 80.8257C226.053 82.4554 224.991 84.1697 223.965 85.8189L223.919 85.8906C223.088 87.2268 222.228 88.6055 221.349 89.932C218.087 94.8715 215.302 100.11 213.031 105.576L212.539 106.749C211.331 109.614 210.086 112.577 209.04 115.585C207.555 119.874 206.9 124.199 206.258 129C205.981 131.06 205.903 133.13 205.828 135.127C205.776 136.581 205.718 138.08 205.584 139.557C205.258 143.018 205.437 146.792 206.092 151.091C206.183 151.678 206.265 152.264 206.35 152.848L206.369 152.991C206.645 155.271 207.064 157.53 207.623 159.757C209.235 165.741 211.377 171.57 214.022 177.174C217.081 183.585 220.863 189.602 224.167 194.742C226.318 198.106 228.69 201.323 231.269 204.373C233.581 207.072 236.346 209.348 239.439 211.096C240.782 211.875 242.137 212.706 243.333 213.44L243.407 213.485C244.789 214.333 246.216 215.206 247.643 216.027C248.855 216.722 250.063 217.458 251.226 218.175C254.38 220.105 257.641 222.086 261.286 223.39C262.492 223.82 263.704 224.332 264.886 224.831C267.111 225.772 269.412 226.747 271.884 227.252C272.862 227.457 273.878 227.614 274.865 227.767C275.445 227.855 276.022 227.943 276.595 228.044C277.596 228.199 278.604 228.3 279.615 228.347H279.657C280.614 228.393 281.568 228.487 282.515 228.631C285.121 229.071 287.76 229.152 290.314 229.23C291.724 229.276 293.327 229.325 294.845 229.446C295.839 229.524 296.846 229.563 297.882 229.563C301.001 229.534 304.113 229.232 307.18 228.66C308.388 228.448 309.62 228.311 310.809 228.178C312.764 228.007 314.703 227.69 316.611 227.229C317.816 226.903 319.009 226.512 320.195 226.118C320.97 225.86 321.85 225.567 322.706 225.313C326.806 224.112 330.775 222.505 334.555 220.515C336.859 219.29 339.116 217.931 341.312 216.604L341.374 216.568C343.922 215.037 346.554 213.453 349.268 212.071C350.739 211.382 352.083 210.448 353.242 209.31C356.454 205.963 360.214 201.964 363.778 197.678C366.521 194.38 369.382 190.814 371.538 186.711C372.141 185.56 372.695 184.374 373.229 183.224C373.97 181.56 374.794 179.935 375.699 178.354C378.52 173.635 381.729 163.815 382.341 161.895V161.846C383.112 159.359 383.595 156.791 383.781 154.194C383.872 153.187 383.999 152.137 384.107 151.215C384.414 149.123 384.576 147.013 384.592 144.898C384.534 141.176 384.358 137.754 384.045 134.436C383.964 133.586 383.915 132.719 383.866 131.884ZM380.885 150.856C380.771 151.802 380.641 152.874 380.559 153.933C380.39 156.287 379.953 158.614 379.256 160.869L379.237 160.931C378.64 162.792 375.539 172.299 372.9 176.712C371.931 178.387 371.049 180.111 370.258 181.877C369.74 182.992 369.202 184.143 368.629 185.221C366.619 189.048 363.879 192.457 361.247 195.625C357.748 199.829 354.037 203.773 350.867 207.084C349.954 207.953 348.905 208.666 347.763 209.196C344.951 210.63 342.267 212.243 339.67 213.801L339.611 213.837C337.455 215.141 335.226 216.471 332.998 217.657C329.409 219.547 325.64 221.076 321.749 222.22C320.843 222.487 319.937 222.79 319.113 223.064C318.005 223.432 316.862 223.814 315.751 224.11C314 224.525 312.221 224.812 310.428 224.967C309.245 225.101 307.903 225.251 306.596 225.482C302.166 226.258 298.507 226.496 295.083 226.225C293.487 226.098 291.845 226.049 290.395 226.004C287.952 225.929 285.421 225.851 283.039 225.447C281.979 225.283 280.911 225.174 279.84 225.121H279.807C278.91 225.081 278.017 224.993 277.129 224.857C276.536 224.756 275.94 224.664 275.331 224.57C274.396 224.423 273.432 224.273 272.516 224.084C270.363 223.647 268.213 222.735 266.128 221.852C264.912 221.34 263.655 220.805 262.362 220.346C259.032 219.16 255.918 217.253 252.914 215.408C251.728 214.681 250.5 213.929 249.245 213.211C247.851 212.413 246.444 211.553 245.085 210.718L245.01 210.673C243.802 209.933 242.43 209.092 241.049 208.29C238.287 206.719 235.818 204.68 233.754 202.264C231.271 199.323 228.986 196.221 226.913 192.978C223.655 187.923 219.944 182.008 216.967 175.77C214.407 170.341 212.336 164.696 210.777 158.9C210.254 156.804 209.863 154.677 209.604 152.532L209.585 152.388C209.5 151.795 209.415 151.195 209.324 150.602C208.705 146.564 208.549 143.047 208.839 139.847C208.982 138.282 209.04 136.737 209.096 135.245C209.168 133.322 209.242 131.334 209.497 129.427C210.116 124.802 210.741 120.65 212.129 116.648C213.139 113.74 214.364 110.827 215.55 108.008L216.045 106.831C218.237 101.558 220.925 96.5054 224.072 91.7408C224.978 90.3752 225.851 88.9738 226.678 87.6179L226.724 87.5462C227.734 85.9166 228.776 84.2512 229.855 82.6574C231.328 80.4234 233.079 78.3862 235.067 76.5953C239.737 72.5378 244.816 68.978 250.223 65.9735C254.927 63.3662 258.863 61.5573 262.603 60.309C263.629 59.9831 264.636 59.5855 265.606 59.2172H265.639C267.043 58.686 268.496 58.1352 269.92 57.744C271.33 57.3862 272.759 57.1077 274.201 56.9097C274.852 56.8054 275.523 56.7011 276.185 56.5838L276.973 56.4436C279.96 55.9124 283.049 55.3616 286.095 54.6511C287.758 54.3237 289.447 54.1513 291.141 54.1361C292.405 54.0905 293.702 53.9992 294.845 53.9177C296.517 53.8004 298.247 53.6798 299.941 53.6798C300.377 53.6798 300.771 53.6798 301.149 53.7026C304.066 53.7987 306.966 54.1709 309.812 54.814C312.509 55.43 315.23 55.8863 317.536 56.2513C319.131 56.5528 320.697 56.9889 322.218 57.555L322.316 57.5876C322.889 57.7832 323.479 57.982 324.065 58.1677C329.164 59.768 334.109 62.0788 338.725 64.2983C342.659 66.1903 346.148 68.8926 348.965 72.228C350.478 73.9609 352.242 75.4562 354.2 76.6637C356.213 77.9674 358.008 79.6198 360.198 82.2272C362.534 85.004 364.459 88.1981 366.322 91.2878C367.365 93.0152 368.544 94.9675 369.782 96.8089C370.939 98.52 371.704 100.746 372.45 102.9L372.483 103.005C372.753 103.784 373.03 104.589 373.33 105.377C374.542 108.575 375.663 111.805 376.894 115.393C378.523 120.168 379.588 124.131 380.211 127.866C380.414 129.258 380.543 130.661 380.598 132.067C380.644 132.892 380.699 133.827 380.784 134.736C381.084 137.969 381.26 141.31 381.315 144.944C381.304 146.922 381.161 148.897 380.885 150.856Z" fill="#141414"/>
<path d="M434.152 131.26C434.031 129.956 433.953 128.574 433.881 127.349C433.786 124.948 433.561 122.554 433.207 120.178C432.184 114.035 430.47 107.572 427.815 99.8409C425.88 94.2155 424.124 89.1507 422.234 84.1608C421.795 83.0005 421.371 81.7783 420.964 80.592L420.938 80.5138C419.654 76.7885 418.332 72.9361 416.051 69.5759C414.269 66.9327 412.575 64.1265 410.94 61.4279L410.858 61.2942C407.848 56.3109 404.733 51.1548 400.814 46.4909C396.98 41.928 393.767 38.9719 390.063 36.6025C387.229 34.7806 385.111 33.0011 383.404 30.9901C378.458 25.1422 372.335 20.4035 365.434 17.0831C358.078 13.5208 350.184 9.84439 341.912 7.24029C341.039 6.96652 340.163 6.66993 339.189 6.33749H339.156C336.55 5.45098 333.83 4.53515 330.881 4.05604C327.415 3.51502 323.343 2.8371 319.358 1.9343C314.567 0.845076 309.684 0.21106 304.773 0.0407025C301.216 -0.0994434 297.71 0.148256 294.319 0.389437H294.218C292.436 0.513287 290.595 0.643656 288.803 0.715358C285.721 0.82943 282.708 0.989132 279.769 1.67357C275.238 2.72629 270.566 3.56391 266.047 4.36893L264.77 4.59707C263.861 4.76003 262.916 4.92299 262.004 5.05336L261.812 5.0827C259.35 5.42608 256.909 5.90812 254.501 6.52652C251.996 7.21747 249.585 8.12679 247.253 9.01004H247.22C245.787 9.55433 244.288 10.1149 242.851 10.6005C236.684 12.6897 230.231 15.623 222.597 19.8599C213.838 24.7241 205.611 30.4905 198.05 37.0653C194.857 39.8486 191.86 43.3164 188.885 47.6675C187.136 50.2292 185.484 52.8822 183.888 55.444L183.832 55.5352C182.529 57.5983 181.226 59.7298 179.861 61.7701C174.77 69.4833 170.42 77.6613 166.869 86.1946L166.107 88.0067C164.233 92.4588 162.298 97.0575 160.663 101.764C158.32 108.51 157.301 115.286 156.294 122.792C155.857 126.051 155.737 129.288 155.62 132.423C155.535 134.652 155.447 136.957 155.245 139.186C154.746 144.655 155.007 150.593 156.043 157.376C156.19 158.353 156.327 159.331 156.467 160.309C156.962 163.796 157.477 167.401 158.444 170.944C160.959 180.287 164.301 189.388 168.429 198.139C173.192 208.121 179.073 217.482 184.214 225.473C187.574 230.726 191.281 235.749 195.31 240.508C198.992 244.805 203.392 248.429 208.315 251.218C210.345 252.398 212.453 253.685 214.31 254.826C216.486 256.152 218.766 257.544 221.047 258.851C222.904 259.914 224.761 261.051 226.556 262.153C231.498 265.18 236.609 268.309 242.389 270.366C244.168 271.001 245.972 271.764 247.728 272.507L247.865 272.562C251.374 274.049 255.003 275.587 258.968 276.395C260.509 276.721 262.056 276.953 263.555 277.187L263.79 277.223C264.627 277.354 265.467 277.484 266.305 277.627C267.909 277.878 269.527 278.042 271.149 278.119H271.201C272.625 278.187 274.043 278.328 275.453 278.54C279.561 279.237 283.682 279.364 287.669 279.488H287.722C290.002 279.56 292.371 279.632 294.654 279.814C296.221 279.938 297.837 280 299.46 280C304.369 279.954 309.266 279.48 314.094 278.586C315.866 278.26 317.726 278.061 319.528 277.859H319.619C322.616 277.533 325.715 277.174 328.8 276.353C330.709 275.841 332.579 275.219 334.413 274.609L334.472 274.59C335.716 274.176 337.003 273.749 338.257 273.374C344.689 271.491 350.917 268.971 356.85 265.852C360.433 263.935 363.962 261.823 367.363 259.783L367.46 259.724C371.386 257.365 375.445 254.927 379.586 252.818C381.681 251.749 384.098 250.371 386.102 248.255C391.077 243.07 396.908 236.868 402.463 230.19C406.76 225.02 411.236 219.434 414.634 212.971C415.611 211.126 416.497 209.207 417.283 207.515L417.302 207.473C418.419 204.959 419.664 202.504 421.032 200.117C423.052 196.74 425.424 191.356 428.086 184.121C428.118 184.036 430.9 176.374 431.461 174.226H431.48C432.614 170.725 433.337 166.879 433.761 162.121C433.888 160.661 434.067 159.162 434.24 157.715L434.259 157.558C434.647 154.338 435.048 151.004 434.995 147.549C434.914 141.754 434.637 136.432 434.152 131.26ZM431.031 157.177L431.011 157.337C430.835 158.806 430.656 160.328 430.522 161.841C430.122 166.348 429.441 169.966 428.389 173.248L428.307 173.492C427.698 175.409 422.577 191.2 418.244 198.451C416.817 200.934 415.518 203.488 414.354 206.104L414.334 206.146C413.565 207.805 412.705 209.686 411.757 211.459C408.499 217.651 404.15 223.078 399.964 228.11C394.478 234.71 388.692 240.86 383.756 246.006C382.072 247.763 379.948 248.969 378.097 249.918C373.862 252.078 369.747 254.546 365.773 256.935L365.678 256.99C362.31 259.011 358.837 261.103 355.309 262.977C349.568 265.996 343.54 268.434 337.316 270.255C336.013 270.643 334.709 271.08 333.436 271.5L333.351 271.529C331.588 272.116 329.767 272.722 327.953 273.205C325.102 273.967 322.124 274.3 319.244 274.622H319.15C317.303 274.834 315.39 275.049 313.52 275.378C308.879 276.241 304.171 276.698 299.45 276.744C297.912 276.744 296.384 276.685 294.889 276.568C292.527 276.382 290.123 276.307 287.79 276.242H287.751C283.871 276.122 279.86 275.994 275.974 275.336C274.658 275.13 273.333 274.991 272.003 274.922L271.129 274.867C269.692 274.787 268.26 274.633 266.839 274.404C265.985 274.261 265.129 274.127 264.272 273.993L264.037 273.954C262.578 273.729 261.069 273.495 259.603 273.195C255.958 272.448 252.482 270.975 249.116 269.551L248.979 269.492C247.188 268.736 245.331 267.951 243.464 267.286C238.004 265.33 233.039 262.303 228.243 259.363C226.425 258.251 224.549 257.101 222.65 256.012C220.411 254.731 218.177 253.363 216.013 252.039C214.14 250.892 212.016 249.588 209.954 248.392C205.353 245.789 201.239 242.405 197.796 238.393C193.858 233.737 190.236 228.823 186.953 223.684C181.868 215.777 176.049 206.518 171.371 196.711C167.33 188.14 164.06 179.227 161.598 170.077C160.685 166.73 160.187 163.232 159.705 159.833C159.565 158.855 159.425 157.858 159.275 156.877C158.268 150.378 158.014 144.688 158.496 139.473C158.705 137.159 158.796 134.809 158.881 132.524C158.995 129.48 159.115 126.332 159.532 123.219C160.51 115.889 161.51 109.296 163.751 102.826C165.338 98.2276 167.257 93.6744 169.11 89.281L169.873 87.4657C173.345 79.1225 177.6 71.1268 182.578 63.5855C183.959 61.5061 185.302 59.3485 186.598 57.2691L186.657 57.1779C188.234 54.6422 189.866 52.0218 191.58 49.5187C194.394 45.3958 197.209 42.1301 200.19 39.5325C207.581 33.1088 215.621 27.4736 224.181 22.7183C231.635 18.5563 237.896 15.7012 243.884 13.7066C245.396 13.2014 246.911 12.6278 248.373 12.077H248.413C250.67 11.223 253.003 10.3398 255.365 9.68795C257.657 9.10259 259.98 8.64666 262.324 8.32235L262.512 8.29301C263.441 8.14635 264.402 7.99317 265.344 7.82369L266.621 7.59554C271.182 6.78074 275.896 5.93987 280.499 4.86759C283.154 4.24834 285.995 4.09842 288.914 3.99086C290.758 3.92568 292.628 3.79205 294.436 3.66494H294.537C297.84 3.43354 301.258 3.19236 304.636 3.33902C309.352 3.49626 314.042 4.09863 318.645 5.1381C322.734 6.07675 326.868 6.7677 330.373 7.32177C333.045 7.74221 335.618 8.62545 338.107 9.45655H338.14C339.117 9.78247 340.026 10.1084 340.935 10.3822C349.015 12.9211 356.788 16.5421 364.066 20.0327C370.555 23.1557 376.312 27.6137 380.961 33.1151C382.886 35.3738 385.232 37.3521 388.346 39.3532C391.748 41.5369 394.738 44.3007 398.348 48.5964C402.104 53.068 405.154 58.11 408.099 62.989L408.177 63.1226C409.835 65.8702 411.552 68.7122 413.389 71.4206C415.419 74.4288 416.673 78.0726 417.889 81.5991L417.918 81.6773C418.332 82.8865 418.765 84.1347 419.221 85.3407C421.094 90.2849 422.84 95.3236 424.759 100.926C427.366 108.478 429.027 114.775 430.021 120.736C430.359 123.004 430.577 125.289 430.672 127.58C430.744 128.818 430.825 130.22 430.949 131.592C431.428 136.68 431.702 141.927 431.786 147.634C431.793 150.841 431.405 154.061 431.031 157.177Z" fill="#141414"/>
<path d="M234.368 223.059L228.83 219.297C228.633 219.158 228.41 219.062 228.173 219.014C227.937 218.967 227.693 218.97 227.458 219.024C227.224 219.07 227.001 219.162 226.802 219.295C226.603 219.428 226.433 219.6 226.302 219.799L216.202 234.645C216.066 234.84 215.97 235.061 215.92 235.294C215.87 235.528 215.868 235.768 215.912 236.002C215.957 236.237 216.048 236.46 216.18 236.658C216.312 236.856 216.483 237.026 216.681 237.158C216.983 237.37 217.342 237.483 217.711 237.484C217.82 237.483 217.929 237.474 218.037 237.454C218.275 237.417 218.502 237.33 218.705 237.199C218.907 237.068 219.08 236.897 219.213 236.695L222.471 231.907L226.478 234.632C228.074 235.721 229.592 236.346 230.987 236.496C232.269 236.678 233.576 236.461 234.73 235.874C235.764 235.307 236.648 234.502 237.311 233.526C237.973 232.551 238.395 231.432 238.542 230.261C238.663 228.979 238.389 227.69 237.756 226.569C237.105 225.324 235.965 224.144 234.368 223.059ZM234.297 231.474C234.044 231.867 233.709 232.201 233.316 232.454C232.922 232.706 232.479 232.871 232.016 232.937C231.039 233.09 229.781 232.637 228.243 231.594L224.455 229.016L228.393 223.235L232.182 225.813C233.717 226.855 234.603 227.869 234.818 228.827C234.925 229.28 234.934 229.751 234.844 230.207C234.754 230.664 234.567 231.095 234.297 231.474Z" fill="#141414"/>
<path d="M254.118 252.653L245.664 249.286L251.625 234.317C251.717 234.093 251.763 233.853 251.76 233.611C251.757 233.369 251.704 233.13 251.606 232.909C251.512 232.687 251.374 232.486 251.202 232.318C251.029 232.15 250.825 232.018 250.601 231.929C250.377 231.841 250.138 231.798 249.897 231.802C249.656 231.807 249.419 231.86 249.198 231.957C248.98 232.053 248.783 232.192 248.619 232.365C248.454 232.538 248.326 232.741 248.241 232.964L241.793 249.153C241.565 249.728 241.574 250.37 241.819 250.939C242.063 251.508 242.522 251.957 243.096 252.187L252.766 256.043C252.986 256.132 253.222 256.178 253.46 256.18C253.699 256.179 253.936 256.131 254.157 256.039C254.38 255.951 254.583 255.816 254.751 255.644C254.919 255.472 255.05 255.267 255.134 255.042C255.314 254.589 255.307 254.083 255.114 253.635C254.922 253.188 254.56 252.834 254.108 252.653H254.118Z" fill="#141414"/>
<path d="M279.926 241.731C279.814 241.299 279.598 240.9 279.298 240.57C278.965 240.214 278.52 239.984 278.037 239.919L277.747 239.873C277.27 239.786 276.777 239.866 276.352 240.101C275.962 240.324 275.632 240.64 275.391 241.02L265.266 257.316C265.118 257.539 265.015 257.79 264.963 258.053C264.922 258.285 264.927 258.523 264.978 258.753C265.03 258.983 265.126 259.2 265.263 259.392C265.402 259.591 265.581 259.758 265.788 259.884C265.996 260.009 266.228 260.089 266.468 260.119C266.824 260.178 267.189 260.13 267.517 259.982C267.852 259.83 268.136 259.584 268.335 259.275L270.755 255.328L279.962 256.775L281.063 261.292C281.158 261.64 281.35 261.954 281.617 262.195C281.884 262.438 282.218 262.596 282.575 262.648C282.683 262.666 282.792 262.675 282.901 262.674C283.278 262.678 283.646 262.555 283.946 262.326C284.135 262.184 284.293 262.007 284.412 261.804C284.532 261.601 284.609 261.376 284.64 261.142C284.673 260.875 284.652 260.603 284.578 260.344L279.926 241.731ZM279.076 253.18L272.7 252.18L277.092 245.009L279.076 253.18Z" fill="#141414"/>
<path d="M311.173 252.568C310.406 251.793 309.459 251.219 308.417 250.899C307.143 250.529 305.847 250.244 304.537 250.045C303.586 249.91 302.643 249.725 301.712 249.491C301.118 249.343 300.563 249.069 300.083 248.689C299.89 248.526 299.734 248.324 299.625 248.097C299.515 247.869 299.455 247.621 299.448 247.369C299.411 246.95 299.491 246.53 299.679 246.154C299.866 245.778 300.154 245.461 300.51 245.238C301.354 244.638 302.513 244.279 303.953 244.172C305.494 244.057 307.043 244.199 308.537 244.592C308.746 244.668 308.967 244.703 309.189 244.697C309.421 244.684 309.648 244.619 309.852 244.506C310.055 244.393 310.231 244.235 310.365 244.045C310.625 243.703 310.75 243.277 310.717 242.849C310.707 242.489 310.579 242.143 310.352 241.864C310.125 241.585 309.812 241.39 309.462 241.307C307.491 240.763 305.437 240.575 303.4 240.753C301.913 240.825 300.46 241.223 299.145 241.92C298.053 242.507 297.15 243.39 296.539 244.468C295.978 245.496 295.73 246.665 295.825 247.832C295.929 249.22 296.408 250.325 297.255 251.117C298.063 251.869 299.031 252.426 300.086 252.747C301.393 253.126 302.72 253.432 304.061 253.663C305.257 253.884 306.188 254.083 306.83 254.256C307.379 254.393 307.896 254.637 308.352 254.973C308.52 255.096 308.66 255.255 308.759 255.439C308.859 255.623 308.917 255.827 308.928 256.035C308.98 256.746 309.14 258.913 304.507 259.252C302.593 259.406 300.667 259.151 298.858 258.506C298.614 258.417 298.354 258.382 298.096 258.402C297.866 258.415 297.642 258.477 297.439 258.583C297.235 258.689 297.056 258.837 296.913 259.017C296.663 259.329 296.527 259.718 296.53 260.119C296.533 260.519 296.674 260.906 296.93 261.214C297.148 261.49 297.441 261.697 297.773 261.811C299.65 262.461 301.622 262.791 303.608 262.788C304.077 262.788 304.553 262.769 305.029 262.736C306.44 262.657 307.82 262.291 309.085 261.661C310.178 261.118 311.102 260.286 311.756 259.255C312.365 258.267 312.642 257.111 312.548 255.954C312.45 254.523 311.984 253.379 311.173 252.568Z" fill="#141414"/>
<path d="M333.609 235.293C333.409 235.179 333.187 235.107 332.958 235.081C332.729 235.055 332.497 235.076 332.277 235.143L318.242 239.175C318.02 239.234 317.812 239.339 317.633 239.483C317.453 239.626 317.306 239.806 317.199 240.009C316.983 240.415 316.936 240.889 317.069 241.329C317.128 241.549 317.23 241.755 317.37 241.934C317.51 242.113 317.685 242.262 317.884 242.372C318.083 242.482 318.302 242.551 318.528 242.575C318.754 242.598 318.982 242.576 319.2 242.509L324.477 240.994L328.976 256.68C329.038 256.91 329.147 257.126 329.294 257.313C329.442 257.5 329.627 257.655 329.836 257.769C330.096 257.918 330.39 257.997 330.69 257.997C330.868 257.996 331.044 257.969 331.215 257.919C331.445 257.856 331.661 257.749 331.849 257.602C332.038 257.456 332.195 257.273 332.312 257.065C332.434 256.857 332.512 256.626 332.542 256.386C332.571 256.147 332.55 255.904 332.482 255.673L327.983 239.986L333.234 238.481C333.454 238.421 333.66 238.319 333.84 238.18C334.02 238.041 334.171 237.867 334.283 237.669C334.4 237.471 334.473 237.252 334.5 237.024C334.527 236.796 334.507 236.565 334.44 236.346C334.38 236.123 334.276 235.915 334.133 235.734C333.99 235.553 333.812 235.403 333.609 235.293Z" fill="#141414"/>
<path d="M345.34 231.057C345.124 230.62 344.744 230.286 344.283 230.128C343.823 229.97 343.318 230 342.88 230.212C342.662 230.315 342.467 230.462 342.309 230.644C342.151 230.825 342.033 231.038 341.961 231.268C341.885 231.496 341.855 231.736 341.873 231.974C341.89 232.213 341.954 232.446 342.062 232.66L350.002 248.924C350.102 249.139 350.246 249.332 350.423 249.491C350.601 249.649 350.809 249.77 351.034 249.846C351.491 249.996 351.988 249.963 352.42 249.753C352.852 249.543 353.186 249.173 353.351 248.721C353.436 248.495 353.474 248.254 353.46 248.012C353.447 247.771 353.383 247.535 353.272 247.32L345.34 231.057Z" fill="#141414"/>
<path d="M377.655 228.284C377.438 228.252 377.216 228.264 377.003 228.32C376.79 228.376 376.591 228.475 376.417 228.61C376.207 228.763 376.035 228.964 375.916 229.196C375.539 229.989 375.083 230.742 374.554 231.442C373.985 232.158 373.32 232.791 372.576 233.323C371.468 234.199 370.145 234.761 368.745 234.952C367.52 235.093 366.28 234.866 365.184 234.3C364.013 233.655 362.995 232.765 362.198 231.691C361.401 230.616 360.844 229.384 360.565 228.075C360.348 226.865 360.493 225.618 360.982 224.49C361.57 223.204 362.493 222.1 363.653 221.293C364.378 220.747 365.175 220.304 366.022 219.976C366.847 219.675 367.7 219.456 368.569 219.324C368.825 219.273 369.066 219.162 369.27 218.998C369.445 218.874 369.594 218.716 369.708 218.534C369.821 218.351 369.898 218.148 369.933 217.936C369.968 217.724 369.961 217.507 369.912 217.298C369.863 217.089 369.773 216.891 369.648 216.717C369.47 216.458 369.223 216.254 368.935 216.13C368.646 216.005 368.329 215.965 368.019 216.013C366.853 216.155 365.707 216.425 364.601 216.818C363.434 217.263 362.337 217.875 361.343 218.633C359.789 219.753 358.544 221.251 357.727 222.984C356.95 224.669 356.672 226.541 356.926 228.378C357.265 230.375 358.071 232.263 359.277 233.889C360.484 235.514 362.057 236.833 363.868 237.736C365.552 238.516 367.426 238.794 369.263 238.534C371.159 238.252 372.953 237.493 374.476 236.328C375.492 235.593 376.396 234.715 377.16 233.72C377.855 232.778 378.443 231.762 378.913 230.689C379.053 230.405 379.109 230.087 379.075 229.772C379.04 229.458 378.916 229.159 378.717 228.913C378.592 228.742 378.433 228.598 378.25 228.49C378.068 228.382 377.866 228.312 377.655 228.284Z" fill="#141414"/>
<path d="M212.511 60.2746C211.596 59.5296 210.512 59.0194 209.355 58.7884C208.086 58.5658 206.78 58.7376 205.611 59.2806C204.308 59.8314 203.054 60.8776 201.849 62.3801L197.662 67.5948C197.508 67.7801 197.395 67.9956 197.329 68.2274C197.264 68.4593 197.247 68.7023 197.281 68.9409C197.309 69.1783 197.384 69.4079 197.501 69.6161C197.619 69.8243 197.776 70.0069 197.965 70.1533L211.958 81.391C212.272 81.6532 212.669 81.7973 213.078 81.7984C213.149 81.8032 213.22 81.8032 213.29 81.7984C213.527 81.7746 213.757 81.7028 213.965 81.5874C214.173 81.4719 214.356 81.3153 214.502 81.127C214.808 80.7538 214.953 80.2744 214.906 79.794C214.889 79.5543 214.822 79.3207 214.709 79.1082C214.597 78.8956 214.442 78.7085 214.254 78.5588L209.742 74.9378L212.775 71.1539C213.984 69.6481 214.73 68.1847 214.987 66.8061C215.265 65.5485 215.152 64.236 214.662 63.045C214.182 61.9598 213.444 61.0086 212.511 60.2746ZM211.505 65.4894C211.58 66.4671 211.029 67.6958 209.876 69.1429L207.006 72.7281L201.549 68.3444L204.419 64.7593C205.579 63.3089 206.66 62.5072 207.631 62.3703C208.092 62.3105 208.56 62.3446 209.007 62.4705C209.454 62.5965 209.871 62.8116 210.233 63.103C210.595 63.3944 210.894 63.756 211.113 64.1661C211.331 64.5762 211.465 65.0263 211.505 65.4894Z" fill="#141414"/>
<path d="M243.318 53.3217C243.358 53.087 243.349 52.8466 243.293 52.6153C243.237 52.3839 243.135 52.1663 242.993 51.9757L242.194 50.8871C241.331 49.7272 240.265 48.7334 239.047 47.9538C238.132 47.3164 237.013 47.0401 235.907 47.1781C236.299 46.3584 236.489 45.4564 236.461 44.5479C236.421 43.3048 236.004 42.1033 235.265 41.1029C234.756 40.3647 234.083 39.7543 233.3 39.3195C232.516 38.8847 231.642 38.6373 230.746 38.5966C228.922 38.4923 226.863 39.2484 224.631 40.8781L219.116 44.9097C218.919 45.0483 218.752 45.2266 218.628 45.4331C218.503 45.6396 218.423 45.8698 218.393 46.1091C218.358 46.3457 218.371 46.5868 218.43 46.8184C218.489 47.05 218.594 47.2676 218.738 47.4584L229.323 61.9554C229.459 62.151 229.634 62.3168 229.837 62.4423C230.04 62.5678 230.266 62.6506 230.502 62.6854C230.598 62.6994 230.695 62.707 230.792 62.7082C231.173 62.7066 231.544 62.5807 231.848 62.3497C232.043 62.2117 232.208 62.0364 232.335 61.8339C232.462 61.6314 232.548 61.4057 232.587 61.1699C232.631 60.9321 232.624 60.6879 232.568 60.4528C232.512 60.2176 232.407 59.9968 232.261 59.8043L228.541 54.7101L233.05 51.4183C234.027 50.7046 234.923 50.4015 235.705 50.5188C236.476 50.6134 237.201 50.9395 237.783 51.4542C238.431 52.0438 239.017 52.6992 239.529 53.4097L240.047 54.1202C240.182 54.3182 240.356 54.4865 240.559 54.6148C240.761 54.7431 240.987 54.8288 241.224 54.8666C241.466 54.9018 241.713 54.8869 241.949 54.823C242.186 54.7591 242.407 54.6475 242.598 54.495C242.791 54.358 242.954 54.1835 243.078 53.9819C243.202 53.7803 243.283 53.5557 243.318 53.3217ZM232.835 46.1026C232.467 47.1227 231.633 48.1135 230.362 49.0359L226.472 51.8779L222.654 46.6632L226.426 43.9091C227.99 42.7651 229.261 42.1817 230.209 42.1915C230.653 42.1939 231.089 42.3072 231.479 42.5212C231.868 42.7352 232.197 43.0431 232.437 43.417C232.733 43.7906 232.925 44.2354 232.995 44.7066C233.064 45.1779 233.009 45.6593 232.835 46.1026Z" fill="#141414"/>
<path d="M252.134 47.0721C252.215 47.2965 252.341 47.5019 252.505 47.6756C252.669 47.8494 252.866 47.9878 253.085 48.0824C253.311 48.1819 253.555 48.234 253.802 48.2356C254.032 48.2347 254.259 48.1905 254.473 48.1053L265.435 43.8683C265.65 43.7901 265.846 43.6704 266.014 43.5161C266.182 43.3617 266.317 43.1757 266.413 42.9687C266.553 42.6526 266.596 42.3019 266.537 41.9611C266.478 41.6203 266.319 41.3048 266.08 41.0545C265.841 40.8042 265.534 40.6304 265.196 40.5552C264.859 40.48 264.507 40.5067 264.184 40.6319L254.935 44.217L252.935 39.0577L261.197 35.8311C261.411 35.7529 261.608 35.6332 261.775 35.4789C261.943 35.3245 262.079 35.1385 262.174 34.9315C262.315 34.6153 262.358 34.2646 262.299 33.9239C262.239 33.5831 262.08 33.2675 261.842 33.0173C261.603 32.767 261.295 32.5932 260.958 32.518C260.621 32.4428 260.268 32.4694 259.946 32.5947L251.671 35.8083L249.681 30.675L258.93 27.0899C259.144 27.011 259.34 26.8907 259.508 26.7358C259.676 26.5809 259.811 26.3944 259.907 26.1871C260.004 25.9788 260.058 25.7526 260.064 25.5227C260.07 25.2927 260.029 25.064 259.943 24.8508C259.86 24.636 259.736 24.4398 259.577 24.2732C259.419 24.1067 259.229 23.9733 259.018 23.8806C258.808 23.7879 258.581 23.7377 258.351 23.7331C258.121 23.7284 257.893 23.7693 257.679 23.8535L246.716 28.0904C246.49 28.1742 246.283 28.3046 246.111 28.473C245.938 28.6414 245.802 28.8441 245.713 29.0682C245.617 29.2874 245.567 29.5234 245.564 29.7624C245.561 30.0014 245.606 30.2386 245.696 30.4599L252.134 47.0721Z" fill="#141414"/>
<path d="M292.283 34.9529C292.109 34.8173 291.91 34.7185 291.696 34.6625C291.483 34.6065 291.26 34.5944 291.042 34.627C290.782 34.6529 290.531 34.7412 290.312 34.8845C289.589 35.38 288.818 35.8004 288.009 36.1392C287.158 36.4728 286.264 36.6867 285.354 36.7748C283.956 36.9767 282.53 36.8 281.223 36.2631C280.091 35.7721 279.13 34.9552 278.464 33.9165C277.774 32.7711 277.34 31.4907 277.19 30.1622C277.04 28.8338 277.178 27.4886 277.594 26.2182C278.012 25.0573 278.764 24.0467 279.757 23.3143C280.91 22.4996 282.26 22.0089 283.666 21.8933C284.573 21.7749 285.492 21.7837 286.396 21.9193C287.262 22.0704 288.11 22.3085 288.928 22.6298C289.172 22.7177 289.433 22.7467 289.69 22.7146C289.913 22.6968 290.129 22.6325 290.326 22.5258C290.522 22.4191 290.694 22.2725 290.83 22.0953C290.959 21.9332 291.054 21.7471 291.11 21.5479C291.166 21.3487 291.181 21.1404 291.156 20.935C291.135 20.6221 291.026 20.3214 290.842 20.0677C290.657 19.814 290.405 19.6175 290.114 19.501C289.034 19.0374 287.907 18.6952 286.752 18.4809C285.517 18.2784 284.26 18.2542 283.018 18.4092C281.111 18.6005 279.284 19.2734 277.708 20.3647C276.191 21.4336 275.011 22.9138 274.307 24.631C273.556 26.5178 273.304 28.5663 273.574 30.579C273.759 32.601 274.462 34.5409 275.616 36.211C276.685 37.7286 278.166 38.9082 279.884 39.6103C281.202 40.1392 282.611 40.4049 284.031 40.3925C285.772 40.3897 287.496 40.0579 289.114 39.4148C290.188 38.9482 291.208 38.3634 292.153 37.6711C292.416 37.4961 292.623 37.2498 292.75 36.9612C292.878 36.6725 292.92 36.3535 292.873 36.0415C292.853 35.8296 292.791 35.6239 292.69 35.4368C292.588 35.2497 292.45 35.0851 292.283 34.9529Z" fill="#141414"/>
<path d="M304.285 40.1552H304.477C304.893 40.1562 305.297 40.0135 305.62 39.7511C305.809 39.6018 305.964 39.4148 306.076 39.2021C306.188 38.9895 306.255 38.7557 306.272 38.5159L307.966 20.512C308.011 20.0266 307.862 19.5431 307.551 19.1679C307.24 18.7926 306.793 18.5562 306.308 18.5108C306.068 18.4835 305.825 18.5071 305.595 18.5801C305.365 18.6531 305.152 18.7739 304.972 18.9345C304.789 19.0884 304.639 19.2772 304.53 19.4898C304.421 19.7024 304.355 19.9347 304.337 20.173L302.652 38.1932C302.63 38.4288 302.655 38.6665 302.724 38.8925C302.794 39.1186 302.908 39.3286 303.06 39.5104C303.211 39.6922 303.397 39.8422 303.607 39.9518C303.816 40.0613 304.046 40.1283 304.281 40.1487L304.285 40.1552Z" fill="#141414"/>
<path d="M337.701 26.9973C336.347 25.5717 334.661 24.5029 332.795 23.886C330.928 23.2691 328.938 23.1231 327.002 23.4611C325.193 23.8374 323.528 24.7189 322.2 26.0033C320.789 27.3903 319.73 29.0943 319.11 30.9735C318.49 32.8527 318.327 34.8528 318.636 36.8075C318.94 38.6261 319.754 40.3212 320.981 41.6963C322.312 43.1539 324.008 44.2286 325.894 44.8089C327.096 45.2248 328.356 45.4449 329.628 45.4607C330.319 45.4619 331.008 45.3898 331.683 45.2456C333.493 44.855 335.157 43.964 336.485 42.6741C337.9 41.3001 338.961 39.6047 339.58 37.7322C340.199 35.8596 340.357 33.8653 340.04 31.9187C339.737 30.0911 338.927 28.3855 337.701 26.9973ZM336.124 36.5892C335.722 37.8726 335.026 39.0445 334.091 40.0113C333.223 40.8915 332.122 41.5064 330.918 41.7843C329.602 42.0295 328.246 41.9379 326.975 41.5179C325.704 41.098 324.56 40.3633 323.65 39.3823C322.853 38.442 322.339 37.295 322.167 36.0742C322.013 34.7405 322.15 33.389 322.571 32.1141C322.992 30.8391 323.686 29.6713 324.604 28.6921C325.468 27.812 326.564 27.196 327.764 26.9158C328.234 26.8041 328.715 26.7483 329.198 26.7496C330.054 26.7597 330.903 26.9061 331.713 27.1831C332.995 27.5701 334.145 28.3071 335.032 29.3114C335.837 30.2497 336.356 31.3987 336.528 32.6227C336.703 33.9583 336.565 35.3165 336.124 36.5892Z" fill="#141414"/>
<path d="M359.809 58.8993C361.349 58.2787 362.663 57.2017 363.575 55.8128L370.221 46.3253C370.5 45.9253 370.609 45.431 370.524 44.9507C370.439 44.4705 370.167 44.0435 369.768 43.7635C369.572 43.6225 369.35 43.5237 369.114 43.4732C368.879 43.4227 368.635 43.4217 368.399 43.4702C367.926 43.5589 367.506 43.832 367.233 44.2296L360.538 53.7921C360.013 54.596 359.263 55.2274 358.382 55.6075C357.579 55.9338 356.7 56.0265 355.847 55.8748C354.961 55.7132 354.121 55.3619 353.384 54.8449C352.647 54.3278 352.03 53.6574 351.576 52.8796C351.141 52.1296 350.927 51.2722 350.957 50.4058C351.018 49.4461 351.357 48.5251 351.934 47.7561L358.629 38.1936C358.768 37.9961 358.866 37.7733 358.919 37.5377C358.971 37.3022 358.977 37.0587 358.935 36.821C358.893 36.5834 358.805 36.3563 358.675 36.1528C358.546 35.9493 358.377 35.7734 358.18 35.6351C357.985 35.4934 357.762 35.394 357.527 35.3435C357.291 35.293 357.047 35.2924 356.811 35.3417C356.576 35.3848 356.352 35.4741 356.152 35.6045C355.952 35.7348 355.78 35.9036 355.645 36.1011L348.989 45.6083C348.034 46.8694 347.477 48.3875 347.389 49.9677C347.302 51.5478 347.689 53.118 348.501 54.4766C349.238 55.7306 350.238 56.8106 351.431 57.6425C352.624 58.4745 353.983 59.0388 355.414 59.2969C355.903 59.3879 356.399 59.4337 356.896 59.4338C357.891 59.4337 358.878 59.2525 359.809 58.8993Z" fill="#141414"/>
<path d="M390.657 66.4442C389.944 64.5261 388.898 62.7495 387.565 61.1969C386.636 60.0338 385.464 59.0882 384.131 58.4265C383.022 57.8768 381.78 57.6509 380.548 57.7747C379.387 57.9204 378.294 58.4031 377.404 59.1631C376.421 59.9162 375.765 61.0192 375.573 62.2431C375.432 63.3401 375.544 64.4549 375.899 65.5023C376.354 66.7848 376.882 68.0405 377.479 69.2634C377.997 70.3618 378.378 71.2189 378.616 71.8708C378.824 72.3965 378.928 72.9577 378.922 73.5232C378.921 73.7326 378.873 73.939 378.782 74.1274C378.69 74.3158 378.558 74.4813 378.394 74.6118C378.093 74.8997 377.721 75.1023 377.315 75.1985C376.91 75.2947 376.486 75.2812 376.088 75.1593C375.205 74.8953 374.234 74.1359 373.205 72.9039C371.961 71.4394 371.043 69.7275 370.51 67.8815C370.439 67.6316 370.316 67.3996 370.149 67.2003C370.004 67.0216 369.824 66.8755 369.619 66.7716C369.414 66.6677 369.189 66.6083 368.96 66.5974C368.559 66.5776 368.164 66.6965 367.841 66.9339C367.517 67.1713 367.286 67.5128 367.184 67.9011C367.085 68.2383 367.085 68.597 367.184 68.9342C367.895 71.2943 369.085 73.4822 370.68 75.3614C371.567 76.4599 372.669 77.366 373.918 78.0242C374.869 78.5249 375.925 78.793 377 78.8064C377.143 78.8064 377.287 78.8064 377.43 78.7901C378.588 78.7097 379.689 78.2582 380.571 77.5027C381.675 76.5771 382.33 75.5309 382.525 74.3967C382.705 73.3219 382.617 72.2195 382.271 71.1863C381.825 69.9366 381.299 68.7172 380.694 67.536C380.249 66.6889 379.848 65.8185 379.496 64.9287C379.27 64.3626 379.17 63.7543 379.202 63.1459C379.221 62.8941 379.293 62.6492 379.413 62.4273C379.533 62.2053 379.699 62.0115 379.9 61.8585C380.217 61.5828 380.605 61.401 381.02 61.3337C381.435 61.2663 381.86 61.316 382.248 61.4772C383.226 61.8031 384.203 62.5429 385.125 63.651C386.119 64.8336 386.909 66.1743 387.461 67.6175C387.522 67.8335 387.624 68.0358 387.761 68.2139C387.907 68.3953 388.091 68.5417 388.301 68.6426C388.51 68.7436 388.74 68.7964 388.973 68.7973C389.398 68.804 389.812 68.6571 390.139 68.3834C390.429 68.1644 390.638 67.8545 390.732 67.5031C390.826 67.1516 390.799 66.7789 390.657 66.4442Z" fill="#141414"/>
<path d="M283.757 157.31C272.403 152.128 268.415 148.96 264.9 153.94C264.627 154.325 265.324 157.643 265.324 157.643C265.324 157.643 288.35 167.221 300.003 169.852C309.161 171.921 329.699 170.122 329.699 170.122L346.92 170.07C346.92 170.07 355.116 168.382 358.71 165.481C360.7 163.874 365.411 165.461 367.209 159.194C367.988 156.473 326.848 148.305 320.665 149.146C314.481 149.987 298.795 147.242 296.117 147.249C293.439 147.255 283.457 149.074 283.239 151.326C283.02 153.578 284.669 157.724 283.757 157.31Z" fill="#AEADAD"/>
<path d="M289.566 147.812C287.81 148.617 260.985 148.852 257.639 148.709C254.293 148.565 257.365 153.027 259.02 153.327C260.024 153.509 302.408 152.023 309.517 152.323C316.707 152.649 331.195 154.81 335.677 154.64C341.655 154.415 349.337 161.175 354.407 160.54C358.316 160.051 367.705 159.337 368.813 156.668C369.712 154.497 370.536 140.257 370.243 134.981C369.95 129.704 361.887 120.513 360.834 114.865C359.137 105.762 355.114 106.518 350.171 106.544C346.888 106.564 336.036 104.892 334.488 104.788C332.941 104.683 326.712 103.855 325.783 104.233C324.855 104.612 320.15 100.388 316.231 98.406C309.849 95.1696 300.323 91.5617 295.798 93.4846C291.807 95.1826 280.134 98.6439 277.043 98.3408C273.951 98.0377 270.348 98.6667 265.598 98.3767C260.848 98.0866 246.217 98.4353 246.217 98.4353C244.829 98.4679 247.097 103.885 247.256 104.931C247.416 105.977 260.672 105.967 268.403 105.583C276.134 105.198 290.882 110.615 293.062 111.524C290.296 117.573 292.43 119.751 292.345 125.65C292.26 131.549 291.498 131.409 291.315 133.237C291.123 135.193 293.697 136.496 293.7 137.738C293.703 138.98 291.325 147.004 289.566 147.812Z" fill="white"/>
<path d="M280.515 108.511C280.515 108.511 281.652 113.034 282.082 115.104C282.512 117.174 281.844 121.899 281.343 126.052C280.841 130.204 281.017 131.628 281.323 132.453C281.629 133.277 281.975 138.6 281.975 139.949C281.975 141.298 283.698 143.101 283.946 145.998C284.193 148.895 286.712 147.722 288.337 147.628C289.963 147.533 291.312 145.672 292.843 141.125C294.374 136.579 292.129 135.911 291.214 134.33C290.618 133.281 290.331 133.307 291.559 129.979C292.787 126.651 291.559 124.973 291.351 122.385C291.142 119.797 292.429 111.476 292.429 111.476L280.515 108.511Z" fill="#AEADAD"/>
<path d="M371.368 143.181C371.156 141.195 371.227 139.19 371.579 137.224C371.964 134.75 370.758 132.449 369.693 130.412L369.664 130.36C369.377 129.812 369.107 129.294 368.882 128.799C368.458 127.866 368.032 127.094 367.654 126.41C366.971 125.257 366.412 124.036 365.986 122.766C365.763 122.094 365.504 121.434 365.21 120.791C365.132 120.611 365.054 120.435 364.979 120.253C364.444 118.839 363.593 117.565 362.49 116.531C362.119 116.179 362.102 115.276 362.089 114.474V114.308C362.06 112.789 361.91 111.003 361.063 109.266C359.76 106.581 357.665 105.261 354.674 105.235C353.469 105.235 352.466 105.235 351.482 105.261C349.983 105.287 348.569 105.309 346.703 105.225H346.657C345.965 105.214 345.28 105.087 344.631 104.85C341.5 103.432 338.965 103.471 336.258 103.514C334.567 103.588 332.873 103.502 331.198 103.256C331.124 103.256 330.827 103.211 330 103.119C328.674 102.973 325.572 102.634 325.243 102.539C322.432 101.561 320.093 99.7688 317.613 97.8654L317.004 97.3994C314.225 95.2711 310.922 94.1206 308.061 93.2732C303.598 91.9532 298.907 91.6925 293.727 92.4747C290.186 93.0125 286.797 94.0587 283.52 95.0821L283.448 95.1049C282.061 95.5351 280.621 95.9784 279.213 96.3727C277.658 96.8097 276.053 97.0462 274.437 97.0767C272.111 97.1158 269.736 96.9855 267.439 96.8616C264.465 96.6479 261.48 96.5946 258.5 96.7019L257.145 96.7703C256.493 96.8062 256.079 96.8225 255.737 96.8355C255.216 96.8551 254.838 96.8681 253.887 96.9366H253.818L253.753 96.9594C253.691 96.9822 253.633 96.9985 253.571 97.0148C253.196 95.0039 252.336 91.1938 251.942 89.9749C251.891 89.8244 251.885 89.6625 251.924 89.5086C251.964 89.3547 252.047 89.2156 252.163 89.1079C252.468 88.7886 252.738 88.4379 252.968 88.0617C253.089 87.8825 253.203 87.7097 253.32 87.5598C254.734 85.7184 253.623 83.3978 252.844 81.2109C252.458 80.1251 251.799 79.1568 250.932 78.3984C250.064 77.64 249.016 77.117 247.889 76.8794C244.459 76.0842 241.048 77.3715 239.181 80.1549C238.334 81.4227 238.578 82.9415 238.79 84.2843C238.816 84.4342 238.839 84.5842 238.858 84.7308C239.354 88.0585 241.745 89.9456 244.253 91.4839C245.351 92.1586 245.537 92.7061 245.576 93.1135C245.609 93.4394 245.902 95.8447 246.084 97.3244C245.951 97.3022 245.82 97.2662 245.693 97.2169L245.55 97.1647L245.403 97.2006C245.275 97.2324 245.151 97.2806 245.035 97.344C244.845 97.4509 244.684 97.6051 244.57 97.7917C244.456 97.9783 244.392 98.1911 244.384 98.4097C244.356 99.2316 244.466 100.052 244.709 100.838C244.853 101.326 244.956 101.825 245.016 102.331C245.13 103.282 245.527 105.551 246.752 106.095C247.131 106.259 247.523 106.389 247.925 106.483C248.697 109.491 249.314 112.537 249.772 115.609L249.87 116.189C250.02 117.085 250.17 117.985 250.332 118.878C250.834 121.685 251.342 124.493 251.857 127.303C251.958 127.86 252.053 128.417 252.147 128.975C252.372 130.321 252.606 131.712 252.955 133.065C254.157 137.726 255.141 142.517 256.03 147.001C256.081 147.275 256.117 147.551 256.138 147.829C255.431 148.155 255.04 148.611 254.985 149.198C254.388 152.079 255.92 153.569 257.34 154.357C257.343 154.41 257.353 154.463 257.369 154.514C257.695 155.654 257.982 156.821 258.233 158.099C258.373 158.793 258.575 159.471 258.767 160.123L258.842 160.371C259.047 161.011 259.21 161.664 259.331 162.326C260.158 167.388 261.471 172.355 262.748 177.012C263.686 180.64 264.406 184.321 264.905 188.035C265.231 190.15 265.618 192.272 266.003 194.341C266.194 195.356 266.382 196.371 266.566 197.385C266.716 198.236 266.866 199.083 267.019 199.934L267.114 200.456C267.837 204.523 268.586 208.731 269.306 212.873C269.987 216.784 271.111 220.881 272.013 224.163V224.205C272.489 224.267 272.991 224.31 273.499 224.349L274.313 225.219L278.578 226.308L279.526 225.004C279.809 225.079 280.086 225.16 280.353 225.258C280.408 225.167 280.443 225.065 280.457 224.96C280.47 224.854 280.462 224.747 280.432 224.645C279.112 220.125 277.5 213.587 276.926 208.786C276.785 207.593 276.64 206.398 276.49 205.201C276.061 201.517 275.429 197.86 274.597 194.247L274.336 193.178C273.685 190.551 273.033 187.836 272.535 185.131C272.365 184.221 272.209 183.279 272.075 182.37C271.72 180.112 271.352 177.775 270.586 175.526C270.472 175.2 270.368 174.851 270.261 174.515C269.73 172.72 269.375 170.842 269.029 169.02L268.883 168.238C268.599 166.752 268.267 165.256 267.948 163.806C267.785 163.072 267.622 162.339 267.465 161.603C267.384 161.224 267.218 160.364 267 159.181H267.022C267.263 159.259 267.596 159.363 267.749 159.432C268.076 159.576 268.411 159.702 268.752 159.81C268.909 159.859 269.078 159.911 269.221 159.97C269.831 160.195 270.446 160.393 270.99 160.566C271.642 160.778 272.235 160.967 272.802 161.185C273.58 161.499 274.341 161.854 275.082 162.248C275.965 162.725 276.878 163.144 277.816 163.503C278.33 163.685 278.843 163.862 279.353 164.034L279.467 164.073C281.2 164.663 282.836 165.217 284.403 166.097C284.729 166.279 285.071 166.462 285.419 166.641C288.241 168.038 291.21 169.113 294.271 169.848C295.656 170.207 297.053 170.5 298.421 170.709C300.903 171.129 303.426 171.252 305.937 171.074C308.495 170.862 311.743 170.956 314.903 171.048C317.568 171.126 320.079 171.201 322.282 171.103C323.21 171.061 324.279 171.103 325.406 171.129H325.452C326.78 171.2 328.111 171.2 329.439 171.129C330.036 171.066 330.638 171.066 331.234 171.129C332.478 171.241 333.729 171.25 334.974 171.155C335.841 171.11 336.958 171.155 338.059 171.175C339.268 171.211 340.516 171.247 341.558 171.175C342.235 171.139 342.913 171.151 343.588 171.211H343.624C344.083 171.247 344.504 171.273 344.973 171.273H345.012C345.488 171.271 345.963 171.24 346.435 171.181C347.682 171.023 348.918 170.797 350.14 170.503L351.404 170.204L352.055 170.044C352.635 169.858 353.199 169.627 353.743 169.353L353.977 169.245L354.261 169.118C355.118 168.743 355.954 168.322 356.766 167.857C357.277 167.573 357.805 167.28 358.395 166.983C358.597 166.886 358.802 166.791 359.004 166.71C359.726 166.417 360.483 166.216 361.255 166.113C362.748 165.932 364.166 165.36 365.367 164.454C365.901 164.036 366.378 163.548 366.784 163.004C367.896 161.59 368.804 160.026 369.481 158.36L369.56 158.158L369.579 158.092C371.026 154.305 371.719 151.088 371.697 148.263C371.719 146.563 371.609 144.864 371.368 143.181ZM246.417 85.311H245.521C244.778 85.311 244.543 85.2653 244.24 84.897C243.937 84.5288 243.986 83.7335 244.24 83.2512C244.353 82.9713 244.529 82.7214 244.755 82.5211C245.093 82.2574 245.444 82.0116 245.807 81.7845C245.875 81.735 245.955 81.7046 246.039 81.6965H246.114C246.223 81.6981 246.331 81.7068 246.439 81.7226C247.213 81.7627 247.945 82.0837 248.498 82.6254C248.56 82.6863 248.615 82.7529 248.664 82.8242C248.698 82.9706 248.716 83.1204 248.717 83.2707C248.705 83.671 248.59 84.0616 248.383 84.4042C248.175 84.7469 247.883 85.0301 247.534 85.2262C247.164 85.2819 246.791 85.3102 246.417 85.311ZM256.679 110.048C256.584 109.762 256.483 109.471 256.386 109.185C256.301 108.95 256.219 108.712 256.141 108.477C255.966 107.969 255.828 107.448 255.731 106.92C257.666 107.004 259.621 107.027 261.533 107.05C264.807 107.086 268.189 107.125 271.466 107.48C273.371 107.736 275.257 108.116 277.112 108.618L277.705 108.764L278.705 109.038C278.726 109.046 278.746 109.057 278.764 109.071C278.788 109.141 278.796 109.215 278.786 109.289C278.76 110.374 279.164 111.28 279.523 112.085C279.723 112.492 279.884 112.916 280.005 113.353L280.028 113.457C280.467 115.755 280.353 118.02 280.204 120.432L280.158 121.296C280.093 122.505 279.927 123.747 279.767 124.949C279.48 127.104 279.181 129.33 279.399 131.615C279.444 132.094 279.513 132.569 279.601 133.032C279.912 134.364 280.058 135.729 280.037 137.097C280.024 137.339 280.024 137.581 280.037 137.823C280.097 138.838 280.234 139.847 280.445 140.841C280.799 142.431 281.31 143.981 281.969 145.469C282.128 145.839 282.238 146.228 282.295 146.626C282.295 146.731 282.318 146.838 282.328 146.952C280.327 146.991 278.33 147.164 276.395 147.334C272.662 147.66 268.798 147.986 265.094 147.317C264.797 147.265 264.494 147.22 264.188 147.184C263.986 146.085 263.768 144.987 263.536 143.925C263.367 143.097 263.211 142.269 263.038 141.438C262.808 140.23 262.572 139.019 262.331 137.807C261.569 133.938 260.777 129.936 260.217 125.976C259.966 124.226 259.565 122.499 259.181 120.83C259.008 120.087 258.832 119.314 258.669 118.548C258.529 117.897 258.396 117.215 258.262 116.55C257.864 114.354 257.335 112.182 256.679 110.048ZM290.831 123.988C291.044 125.118 291.167 126.264 291.199 127.413C291.311 128.581 291.045 129.753 290.44 130.757C289.573 132.172 289.159 133.313 289.769 134.623C289.819 134.731 289.886 134.831 289.967 134.919C290.004 135.035 290.056 135.145 290.124 135.245C290.4 135.629 290.702 135.993 291.029 136.334C291.088 136.399 291.153 136.461 291.218 136.523L291.332 136.64C292.916 138.322 292.935 138.43 292.013 140.525L291.45 141.806C290.798 143.263 290.146 144.765 289.479 146.229C289.449 146.294 289.286 146.362 288.778 146.525C287.837 146.806 286.861 146.955 285.879 146.969C285.527 146.969 285.169 146.969 284.836 146.969C284.836 146.718 284.807 146.49 284.778 146.274C284.691 145.657 284.525 145.053 284.282 144.479C283.695 143.14 283.241 141.747 282.927 140.32C282.742 139.449 282.622 138.565 282.569 137.677C282.569 137.546 282.569 137.351 282.569 137.224C282.601 135.652 282.441 134.082 282.09 132.55C282.015 132.169 281.96 131.774 281.92 131.38C281.732 129.385 281.999 127.397 282.279 125.292C282.438 124.099 282.605 122.749 282.689 121.433L282.738 120.553C282.878 117.994 283.015 115.579 282.513 112.969L282.481 112.815C282.324 112.205 282.106 111.612 281.829 111.046C281.624 110.63 281.465 110.192 281.354 109.742L282.52 110.042C284.071 110.439 285.67 110.85 287.273 111.163C288.456 111.391 289.977 111.698 291.544 112.095C291.073 113.548 290.735 115.04 290.534 116.554C290.212 119.031 290.312 121.545 290.831 123.988ZM364.836 161.495C364.575 161.848 364.274 162.169 363.94 162.453C363.047 163.14 361.981 163.566 360.861 163.685C359.903 163.819 358.965 164.072 358.069 164.438C357.815 164.542 357.564 164.656 357.32 164.764C356.668 165.09 356.114 165.39 355.554 165.699C354.815 166.123 354.054 166.506 353.274 166.847L352.873 167.026L352.664 167.12C351.808 167.515 351.537 167.622 351.462 167.642L350.987 167.756C350.462 167.886 350.009 167.997 349.566 168.082C348.429 168.358 347.277 168.569 346.116 168.714C345.745 168.761 345.372 168.786 344.999 168.789C344.595 168.789 344.223 168.763 343.829 168.737H343.793C342.998 168.668 342.199 168.655 341.402 168.698C340.474 168.753 339.281 168.721 338.125 168.698C336.968 168.675 335.812 168.629 334.838 168.682C333.705 168.77 332.567 168.762 331.436 168.659C330.705 168.586 329.969 168.586 329.237 168.659C328.123 168.747 326.719 168.701 325.478 168.659C324.351 168.623 323.197 168.59 322.165 168.636C320.07 168.727 317.604 168.655 314.971 168.577C311.759 168.483 308.439 168.385 305.722 168.613C303.412 168.776 301.091 168.667 298.806 168.287C297.503 168.082 296.2 167.808 294.896 167.472C292.015 166.784 289.221 165.774 286.566 164.461C286.24 164.298 285.934 164.135 285.631 163.959C283.914 163.057 282.116 162.316 280.262 161.746C279.731 161.567 279.197 161.384 278.663 161.192C277.826 160.871 277.011 160.496 276.222 160.071C275.406 159.63 274.566 159.238 273.704 158.894C273.085 158.656 272.456 158.454 271.85 158.259L271.72 158.216C271.183 158.043 270.629 157.867 270.108 157.675C269.932 157.607 269.749 157.548 269.541 157.476C269.291 157.399 269.045 157.309 268.804 157.206C268.469 157.064 268.125 156.942 267.775 156.841C267.508 156.756 267.202 156.662 267.058 156.596C266.879 156.516 266.695 156.445 266.508 156.385H266.488C266.358 155.658 266.234 154.97 266.136 154.406H267.179H267.241C268.146 154.406 269.081 154.426 270.016 154.383C270.528 154.361 270.994 154.325 271.433 154.276C271.998 154.237 272.565 154.227 273.131 154.246C273.265 154.357 273.41 154.453 273.564 154.533C273.89 154.742 274.541 155.162 275.382 155.628C276.555 156.28 278.229 157.066 279.539 157.199H279.578C279.63 157.199 279.682 157.199 279.747 157.222C280.992 157.388 282.087 157.587 282.927 158.281L282.973 158.314C283.002 158.337 283.032 158.358 283.064 158.376C283.095 158.397 283.128 158.415 283.162 158.431L283.237 158.47L283.299 158.493L283.429 158.532H283.504C283.58 158.547 283.657 158.554 283.735 158.555C283.845 158.553 283.955 158.536 284.061 158.506C284.092 158.499 284.123 158.489 284.152 158.477C284.23 158.45 284.306 158.415 284.377 158.373L284.455 158.324C284.526 158.272 284.593 158.214 284.654 158.151L284.706 158.096C284.769 158.019 284.821 157.935 284.862 157.845C284.876 157.825 284.887 157.803 284.895 157.779L284.927 157.698C284.927 157.682 284.927 157.669 284.927 157.652C285.286 156.675 285.064 155.628 284.869 154.703C284.81 154.419 284.748 154.126 284.712 153.875V153.846L285.735 153.823C287.071 153.79 288.407 153.761 289.746 153.718C291.257 153.67 292.795 153.595 294.281 153.523H294.473C297.819 153.357 301.279 153.197 304.644 153.321C308.553 153.471 312.704 153.722 316.74 154.533C321.301 155.446 325.09 155.879 328.683 155.899C331.135 155.875 333.587 155.983 336.027 156.225C338.088 156.508 340.126 156.938 342.125 157.512C343.299 157.853 344.449 158.273 345.566 158.77C346.729 159.253 348.172 159.852 350.172 160.553C350.293 160.595 350.465 160.667 350.674 160.755L350.716 160.775C351.694 161.176 353.137 161.785 354.404 161.785C356.318 161.816 358.219 161.478 360.004 160.788L360.086 160.758C361.578 160.107 363.344 160.107 364.917 160.084C365.243 160.084 365.517 160.084 365.787 160.084C365.495 160.571 365.178 161.042 364.836 161.495ZM282.249 154.243C282.295 154.569 282.367 154.924 282.435 155.25C282.451 155.325 282.471 155.518 282.491 155.72C281.738 155.385 280.941 155.158 280.125 155.045C280.024 155.045 279.92 155.019 279.822 155.009C278.944 154.841 278.099 154.534 277.317 154.1C277.319 154.079 277.319 154.058 277.317 154.038C278.353 153.771 279.506 153.823 280.738 153.878C281.214 153.898 281.715 153.921 282.197 153.921C282.197 154.015 282.217 154.11 282.23 154.207L282.249 154.243ZM367.194 157.398C367.075 157.439 366.951 157.469 366.826 157.486C366.201 157.553 365.572 157.579 364.943 157.564C363.226 157.564 361.089 157.584 359.141 158.441C357.63 159.021 356.022 159.302 354.404 159.269C353.674 159.269 352.401 158.734 351.697 158.441C351.426 158.327 351.215 158.239 351.045 158.174C349.156 157.522 347.787 156.955 346.611 156.463H346.572C345.351 155.919 344.094 155.462 342.809 155.094C340.696 154.49 338.543 154.038 336.365 153.741C333.832 153.484 331.286 153.367 328.739 153.393C324.886 153.329 321.049 152.893 317.281 152.089C313.075 151.245 308.788 150.984 304.784 150.828C303.904 150.792 303.025 150.779 302.142 150.779C299.536 150.779 296.903 150.906 294.339 151.033H294.287C292.782 151.108 291.231 151.183 289.726 151.232C288.465 151.271 287.208 151.3 285.947 151.329L285.116 151.349C284.497 151.349 283.882 151.375 283.266 151.395H282.686C282.113 151.411 281.53 151.395 280.914 151.356H280.875C279.405 151.29 277.887 151.222 276.369 151.698C275.828 151.857 275.257 151.889 274.701 151.792L274.437 151.766C274.183 151.747 273.906 151.724 273.59 151.721H273.372C272.643 151.697 271.913 151.711 271.186 151.763C270.788 151.809 270.381 151.841 269.938 151.861C269.052 151.9 268.133 151.887 267.218 151.861C266.136 151.861 265.019 151.835 263.895 151.91C263.09 151.987 262.296 152.146 261.523 152.382H261.478L261.233 152.447L260.953 152.522C260.651 152.605 260.344 152.67 260.034 152.718L259.852 152.656C257.689 151.939 257.268 151.167 257.415 150.049C257.487 150.026 257.568 150.003 257.653 149.983L257.799 149.954L258.298 149.899C259.795 149.69 261.305 149.594 262.817 149.612C263.433 149.631 264.047 149.695 264.654 149.804C268.69 150.537 272.72 150.189 276.623 149.85C278.672 149.674 280.797 149.488 282.865 149.475C283.25 149.475 283.634 149.475 284.054 149.475C284.683 149.475 285.335 149.475 285.989 149.475C287.204 149.456 288.41 149.268 289.573 148.918C290.296 148.69 291.283 148.373 291.785 147.272C292.489 145.737 293.176 144.172 293.844 142.647L294.336 141.532C295.655 138.531 295.44 137.295 293.189 134.9C293.137 134.844 293.085 134.789 293.03 134.737L292.981 134.691L292.886 134.593C292.644 134.345 292.421 134.079 292.218 133.798C292.186 133.756 292.153 133.713 292.117 133.674C292.104 133.631 292.087 133.589 292.069 133.547C292 133.404 291.909 133.221 292.603 132.074C293.485 130.64 293.886 128.961 293.746 127.283C293.713 125.997 293.572 124.716 293.326 123.453C292.867 121.29 292.777 119.064 293.062 116.87C293.244 115.48 293.557 114.11 293.997 112.78H294.036L294.157 112.819C294.665 112.982 294.835 113.037 295.62 113.875C295.738 114.001 295.881 114.102 296.039 114.17C296.198 114.239 296.369 114.275 296.542 114.276C296.788 114.275 297.029 114.202 297.234 114.066C297.44 113.93 297.601 113.737 297.698 113.51C297.795 113.284 297.824 113.034 297.782 112.791C297.739 112.548 297.626 112.323 297.457 112.144C296.284 110.886 295.753 110.674 294.922 110.41L294.799 110.368C294.362 110.228 293.919 110.097 293.496 109.977C291.443 109.393 289.361 108.966 287.778 108.657C286.195 108.347 284.677 107.956 283.168 107.568L283.1 107.552L281.373 107.112L280.037 106.75L279.549 106.616C279.363 106.545 279.172 106.487 278.979 106.44L277.728 106.134C275.77 105.609 273.781 105.211 271.772 104.944C268.374 104.576 264.931 104.537 261.585 104.498C260.754 104.498 259.689 104.443 258.653 104.4C257.151 104.335 255.721 104.273 254.92 104.312C254.558 104.328 254.392 104.341 254.268 104.351C254.086 104.351 254.024 104.368 253.45 104.368H252.753H251.805C251.424 104.368 251.033 104.368 250.642 104.325C249.745 104.272 248.858 104.111 248 103.846C247.775 103.256 247.621 102.641 247.541 102.014C247.464 101.378 247.336 100.749 247.156 100.134L247.075 99.8307C247.65 99.9146 248.232 99.9299 248.811 99.8764C249.661 99.7851 250.512 99.7069 251.342 99.6417C253.323 99.4853 255.333 99.381 257.278 99.2799L258.633 99.2082C261.524 99.1064 264.418 99.1597 267.303 99.3679C269.642 99.495 272.056 99.6254 274.47 99.5896C276.3 99.5534 278.118 99.2851 279.881 98.7911C281.344 98.3836 282.813 97.9306 284.224 97.4874L284.292 97.4678C287.475 96.4901 290.765 95.4667 294.105 94.9615C298.923 94.2347 303.259 94.4726 307.361 95.685C310 96.464 313.033 97.5134 315.486 99.394L316.092 99.8568C317.819 101.183 321.8 103.553 324.178 104.967C325.11 105.518 325.989 106.043 326.093 106.121C326.558 106.54 327.05 106.926 327.566 107.278L327.944 107.552C328.764 108.179 329.551 108.848 330.303 109.556C331.482 110.625 332.704 111.73 333.886 112.379L333.971 112.424L336.251 113.676C336.437 113.777 336.646 113.829 336.857 113.826C337.083 113.827 337.305 113.767 337.499 113.652C337.694 113.537 337.854 113.372 337.962 113.174C338.122 112.879 338.158 112.533 338.062 112.211C337.967 111.89 337.748 111.62 337.454 111.46L335.655 110.482L335.101 110.175C334.017 109.579 332.84 108.517 331.7 107.487C330.935 106.796 330.146 106.085 329.381 105.512L329.658 105.564C329.873 105.603 330.127 105.645 330.384 105.684L330.798 105.749C332.63 106.025 334.485 106.123 336.336 106.043C338.838 106.004 341.001 105.971 343.621 107.154C344.571 107.533 345.582 107.736 346.605 107.754C348.56 107.842 350.006 107.816 351.557 107.79C352.534 107.773 353.511 107.757 354.681 107.767C356.701 107.767 357.939 108.565 358.825 110.374C359.457 111.678 359.568 113.115 359.594 114.357V114.52C359.613 115.687 359.643 117.287 360.789 118.372C361.633 119.165 362.279 120.144 362.679 121.231C362.764 121.43 362.848 121.622 362.94 121.83C363.198 122.388 363.423 122.961 363.614 123.545C364.094 124.98 364.723 126.36 365.49 127.664C365.862 128.333 366.243 129.023 366.614 129.845C366.885 130.438 367.207 131.047 367.488 131.585C368.416 133.352 369.371 135.17 369.116 136.829C368.723 139.032 368.649 141.28 368.895 143.504C369.131 145.108 369.24 146.729 369.221 148.351C369.217 150.896 368.563 153.859 367.194 157.398Z" fill="#141414"/>
<path d="M12.2168 99.224H23.8568V102.296H15.8648V106.208H21.7448V109.016H15.8648V116H12.2168V99.224ZM32.0126 116.36C29.8046 116.36 28.0686 115.832 26.8046 114.776C25.5406 113.704 24.9086 112.208 24.9086 110.288C24.9086 108.384 25.4686 106.88 26.5886 105.776C27.7246 104.672 29.3406 104.12 31.4366 104.12C32.8126 104.12 33.9806 104.376 34.9406 104.888C35.9006 105.4 36.6286 106.112 37.1246 107.024C37.6206 107.92 37.8686 108.936 37.8686 110.072V111.536H28.3646C28.6206 113.008 29.9966 113.744 32.4926 113.744C33.2286 113.744 33.9886 113.68 34.7726 113.552C35.5566 113.424 36.2366 113.248 36.8126 113.024V115.568C36.2526 115.808 35.5326 116 34.6526 116.144C33.7726 116.288 32.8926 116.36 32.0126 116.36ZM34.4366 109.184C34.3886 108.416 34.1006 107.824 33.5726 107.408C33.0446 106.976 32.3166 106.76 31.3886 106.76C30.4766 106.76 29.7566 106.976 29.2286 107.408C28.7006 107.84 28.4126 108.432 28.3646 109.184H34.4366ZM44.169 116.36C42.761 116.36 41.609 116.008 40.713 115.304C39.833 114.584 39.393 113.608 39.393 112.376C39.393 111.096 39.817 110.104 40.665 109.4C41.513 108.68 42.713 108.32 44.265 108.32C44.953 108.32 45.609 108.392 46.233 108.536C46.857 108.68 47.409 108.88 47.889 109.136V108.848C47.889 108.128 47.633 107.6 47.121 107.264C46.609 106.928 45.825 106.76 44.769 106.76C43.361 106.76 42.065 107.024 40.881 107.552V104.912C41.393 104.688 42.057 104.504 42.873 104.36C43.689 104.2 44.505 104.12 45.321 104.12C47.401 104.12 48.953 104.552 49.977 105.416C51.001 106.264 51.513 107.456 51.513 108.992V116H48.105V114.944C47.129 115.888 45.817 116.36 44.169 116.36ZM45.153 113.96C45.745 113.96 46.281 113.848 46.761 113.624C47.241 113.4 47.617 113.088 47.889 112.688V111.536C47.073 110.992 46.177 110.72 45.201 110.72C44.529 110.72 44.009 110.864 43.641 111.152C43.289 111.424 43.113 111.832 43.113 112.376C43.113 112.888 43.289 113.28 43.641 113.552C43.993 113.824 44.497 113.96 45.153 113.96ZM58.1267 116.36C56.7827 116.36 55.7587 115.992 55.0547 115.256C54.3667 114.504 54.0227 113.464 54.0227 112.136V107.096H52.3427V104.48H54.0227V101.024H57.6467V104.48H60.3587V107.096H57.6467V111.656C57.6467 112.328 57.7747 112.816 58.0307 113.12C58.2867 113.408 58.7427 113.552 59.3987 113.552C59.9267 113.552 60.4307 113.424 60.9107 113.168V115.88C60.1747 116.2 59.2467 116.36 58.1267 116.36ZM67.0508 116.36C65.4828 116.36 64.3068 115.936 63.5228 115.088C62.7388 114.224 62.3468 113.08 62.3468 111.656V104.48H65.9708V111.272C65.9708 112.776 66.6668 113.528 68.0588 113.528C68.6668 113.528 69.2348 113.384 69.7628 113.096C70.2908 112.808 70.7308 112.376 71.0828 111.8V104.48H74.7068V116H71.2028V114.608C70.6908 115.2 70.0668 115.64 69.3308 115.928C68.6108 116.216 67.8508 116.36 67.0508 116.36ZM77.2324 104.48H80.7364V106.136C81.2004 105.576 81.8484 105.152 82.6804 104.864C83.5124 104.56 84.4564 104.408 85.5124 104.408V107.168C84.4084 107.168 83.4324 107.336 82.5844 107.672C81.7524 108.008 81.1764 108.52 80.8564 109.208V116H77.2324V104.48ZM89.0447 102.704C88.4847 102.704 88.0127 102.52 87.6287 102.152C87.2447 101.784 87.0527 101.32 87.0527 100.76C87.0527 100.216 87.2447 99.76 87.6287 99.392C88.0127 99.008 88.4847 98.816 89.0447 98.816C89.6047 98.816 90.0767 99.008 90.4607 99.392C90.8447 99.76 91.0367 100.216 91.0367 100.76C91.0367 101.32 90.8447 101.784 90.4607 102.152C90.0767 102.52 89.6047 102.704 89.0447 102.704ZM87.2207 104.48H90.8687V116H87.2207V104.48ZM93.5214 104.48H97.0254V105.896C97.5534 105.304 98.1774 104.864 98.8974 104.576C99.6334 104.272 100.401 104.12 101.201 104.12C102.769 104.12 103.937 104.544 104.705 105.392C105.489 106.224 105.881 107.352 105.881 108.776V116H102.257V109.184C102.257 107.696 101.569 106.952 100.193 106.952C99.5854 106.952 99.0174 107.104 98.4894 107.408C97.9614 107.696 97.5134 108.128 97.1454 108.704V116H93.5214V104.48ZM114.479 121.52C113.711 121.52 112.935 121.448 112.151 121.304C111.383 121.16 110.735 120.968 110.207 120.728V118.064C111.439 118.608 112.863 118.88 114.479 118.88C115.775 118.88 116.703 118.616 117.263 118.088C117.823 117.56 118.103 116.768 118.103 115.712V114.992C117.607 115.44 116.999 115.776 116.279 116C115.559 116.24 114.791 116.36 113.975 116.36C112.791 116.36 111.727 116.104 110.783 115.592C109.855 115.064 109.127 114.336 108.599 113.408C108.071 112.48 107.807 111.424 107.807 110.24C107.807 109.024 108.063 107.952 108.575 107.024C109.103 106.096 109.823 105.384 110.735 104.888C111.663 104.376 112.719 104.12 113.903 104.12C114.799 104.12 115.591 104.248 116.279 104.504C116.967 104.76 117.615 105.168 118.223 105.728V104.48H121.727V115.256C121.727 117.256 121.135 118.8 119.951 119.888C118.767 120.976 116.943 121.52 114.479 121.52ZM114.839 113.552C115.591 113.552 116.263 113.352 116.855 112.952C117.463 112.536 117.879 111.992 118.103 111.32V109.16C117.847 108.488 117.423 107.952 116.831 107.552C116.255 107.152 115.591 106.952 114.839 106.952C113.863 106.952 113.063 107.248 112.439 107.84C111.831 108.432 111.527 109.224 111.527 110.216C111.527 111.224 111.831 112.032 112.439 112.64C113.063 113.248 113.863 113.552 114.839 113.552ZM6.79856 148.36C5.45456 148.36 4.43056 147.992 3.72656 147.256C3.03856 146.504 2.69456 145.464 2.69456 144.136V139.096H1.01456V136.48H2.69456V133.024H6.31856V136.48H9.03056V139.096H6.31856V143.656C6.31856 144.328 6.44656 144.816 6.70256 145.12C6.95856 145.408 7.41456 145.552 8.07056 145.552C8.59856 145.552 9.10256 145.424 9.58256 145.168V147.88C8.84656 148.2 7.91856 148.36 6.79856 148.36ZM11.2558 130.264H14.8798V137.8C15.4238 137.24 16.0398 136.824 16.7278 136.552C17.4158 136.264 18.1518 136.12 18.9358 136.12C20.5038 136.12 21.6718 136.544 22.4398 137.392C23.2238 138.224 23.6158 139.352 23.6158 140.776V148H19.9918V141.184C19.9918 139.696 19.3038 138.952 17.9278 138.952C17.3198 138.952 16.7518 139.104 16.2238 139.408C15.6958 139.696 15.2478 140.128 14.8798 140.704V148H11.2558V130.264ZM32.6454 148.36C30.4374 148.36 28.7014 147.832 27.4374 146.776C26.1734 145.704 25.5414 144.208 25.5414 142.288C25.5414 140.384 26.1014 138.88 27.2214 137.776C28.3574 136.672 29.9734 136.12 32.0694 136.12C33.4454 136.12 34.6134 136.376 35.5734 136.888C36.5334 137.4 37.2614 138.112 37.7574 139.024C38.2534 139.92 38.5014 140.936 38.5014 142.072V143.536H28.9974C29.2534 145.008 30.6294 145.744 33.1254 145.744C33.8614 145.744 34.6214 145.68 35.4054 145.552C36.1894 145.424 36.8694 145.248 37.4454 145.024V147.568C36.8854 147.808 36.1654 148 35.2854 148.144C34.4054 148.288 33.5254 148.36 32.6454 148.36ZM35.0694 141.184C35.0214 140.416 34.7334 139.824 34.2054 139.408C33.6774 138.976 32.9494 138.76 32.0214 138.76C31.1094 138.76 30.3894 138.976 29.8614 139.408C29.3334 139.84 29.0454 140.432 28.9974 141.184H35.0694ZM48.8964 131.224H55.9524C57.8564 131.224 59.3764 131.728 60.5124 132.736C61.6484 133.728 62.2164 135.112 62.2164 136.888C62.2164 138.712 61.6484 140.112 60.5124 141.088C59.3924 142.064 57.8724 142.552 55.9524 142.552H52.5444V148H48.8964V131.224ZM55.4244 139.504C57.4884 139.504 58.5204 138.632 58.5204 136.888C58.5204 135.912 58.2404 135.232 57.6804 134.848C57.1364 134.464 56.3844 134.272 55.4244 134.272H52.5444V139.504H55.4244ZM63.8964 130.264H67.5204V148H63.8964V130.264ZM74.3331 148.36C72.9251 148.36 71.7731 148.008 70.8771 147.304C69.9971 146.584 69.5571 145.608 69.5571 144.376C69.5571 143.096 69.9811 142.104 70.8291 141.4C71.6771 140.68 72.8771 140.32 74.4291 140.32C75.1171 140.32 75.7731 140.392 76.3971 140.536C77.0211 140.68 77.5731 140.88 78.0531 141.136V140.848C78.0531 140.128 77.7971 139.6 77.2851 139.264C76.7731 138.928 75.9891 138.76 74.9331 138.76C73.5251 138.76 72.2291 139.024 71.0451 139.552V136.912C71.5571 136.688 72.2211 136.504 73.0371 136.36C73.8531 136.2 74.6691 136.12 75.4851 136.12C77.5651 136.12 79.1171 136.552 80.1411 137.416C81.1651 138.264 81.6771 139.456 81.6771 140.992V148H78.2691V146.944C77.2931 147.888 75.9811 148.36 74.3331 148.36ZM75.3171 145.96C75.9091 145.96 76.4451 145.848 76.9251 145.624C77.4051 145.4 77.7811 145.088 78.0531 144.688V143.536C77.2371 142.992 76.3411 142.72 75.3651 142.72C74.6931 142.72 74.1731 142.864 73.8051 143.152C73.4531 143.424 73.2771 143.832 73.2771 144.376C73.2771 144.888 73.4531 145.28 73.8051 145.552C74.1571 145.824 74.6611 145.96 75.3171 145.96ZM88.4526 148.36C87.5886 148.36 86.6606 148.264 85.6686 148.072C84.6926 147.896 83.9246 147.64 83.3646 147.304V144.472C84.0046 144.856 84.7726 145.168 85.6686 145.408C86.5646 145.648 87.3966 145.768 88.1646 145.768C88.8206 145.768 89.3006 145.712 89.6046 145.6C89.9086 145.488 90.0606 145.28 90.0606 144.976C90.0606 144.736 89.9726 144.544 89.7966 144.4C89.6206 144.24 89.3486 144.104 88.9806 143.992C88.6286 143.864 88.0366 143.68 87.2046 143.44C86.2286 143.152 85.4606 142.864 84.9006 142.576C84.3566 142.272 83.9406 141.896 83.6526 141.448C83.3806 141 83.2446 140.424 83.2446 139.72C83.2446 138.52 83.7166 137.624 84.6606 137.032C85.6206 136.424 86.9166 136.12 88.5486 136.12C89.3486 136.12 90.1726 136.208 91.0206 136.384C91.8846 136.544 92.5486 136.76 93.0126 137.032V139.792C92.5486 139.488 91.9406 139.24 91.1886 139.048C90.4526 138.856 89.7326 138.76 89.0286 138.76C88.3726 138.76 87.8606 138.824 87.4926 138.952C87.1406 139.08 86.9646 139.32 86.9646 139.672C86.9646 139.976 87.1326 140.208 87.4686 140.368C87.8206 140.528 88.4686 140.728 89.4126 140.968L89.8926 141.088C90.9006 141.36 91.6846 141.664 92.2446 142C92.8046 142.32 93.1966 142.712 93.4206 143.176C93.6606 143.624 93.7806 144.192 93.7806 144.88C93.7806 145.936 93.3246 146.784 92.4126 147.424C91.5006 148.048 90.1806 148.36 88.4526 148.36ZM100.291 148.36C98.9468 148.36 97.9228 147.992 97.2188 147.256C96.5308 146.504 96.1868 145.464 96.1868 144.136V139.096H94.5068V136.48H96.1868V133.024H99.8108V136.48H102.523V139.096H99.8108V143.656C99.8108 144.328 99.9388 144.816 100.195 145.12C100.451 145.408 100.907 145.552 101.563 145.552C102.091 145.552 102.595 145.424 103.075 145.168V147.88C102.339 148.2 101.411 148.36 100.291 148.36ZM106.74 134.704C106.18 134.704 105.708 134.52 105.324 134.152C104.94 133.784 104.748 133.32 104.748 132.76C104.748 132.216 104.94 131.76 105.324 131.392C105.708 131.008 106.18 130.816 106.74 130.816C107.3 130.816 107.772 131.008 108.156 131.392C108.54 131.76 108.732 132.216 108.732 132.76C108.732 133.32 108.54 133.784 108.156 134.152C107.772 134.52 107.3 134.704 106.74 134.704ZM104.916 136.48H108.564V148H104.916V136.48ZM117.553 148.36C115.473 148.36 113.817 147.832 112.585 146.776C111.353 145.704 110.737 144.2 110.737 142.264C110.737 140.328 111.353 138.824 112.585 137.752C113.833 136.664 115.497 136.12 117.577 136.12C119.465 136.12 120.969 136.472 122.089 137.176V140.032C121.577 139.664 120.977 139.392 120.289 139.216C119.617 139.04 118.905 138.952 118.153 138.952C117.033 138.952 116.137 139.224 115.465 139.768C114.793 140.312 114.457 141.144 114.457 142.264C114.457 143.384 114.785 144.216 115.441 144.76C116.113 145.288 117.009 145.552 118.129 145.552C119.681 145.552 121.049 145.176 122.233 144.424V147.256C121.049 147.992 119.489 148.36 117.553 148.36ZM56.4806 180.36C54.6886 180.36 53.1046 180.008 51.7286 179.304C50.3526 178.584 49.2886 177.568 48.5366 176.256C47.7846 174.944 47.4086 173.4 47.4086 171.624C47.4086 169.848 47.7846 168.304 48.5366 166.992C49.2886 165.664 50.3526 164.648 51.7286 163.944C53.1046 163.224 54.6886 162.864 56.4806 162.864C58.8006 162.864 60.7366 163.392 62.2886 164.448V167.904C61.5846 167.312 60.7766 166.888 59.8646 166.632C58.9686 166.36 57.9446 166.224 56.7926 166.224C55.0486 166.224 53.6646 166.712 52.6406 167.688C51.6326 168.648 51.1286 169.96 51.1286 171.624C51.1286 173.304 51.6406 174.632 52.6646 175.608C53.6886 176.568 55.0646 177.048 56.7926 177.048C57.9766 177.048 59.0246 176.912 59.9366 176.64C60.8486 176.352 61.6966 175.896 62.4806 175.272V178.728C61.0086 179.816 59.0086 180.36 56.4806 180.36ZM66.5213 166.704C65.9613 166.704 65.4893 166.52 65.1053 166.152C64.7213 165.784 64.5293 165.32 64.5293 164.76C64.5293 164.216 64.7213 163.76 65.1053 163.392C65.4893 163.008 65.9613 162.816 66.5213 162.816C67.0813 162.816 67.5533 163.008 67.9373 163.392C68.3213 163.76 68.5133 164.216 68.5133 164.76C68.5133 165.32 68.3213 165.784 67.9373 166.152C67.5533 166.52 67.0813 166.704 66.5213 166.704ZM64.6973 168.48H68.3453V180H64.6973V168.48ZM70.998 168.48H74.502V170.136C74.966 169.576 75.614 169.152 76.446 168.864C77.278 168.56 78.222 168.408 79.278 168.408V171.168C78.174 171.168 77.198 171.336 76.35 171.672C75.518 172.008 74.942 172.52 74.622 173.208V180H70.998V168.48ZM87.0371 180.36C84.9571 180.36 83.3011 179.832 82.0691 178.776C80.8371 177.704 80.2211 176.2 80.2211 174.264C80.2211 172.328 80.8371 170.824 82.0691 169.752C83.3171 168.664 84.9811 168.12 87.0611 168.12C88.9491 168.12 90.4531 168.472 91.5731 169.176V172.032C91.0611 171.664 90.4611 171.392 89.7731 171.216C89.1011 171.04 88.3891 170.952 87.6371 170.952C86.5171 170.952 85.6211 171.224 84.9491 171.768C84.2771 172.312 83.9411 173.144 83.9411 174.264C83.9411 175.384 84.2691 176.216 84.9251 176.76C85.5971 177.288 86.4931 177.552 87.6131 177.552C89.1651 177.552 90.5331 177.176 91.7171 176.424V179.256C90.5331 179.992 88.9731 180.36 87.0371 180.36ZM98.3164 180.36C96.7484 180.36 95.5724 179.936 94.7884 179.088C94.0044 178.224 93.6124 177.08 93.6124 175.656V168.48H97.2364V175.272C97.2364 176.776 97.9324 177.528 99.3244 177.528C99.9324 177.528 100.5 177.384 101.028 177.096C101.556 176.808 101.996 176.376 102.348 175.8V168.48H105.972V180H102.468V178.608C101.956 179.2 101.332 179.64 100.596 179.928C99.8764 180.216 99.1164 180.36 98.3164 180.36ZM110.49 166.704C109.93 166.704 109.458 166.52 109.074 166.152C108.69 165.784 108.498 165.32 108.498 164.76C108.498 164.216 108.69 163.76 109.074 163.392C109.458 163.008 109.93 162.816 110.49 162.816C111.05 162.816 111.522 163.008 111.906 163.392C112.29 163.76 112.482 164.216 112.482 164.76C112.482 165.32 112.29 165.784 111.906 166.152C111.522 166.52 111.05 166.704 110.49 166.704ZM108.666 168.48H112.314V180H108.666V168.48ZM119.791 180.36C118.447 180.36 117.423 179.992 116.719 179.256C116.031 178.504 115.687 177.464 115.687 176.136V171.096H114.007V168.48H115.687V165.024H119.311V168.48H122.023V171.096H119.311V175.656C119.311 176.328 119.439 176.816 119.695 177.12C119.951 177.408 120.407 177.552 121.063 177.552C121.591 177.552 122.095 177.424 122.575 177.168V179.88C121.839 180.2 120.911 180.36 119.791 180.36Z" fill="white"/>
</svg>
