<svg width="26" height="26" viewBox="0 0 26 26" fill="none" xmlns="http://www.w3.org/2000/svg">
<path d="M3.87433 24.1158L4.26633 23.4764L4.26633 23.4764L3.87433 24.1158ZM1.89436 22.135L2.53392 21.7432L2.53392 21.7432L1.89436 22.135ZM24.1161 22.135L23.4766 21.7432L23.4766 21.7432L24.1161 22.135ZM22.1362 24.1158L21.7441 23.4764L21.7441 23.4764L22.1362 24.1158ZM22.1362 5.48416L21.7441 6.12356L21.7441 6.12356L22.1362 5.48416ZM24.1161 7.46501L23.4766 7.85676L23.4766 7.85676L24.1161 7.46501ZM3.87433 5.48416L4.26633 6.12356L4.26633 6.12356L3.87433 5.48416ZM1.89436 7.46501L2.53392 7.85676L2.53392 7.85676L1.89436 7.46501ZM20.7739 1.65574L21.3153 1.13669L21.3153 1.13669L20.7739 1.65574ZM3.22268 2.06895L3.67565 2.66671L3.67565 2.66671L3.22268 2.06895ZM2.03548 3.3072L2.65088 3.73589L2.03548 3.3072ZM21.4015 4.75639L22.1515 4.75639L22.1515 4.75268L21.4015 4.75639ZM20.6382 14.7864C21.0524 14.7864 21.3882 14.4506 21.3882 14.0364C21.3882 13.6222 21.0524 13.2864 20.6382 13.2864V14.7864ZM17.3669 13.2864C16.9527 13.2864 16.6169 13.6222 16.6169 14.0364C16.6169 14.4506 16.9527 14.7864 17.3669 14.7864V13.2864ZM11.206 5.35H14.8044V3.85H11.206V5.35ZM14.8044 24.25H11.206V25.75H14.8044V24.25ZM11.206 24.25C9.22833 24.25 7.79774 24.2492 6.67964 24.1429C5.57271 24.0376 4.84974 23.8341 4.26633 23.4764L3.48233 24.7552C4.34108 25.2817 5.3208 25.5204 6.53759 25.6361C7.74321 25.7508 9.25739 25.75 11.206 25.75V24.25ZM0.260601 14.8C0.260601 16.7495 0.25981 18.2643 0.374435 19.4704C0.49012 20.6877 0.728626 21.6677 1.25481 22.5267L2.53392 21.7432C2.17634 21.1595 1.97296 20.436 1.86771 19.3285C1.76139 18.2099 1.7606 16.7786 1.7606 14.8H0.260601ZM4.26633 23.4764C3.56028 23.0436 2.96663 22.4497 2.53392 21.7432L1.25481 22.5267C1.81113 23.435 2.57443 24.1986 3.48233 24.7552L4.26633 23.4764ZM14.8044 25.75C16.7531 25.75 18.2673 25.7508 19.4729 25.6361C20.6897 25.5204 21.6694 25.2817 22.5282 24.7552L21.7441 23.4764C21.1607 23.8341 20.4378 24.0376 19.3308 24.1429C18.2127 24.2492 16.7821 24.25 14.8044 24.25V25.75ZM23.4766 21.7432C23.0439 22.4497 22.4502 23.0436 21.7441 23.4764L22.5282 24.7552C23.436 24.1986 24.1994 23.435 24.7557 22.5267L23.4766 21.7432ZM21.7441 6.12356C22.4502 6.55642 23.0439 7.15033 23.4766 7.85676L24.7557 7.07326C24.1994 6.16502 23.436 5.40137 22.5282 4.84476L21.7441 6.12356ZM11.206 3.85C9.25739 3.85 7.74321 3.84921 6.53759 3.96389C5.3208 4.07964 4.34108 4.31827 3.48233 4.84476L4.26633 6.12356C4.84974 5.76588 5.57271 5.56244 6.67964 5.45715C7.79774 5.35079 9.22833 5.35 11.206 5.35V3.85ZM1.7606 14.8C1.7606 12.8214 1.76139 11.3901 1.86771 10.2715C1.97296 9.16396 2.17634 8.44054 2.53392 7.85676L1.25481 7.07326C0.728626 7.93229 0.49012 8.91231 0.374435 10.1296C0.25981 11.3357 0.260601 12.8505 0.260601 14.8H1.7606ZM3.48233 4.84476C2.57443 5.40137 1.81113 6.16502 1.25481 7.07326L2.53392 7.85676C2.96663 7.15033 3.56028 6.55642 4.26633 6.12356L3.48233 4.84476ZM10.67 1.75H17.1096V0.25H10.67V1.75ZM17.1096 1.75C18.1435 1.75 18.8404 1.75173 19.3607 1.8247C19.8562 1.89418 20.0793 2.01497 20.2325 2.17479L21.3153 1.13669C20.8398 0.640771 20.2426 0.433694 19.569 0.339234C18.9203 0.24827 18.0993 0.25 17.1096 0.25V1.75ZM10.67 0.25C8.67516 0.25 7.11623 0.248881 5.88192 0.388362C4.63163 0.529648 3.62531 0.822818 2.7697 1.47119L3.67565 2.66671C4.23066 2.24613 4.93577 2.00483 6.05035 1.87888C7.18092 1.75112 8.64033 1.75 10.67 1.75V0.25ZM1.7606 11.0748C1.7606 8.95997 1.76155 7.43166 1.8847 6.24613C2.00657 5.07286 2.24134 4.32381 2.65088 3.73589L1.42007 2.87852C0.804733 3.76187 0.527068 4.79784 0.392724 6.09115C0.259653 7.3722 0.260601 8.99203 0.260601 11.0748H1.7606ZM2.7697 1.47119C2.25063 1.86454 1.79541 2.33969 1.42007 2.87852L2.65088 3.73589C2.93753 3.32439 3.28358 2.96381 3.67565 2.66671L2.7697 1.47119ZM22.1515 4.75268C22.1475 3.93942 22.1299 3.24789 22.0307 2.67878C21.9283 2.0906 21.7285 1.56771 21.3153 1.13669L20.2325 2.17479C20.3719 2.32014 20.4819 2.52798 20.553 2.93626C20.6275 3.36358 20.6474 3.93419 20.6515 4.76009L22.1515 4.75268ZM0.260601 11.0748C0.260601 12.2508 0.23643 13.3154 0.260854 14.2202L1.76031 14.1798C1.73654 13.2994 1.7606 12.3036 1.7606 11.0748H0.260601ZM24.4001 16.5591H17.3669V18.0591H24.4001V16.5591ZM13.3457 14.0364C13.3457 16.2578 15.1457 18.0591 17.3669 18.0591V16.5591C15.9748 16.5591 14.8457 15.43 14.8457 14.0364H13.3457ZM14.8457 14.0364C14.8457 12.6428 15.9748 11.5137 17.3669 11.5137V10.0137C15.1457 10.0137 13.3457 11.815 13.3457 14.0364H14.8457ZM20.6382 13.2864H17.3669V14.7864H20.6382V13.2864ZM14.8044 5.35C16.4635 5.35 17.7406 5.35032 18.7761 5.41425C19.8107 5.47812 20.5474 5.60319 21.1351 5.82647L21.6679 4.42427C20.8728 4.12218 19.9614 3.98457 18.8685 3.9171C17.7764 3.84968 16.4463 3.85 14.8044 3.85V5.35ZM21.1351 5.82647C21.3557 5.91029 21.5563 6.00842 21.7441 6.12356L22.5282 4.84476C22.2565 4.67822 21.9712 4.53954 21.6679 4.42427L21.1351 5.82647ZM20.6515 4.75639V5.12537H22.1515V4.75639H20.6515ZM17.3669 11.5137H24.9332V10.0137H17.3669V11.5137ZM25.7499 14.8C25.7499 13.1489 25.7502 11.8129 25.6817 10.7169L24.1847 10.8104C24.2495 11.8491 24.2499 13.1314 24.2499 14.8H25.7499ZM25.6817 10.7169C25.5882 9.219 25.3625 8.06395 24.7557 7.07326L23.4766 7.85676C23.8904 8.53236 24.096 9.3912 24.1847 10.8104L25.6817 10.7169ZM24.2499 14.8C24.2499 15.7447 24.2499 16.5676 24.2378 17.2967L25.7376 17.3216C25.7499 16.5776 25.7499 15.7411 25.7499 14.8H24.2499ZM24.2378 17.2967C24.1988 19.6439 24.028 20.8429 23.4766 21.7432L24.7557 22.5267C25.5475 21.2341 25.6991 19.6381 25.7376 17.3216L24.2378 17.2967ZM24.4001 18.0591H24.9877V16.5591H24.4001V18.0591Z" fill="#18191B"/>
</svg>
